<svg width="113" height="52" viewBox="0 0 113 52" fill="none" xmlns="http://www.w3.org/2000/svg">
<path fill-rule="evenodd" clip-rule="evenodd" d="M16.7004 38.9089H14.9566V44.3367H13.7751V38.9089H11.9258V37.9253H16.9809L16.7004 38.9089Z" fill="white"/>
<mask id="mask0_5596_8489" style="mask-type:alpha" maskUnits="userSpaceOnUse" x="17" y="37" width="10" height="8">
<path d="M17.5508 44.4131H26.6397V37.4492H17.5508V44.4131Z" fill="white"/>
</mask>
<g mask="url(#mask0_5596_8489)">
<path fill-rule="evenodd" clip-rule="evenodd" d="M20.5248 44.3373V41.6516C20.5248 41.1357 20.4473 40.6477 19.8279 40.6477C19.4308 40.6477 19.0242 40.8738 18.7138 41.1357V44.3373H17.5508V37.4492H18.7138V40.2298C19.1405 39.8813 19.6436 39.6261 20.2338 39.6261C20.9416 39.6261 21.6973 39.968 21.6973 41.3211V44.3373H20.5248ZM24.5589 40.5033C23.997 40.5033 23.6577 41.0079 23.6577 41.5143H25.439C25.42 41.0193 25.1487 40.5033 24.5589 40.5033ZM23.6873 42.3427C23.7056 43.0221 24.2686 43.4998 24.9747 43.4998C25.4105 43.4998 25.7692 43.3918 26.1662 43.1792L26.4474 43.9279C25.9334 44.2867 25.3242 44.4336 24.7819 44.4336C23.1827 44.4336 22.5045 43.2662 22.5045 42.0306C22.5045 40.7178 23.2796 39.6261 24.5875 39.6261C25.828 39.6261 26.6401 40.5713 26.6401 42.0001V42.3427H23.6873Z" fill="white"/>
</g>
<path fill-rule="evenodd" clip-rule="evenodd" d="M35.0441 38.9094H33.3004V44.3372H32.1189V38.9094H30.2695V37.9258H35.3258L35.0441 38.9094Z" fill="white"/>
<mask id="mask1_5596_8489" style="mask-type:alpha" maskUnits="userSpaceOnUse" x="35" y="37" width="68" height="8">
<path d="M35.2578 44.4129H102.058V37.4478H35.2578V44.4129Z" fill="white"/>
</mask>
<g mask="url(#mask1_5596_8489)">
<path fill-rule="evenodd" clip-rule="evenodd" d="M37.845 40.8136C37.6515 40.6986 37.4475 40.6681 37.3119 40.6681C37.0219 40.6681 36.7693 40.7757 36.4208 41.0775V44.3369H35.2578V39.7343H36.2369L36.3722 40.2223C36.8366 39.8037 37.196 39.6274 37.6226 39.6274C37.8541 39.6274 38.1071 39.6957 38.2801 39.821L37.845 40.8136ZM41.3126 42.2251L40.6526 42.246C40.0241 42.2651 39.7433 42.4784 39.7433 42.868C39.7433 43.247 40.0037 43.5085 40.4885 43.5085C40.8961 43.5085 41.1565 43.3539 41.3126 43.2176V42.2251ZM41.6029 44.3369L41.4094 43.9285C41.1089 44.1996 40.6925 44.4328 40.0815 44.4328C39.2398 44.4328 38.5806 43.8592 38.5806 42.9537C38.5806 42.0018 39.3268 41.4848 40.498 41.4473L41.3126 41.4179V41.3015C41.3126 40.7361 40.9246 40.5238 40.4113 40.5238C39.9367 40.5238 39.5488 40.689 39.2585 40.8642L38.8804 40.1342C39.4914 39.7248 40.0625 39.6274 40.6731 39.6274C41.8065 39.6274 42.4943 40.0945 42.4943 41.3015V43.1193C42.4943 43.782 42.5136 44.1242 42.5809 44.3369H41.6029Z" fill="white"/>
<mask id="mask2_5596_8489" style="mask-type:alpha" maskUnits="userSpaceOnUse" x="35" y="37" width="68" height="8">
<path d="M35.2578 44.4129H102.058V37.4478H35.2578V44.4129Z" fill="white"/>
</mask>
<g mask="url(#mask2_5596_8489)">
<path fill-rule="evenodd" clip-rule="evenodd" d="M45.9126 44.3644H45.0699L43.1914 39.7344H44.3535L45.4961 42.8672H45.5155L46.6776 39.7344H47.8312L45.9126 44.3644Z" fill="white"/>
</g>
<mask id="mask3_5596_8489" style="mask-type:alpha" maskUnits="userSpaceOnUse" x="35" y="37" width="68" height="8">
<path d="M35.2578 44.4129H102.058V37.4478H35.2578V44.4129Z" fill="white"/>
</mask>
<g mask="url(#mask3_5596_8489)">
<path fill-rule="evenodd" clip-rule="evenodd" d="M50.1045 40.5029C49.5418 40.5029 49.2039 41.0075 49.2039 41.5139H50.9853C50.9659 41.0189 50.695 40.5029 50.1045 40.5029ZM49.2325 42.3423C49.2515 43.0217 49.8131 43.4994 50.5209 43.4994C50.9568 43.4994 51.3151 43.3914 51.7125 43.1788L51.993 43.9275C51.4796 44.2863 50.869 44.4332 50.3265 44.4332C48.7287 44.4332 48.0508 43.2658 48.0508 42.0302C48.0508 40.7174 48.8248 39.6257 50.1334 39.6257C51.3725 39.6257 52.1871 40.5709 52.1871 41.9997V42.3423H49.2325ZM54.1425 44.4332C53.3783 44.4332 53.0869 43.9944 53.0869 43.4208V37.4478H54.2493V42.9056C54.2493 43.246 54.3176 43.3822 54.559 43.3822C54.6365 43.3822 54.7341 43.3713 54.8983 43.3327L55.0434 44.1986C54.7048 44.384 54.405 44.4332 54.1425 44.4332ZM61.9631 40.2988C61.8476 39.9775 61.7704 39.7153 61.7207 39.5008H61.7119C61.6725 39.7248 61.5851 39.9775 61.4787 40.2786L60.9262 41.7676H62.4772L61.9631 40.2988ZM63.475 44.3369L62.8454 42.7319H60.5676L59.9778 44.3369H58.8049L61.2867 37.8957H62.1375L64.7064 44.3369H63.475ZM66.8746 44.4332C66.1195 44.4332 65.5569 44.2386 65.1795 44.0057L65.5569 43.1476C65.8965 43.3822 66.3302 43.5571 66.7872 43.5571C67.2611 43.5571 67.5708 43.3822 67.5708 43.0691C67.5708 42.2439 65.4596 42.5549 65.4596 40.9909C65.4596 40.1919 66.0892 39.6257 67.1945 39.6257C67.6874 39.6257 68.1525 39.7153 68.5309 39.861V40.8338C68.143 40.6777 67.7272 40.5309 67.2329 40.5309C66.8351 40.5309 66.5828 40.6586 66.5828 40.929C66.5828 41.6607 68.7342 41.4169 68.7342 43.0029C68.7342 44.0351 67.8618 44.4332 66.8746 44.4332ZM71.1353 44.4332C70.3813 44.4332 69.8183 44.2386 69.4409 44.0057L69.8183 43.1476C70.1572 43.3822 70.5937 43.5571 71.0486 43.5571C71.5239 43.5571 71.8336 43.3822 71.8336 43.0691C71.8336 42.2439 69.7203 42.5549 69.7203 40.9909C69.7203 40.1919 70.352 39.6257 71.4573 39.6257C71.9491 39.6257 72.4149 39.7153 72.7937 39.861V40.8338C72.4047 40.6777 71.9886 40.5309 71.4946 40.5309C71.0965 40.5309 70.8464 40.6586 70.8464 40.929C70.8464 41.6607 72.9959 41.4169 72.9959 43.0029C72.9959 44.0351 72.1242 44.4332 71.1353 44.4332ZM81.344 44.4332C79.8511 44.4332 79.088 43.3539 79.088 42.0585C79.088 40.6586 80.0928 39.6257 81.4606 39.6257C82.08 39.6257 82.5073 39.7835 82.7667 39.9481L82.7473 40.9007C82.4281 40.6586 82.0694 40.5227 81.5962 40.5227C80.8102 40.5227 80.2493 41.1448 80.2493 41.9997C80.2493 42.7874 80.6749 43.4898 81.5839 43.4898C82.0215 43.4898 82.3509 43.3539 82.6712 43.1671L82.9597 43.9367C82.5926 44.1894 81.9736 44.4332 81.344 44.4332ZM83.9582 44.3359H85.122V39.7333H83.9582V44.3359ZM84.541 39.0256C84.1432 39.0256 83.8229 38.7124 83.8229 38.3136C83.8229 37.9332 84.1432 37.6141 84.541 37.6141C84.9468 37.6141 85.2646 37.9251 85.2646 38.3136C85.2646 38.7029 84.9468 39.0256 84.541 39.0256ZM88.8894 42.2241L88.2305 42.245C87.5999 42.2641 87.3194 42.4774 87.3194 42.867C87.3194 43.246 87.5819 43.5075 88.0646 43.5075C88.4726 43.5075 88.733 43.3529 88.8894 43.2166V42.2241ZM89.179 44.3359L88.9863 43.9275C88.6861 44.1986 88.27 44.4318 87.658 44.4318C86.8156 44.4318 86.1578 43.8582 86.1578 42.9527C86.1578 42.0008 86.9033 41.4838 88.0741 41.4463L88.8894 41.4169V41.3005C88.8894 40.7351 88.5015 40.5227 87.9867 40.5227C87.5132 40.5227 87.1253 40.688 86.8357 40.8632L86.4562 40.1332C87.0679 39.7237 87.6383 39.6264 88.2513 39.6264C89.3837 39.6264 90.0714 40.0935 90.0714 41.3005V43.1183C90.0714 43.781 90.0891 44.1232 90.1592 44.3359H89.179ZM92.9017 44.4332C92.0117 44.4332 91.6936 43.9757 91.6936 43.3539V40.6098H90.8804V39.7344H91.6936V38.6739L92.8548 38.3232V39.7344H94.2775L93.9389 40.6098H92.8548V42.9643C92.8548 43.3246 92.9915 43.4898 93.2886 43.4898C93.5806 43.4898 93.8794 43.3621 94.0644 43.2754L94.3755 44.0351C93.9389 44.3157 93.3594 44.4332 92.9017 44.4332ZM95.3525 44.3359H96.5148V39.7333H95.3525V44.3359ZM95.9342 39.0256C95.5382 39.0256 95.2168 38.7124 95.2168 38.3136C95.2168 37.9332 95.5382 37.6141 95.9342 37.6141C96.3408 37.6141 96.66 37.9251 96.66 38.3136C96.66 38.7029 96.3408 39.0256 95.9342 39.0256ZM99.7446 40.55C99.0096 40.55 98.651 41.1742 98.651 42.0302C98.651 42.9247 99.0678 43.5277 99.7728 43.5277C100.501 43.5277 100.868 42.8953 100.868 42.0302C100.868 41.1448 100.463 40.55 99.7446 40.55ZM101.411 43.7715C101.004 44.1894 100.442 44.4332 99.7559 44.4332C99.1171 44.4332 98.5738 44.229 98.1778 43.8582C97.7212 43.4311 97.47 42.7987 97.47 42.0585C97.47 41.338 97.7117 40.7174 98.1369 40.2786C98.5446 39.8706 99.097 39.6264 99.764 39.6264C100.473 39.6264 101.042 39.8706 101.451 40.2881C101.846 40.7174 102.06 41.3207 102.06 42.0188C102.06 42.7205 101.838 43.3419 101.411 43.7715ZM76.0545 40.55C75.3206 40.55 74.9619 41.1742 74.9619 42.0302C74.9619 42.9247 75.378 43.5277 76.0844 43.5277C76.8113 43.5277 77.1784 42.8953 77.1784 42.0302C77.1784 41.1448 76.7718 40.55 76.0545 40.55ZM77.7224 43.7715C77.3158 44.1894 76.7517 44.4332 76.065 44.4332C75.4266 44.4332 74.8837 44.229 74.4877 43.8582C74.0321 43.4311 73.7795 42.7987 73.7795 42.0585C73.7795 41.338 74.0215 40.7174 74.4468 40.2786C74.8555 39.8706 75.4072 39.6264 76.0752 39.6264C76.782 39.6264 77.3535 39.8706 77.7597 40.2881C78.1557 40.7174 78.371 41.3207 78.371 42.0188C78.371 42.7205 78.1476 43.3419 77.7224 43.7715Z" fill="white"/>
</g>
</g>
<path fill-rule="evenodd" clip-rule="evenodd" d="M105.777 44.3376V41.632C105.777 41.1568 105.691 40.6292 105.1 40.6292C104.693 40.6292 104.294 40.8436 103.936 41.1158V44.3376H102.775V39.735H103.763L103.889 40.2301C104.382 39.8617 104.876 39.6264 105.496 39.6264C106.194 39.6264 106.94 40.0471 106.94 41.2803V44.3376H105.777ZM27.4762 29.7627C28.1615 28.7248 28.7361 27.5776 29.1853 26.3505H31.4536C30.429 27.7921 29.0669 28.9697 27.4762 29.7627ZM24.1351 30.7896V26.3505H26.5605C25.9644 27.9931 25.1452 29.4913 24.1393 30.7896H24.1351ZM26.5348 13.8074H24.1351V9.43199C25.1269 10.7136 25.94 12.1889 26.5348 13.8074ZM31.4131 13.8074H29.1536C28.7051 12.5972 28.1319 11.4656 27.4515 10.4394C29.0303 11.2204 30.3892 12.3824 31.4131 13.8074ZM30.2282 18.8236C30.1673 17.9673 30.0499 17.1276 29.878 16.3169H32.7583C33.056 17.1117 33.2579 17.9514 33.3604 18.8236H30.2282ZM30.2303 21.3342H33.3685C33.2695 22.2054 33.0733 23.0451 32.7808 23.8416H29.8953C30.0619 23.0281 30.175 22.1906 30.2303 21.3342ZM24.1351 18.8236V16.3169H27.2532C27.423 17.1276 27.5382 17.9673 27.5949 18.8236H24.1351ZM27.6002 21.3342C27.5449 22.1906 27.436 23.0281 27.2683 23.8416H24.1351V21.3342H27.6002ZM22.7099 6.67334C22.2871 6.67334 21.8696 6.69634 21.4581 6.73279V8.89625H21.457V32.6346H21.4581V33.4814C21.8696 33.5224 22.2871 33.544 22.7099 33.544C30.0979 33.544 36.0871 27.5281 36.0871 20.1071C36.0871 12.6882 30.0979 6.67334 22.7099 6.67334ZM65.9024 22.3456H62.8481V28.4885H65.4345C68.1563 28.4885 69.4969 27.2687 69.4969 25.2489C69.4969 23.5246 68.1855 22.3456 65.9024 22.3456ZM65.1329 13.1386H62.8481V18.9376H64.9945C66.8135 18.9376 68.1563 17.76 68.1563 15.9015C68.1563 14.3184 67.0795 13.1386 65.1329 13.1386ZM65.8066 31.9255H58.7829V9.69384H65.7002C70.1702 9.69384 72.2179 12.7646 72.2179 15.4649C72.2179 17.589 71.3431 19.0076 69.5656 20.0851V20.152C72.1217 20.7228 73.6614 22.5143 73.6614 25.2146C73.6614 28.3869 71.3776 31.9255 65.8066 31.9255Z" fill="white"/>
<path fill-rule="evenodd" clip-rule="evenodd" d="M89.9648 13.1031H84.0719V31.9257H79.9712V13.1031H73.5586V9.69336H91.2872L89.9648 13.1031Z" fill="white"/>
<path fill-rule="evenodd" clip-rule="evenodd" d="M47.3544 17.9101C46.9467 16.7968 46.6797 15.8839 46.5141 15.1468H46.4781C46.3456 15.9207 46.0455 16.7968 45.6745 17.846L43.7557 23.0236H49.1428L47.3544 17.9101ZM52.5991 31.9259L50.4119 26.353H42.5109L40.4593 31.9259H36.3913L44.9557 9.68896H48.0012L56.8711 31.9259H52.5991ZM98.0645 17.9101C97.6558 16.7968 97.3891 15.8839 97.2242 15.1468H97.1879C97.0554 15.9207 96.7528 16.7968 96.3832 17.846L94.4637 23.0236H99.8501L98.0645 17.9101ZM103.306 31.9259L101.121 26.353H93.2168L91.1698 31.9259H87.0997L95.6627 9.68896H98.7117L107.58 31.9259H103.306ZM20.1927 17.575V16.5552L13.7888 10.1214C13.4316 10.4441 13.093 10.781 12.7734 11.138L19.1837 17.575H20.1927Z" fill="white"/>
<mask id="mask4_5596_8489" style="mask-type:alpha" maskUnits="userSpaceOnUse" x="9" y="18" width="12" height="13">
<path d="M9.35156 18.8564V30.0218H20.1939V18.8564H9.35156Z" fill="white"/>
</mask>
<g mask="url(#mask4_5596_8489)">
<path fill-rule="evenodd" clip-rule="evenodd" d="M20.195 22.5687V23.5885L13.7911 30.0223C13.4338 29.701 13.0952 29.3627 12.7757 29.0046L19.1859 22.5687H20.195ZM20.195 18.8564H9.39298C9.35352 19.2676 9.33203 19.6855 9.33203 20.1073C9.33203 20.5295 9.35352 20.9452 9.39298 21.3575H20.195V18.8564Z" fill="white"/>
</g>
<path fill-rule="evenodd" clip-rule="evenodd" d="M12.0721 11.99C10.8509 13.6026 9.98627 15.5049 9.59766 17.5746H17.6328L12.0721 11.99ZM20.195 14.995V6.93311C18.1367 7.32235 16.2461 8.19035 14.6377 9.41539L20.195 14.995ZM14.6388 30.7277C16.2471 31.9538 18.1367 32.8186 20.195 33.2114V25.1485L14.6388 30.7277ZM17.6332 22.5685H9.59836C9.98663 24.6386 10.8512 26.5388 12.0738 28.1534L17.6332 22.5685Z" fill="white"/>
</svg>
