<svg width="92" height="36" viewBox="0 0 92 36" fill="none" xmlns="http://www.w3.org/2000/svg">
<path d="M6.892 29.9598H5.26099V34.9886H4.15585V29.9598H2.42603V29.0486H7.15437L6.892 29.9598Z" fill="#8B8B8B"/>
<mask id="mask0_2057_96420" style="mask-type:alpha" maskUnits="userSpaceOnUse" x="7" y="28" width="10" height="8">
<path d="M7.68823 35.0595H16.1897V28.6077H7.68823V35.0595Z" fill="white"/>
</mask>
<g mask="url(#mask0_2057_96420)">
<path d="M10.4697 34.9898V32.5015C10.4697 32.0235 10.3972 31.5715 9.81784 31.5715C9.44643 31.5715 9.06613 31.7809 8.77579 32.0235V34.9898H7.68793V28.6082H8.77579V31.1843C9.17488 30.8614 9.64549 30.625 10.1975 30.625C10.8596 30.625 11.5665 30.9417 11.5665 32.1953V34.9898H10.4697ZM14.2431 31.4377C13.7175 31.4377 13.4001 31.9052 13.4001 32.3743H15.0663C15.0485 31.9157 14.7948 31.4377 14.2431 31.4377ZM13.4278 33.1418C13.4449 33.7712 13.9716 34.2138 14.632 34.2138C15.0396 34.2138 15.3751 34.1138 15.7465 33.9168L16.0095 34.6105C15.5287 34.9429 14.9589 35.079 14.4517 35.079C12.9559 35.079 12.3215 33.9974 12.3215 32.8526C12.3215 31.6364 13.0465 30.625 14.2698 30.625C15.4302 30.625 16.1898 31.5006 16.1898 32.8244V33.1418H13.4278Z" fill="#8B8B8B"/>
</g>
<path d="M24.0529 29.9598H22.4219V34.9886H21.3167V29.9598H19.5869V29.0486H24.3164L24.0529 29.9598Z" fill="#8B8B8B"/>
<mask id="mask1_2057_96420" style="mask-type:alpha" maskUnits="userSpaceOnUse" x="24" y="28" width="63" height="8">
<path d="M24.2516 35.0594H86.7344V28.6064H24.2516V35.0594Z" fill="white"/>
</mask>
<g mask="url(#mask1_2057_96420)">
<path d="M26.6721 31.7244C26.4912 31.6178 26.3004 31.5897 26.1735 31.5897C25.9023 31.5897 25.666 31.6893 25.3401 31.969V34.9887H24.2522V30.7245H25.168L25.2946 31.1766C25.7289 30.7888 26.0651 30.6255 26.4642 30.6255C26.6807 30.6255 26.9173 30.6888 27.0791 30.8048L26.6721 31.7244ZM29.9156 33.0321L29.2983 33.0515C28.7104 33.0692 28.4478 33.2669 28.4478 33.6278C28.4478 33.9789 28.6913 34.2212 29.1448 34.2212C29.5261 34.2212 29.7696 34.0779 29.9156 33.9517V33.0321ZM30.1872 34.9887L30.0062 34.6103C29.7251 34.8615 29.3356 35.0775 28.7641 35.0775C27.9768 35.0775 27.3602 34.5461 27.3602 33.7071C27.3602 32.8253 28.0582 32.3463 29.1537 32.3115L29.9156 32.2843V32.1765C29.9156 31.6526 29.5528 31.4559 29.0726 31.4559C28.6287 31.4559 28.2659 31.609 27.9943 31.7713L27.6407 31.0949C28.2121 30.7156 28.7463 30.6255 29.3175 30.6255C30.3776 30.6255 31.0209 31.0582 31.0209 32.1765V33.8606C31.0209 34.4746 31.0391 34.7916 31.102 34.9887H30.1872Z" fill="#8B8B8B"/>
</g>
<mask id="mask2_2057_96420" style="mask-type:alpha" maskUnits="userSpaceOnUse" x="24" y="28" width="63" height="8">
<path d="M24.2516 35.0594H86.7344V28.6064H24.2516V35.0594Z" fill="white"/>
</mask>
<g mask="url(#mask2_2057_96420)">
<path d="M34.2183 35.0145H33.4301L31.673 30.7249H32.7599L33.8287 33.6274H33.8469L34.9339 30.7249H36.0129L34.2183 35.0145Z" fill="#8B8B8B"/>
</g>
<mask id="mask3_2057_96420" style="mask-type:alpha" maskUnits="userSpaceOnUse" x="24" y="28" width="63" height="8">
<path d="M24.2516 35.0594H86.7344V28.6064H24.2516V35.0594Z" fill="white"/>
</mask>
<g mask="url(#mask3_2057_96420)">
<path d="M38.1367 31.4375C37.6104 31.4375 37.2943 31.905 37.2943 32.3741H38.9606C38.9424 31.9155 38.689 31.4375 38.1367 31.4375ZM37.321 33.1416C37.3388 33.771 37.8641 34.2136 38.5262 34.2136C38.9339 34.2136 39.269 34.1136 39.6408 33.9166L39.9031 34.6103C39.4229 34.9427 38.8518 35.0787 38.3443 35.0787C36.8498 35.0787 36.2157 33.9972 36.2157 32.8524C36.2157 31.6361 36.9397 30.6248 38.1637 30.6248C39.3227 30.6248 40.0847 31.5004 40.0847 32.8242V33.1416H37.321ZM41.9137 35.0787C41.1989 35.0787 40.9264 34.6722 40.9264 34.1408V28.6069H42.0136V33.6635C42.0136 33.9788 42.0775 34.1051 42.3032 34.1051C42.3757 34.1051 42.467 34.0949 42.6206 34.0592L42.7564 34.8614C42.4397 35.0332 42.1592 35.0787 41.9137 35.0787ZM49.2288 31.2483C49.1208 30.9506 49.0486 30.7077 49.0021 30.509H48.9939C48.957 30.7166 48.8752 30.9506 48.7757 31.2296L48.259 32.6092H49.7097L49.2288 31.2483ZM50.643 34.9896L50.0541 33.5025H47.9235L47.3718 34.9896H46.2747L48.5961 29.022H49.392L51.7948 34.9896H50.643ZM53.8228 35.0787C53.1166 35.0787 52.5903 34.8984 52.2374 34.6827L52.5903 33.8877C52.908 34.1051 53.3137 34.267 53.7411 34.267C54.1844 34.267 54.474 34.1051 54.474 33.8149C54.474 33.0504 52.4994 33.3386 52.4994 31.8896C52.4994 31.1493 53.0883 30.6248 54.1221 30.6248C54.5831 30.6248 55.0181 30.7077 55.3721 30.8428V31.744C55.0092 31.5994 54.6204 31.4634 54.158 31.4634C53.7859 31.4634 53.55 31.5817 53.55 31.8322C53.55 32.5101 55.5622 32.2843 55.5622 33.7536C55.5622 34.7099 54.7463 35.0787 53.8228 35.0787ZM57.8082 35.0787C57.1029 35.0787 56.5763 34.8984 56.2233 34.6827L56.5763 33.8877C56.8933 34.1051 57.3016 34.267 57.7271 34.267C58.1717 34.267 58.4613 34.1051 58.4613 33.8149C58.4613 33.0504 56.4847 33.3386 56.4847 31.8896C56.4847 31.1493 57.0756 30.6248 58.1094 30.6248C58.5694 30.6248 59.0051 30.7077 59.3594 30.8428V31.744C58.9955 31.5994 58.6063 31.4634 58.1443 31.4634C57.7719 31.4634 57.5379 31.5817 57.5379 31.8322C57.5379 32.5101 59.5485 32.2843 59.5485 33.7536C59.5485 34.7099 58.7332 35.0787 57.8082 35.0787ZM67.357 35.0787C65.9607 35.0787 65.2469 34.0788 65.2469 32.8786C65.2469 31.5817 66.1868 30.6248 67.4661 30.6248C68.0455 30.6248 68.4452 30.771 68.6878 30.9234L68.6696 31.806C68.3711 31.5817 68.0356 31.4558 67.593 31.4558C66.8577 31.4558 66.3331 32.0322 66.3331 32.8242C66.3331 33.554 66.7312 34.2047 67.5814 34.2047C67.9908 34.2047 68.2989 34.0788 68.5985 33.9057L68.8684 34.6188C68.525 34.8529 67.9459 35.0787 67.357 35.0787ZM69.8023 34.9886H70.8908V30.7244H69.8023V34.9886ZM70.3474 30.0688C69.9753 30.0688 69.6758 29.7786 69.6758 29.4091C69.6758 29.0567 69.9753 28.761 70.3474 28.761C70.7271 28.761 71.0243 29.0492 71.0243 29.4091C71.0243 29.7698 70.7271 30.0688 70.3474 30.0688ZM74.4148 33.0321L73.7985 33.0514C73.2086 33.0691 72.9463 33.2668 72.9463 33.6277C72.9463 33.9788 73.1918 34.2211 73.6433 34.2211C74.0249 34.2211 74.2685 34.0779 74.4148 33.9516V33.0321ZM74.6857 34.9886L74.5054 34.6103C74.2246 34.8614 73.8354 35.0774 73.263 35.0774C72.475 35.0774 71.8597 34.546 71.8597 33.7071C71.8597 32.8252 72.5571 32.3462 73.6522 32.3115L74.4148 32.2843V32.1764C74.4148 31.6525 74.0519 31.4558 73.5705 31.4558C73.1275 31.4558 72.7647 31.6089 72.4938 31.7712L72.1389 31.0949C72.711 30.7156 73.2445 30.6254 73.818 30.6254C74.8771 30.6254 75.5204 31.0582 75.5204 32.1764V33.8605C75.5204 34.4745 75.5369 34.7916 75.6025 34.9886H74.6857ZM78.1678 35.0787C77.3353 35.0787 77.0377 34.6548 77.0377 34.0788V31.5365H76.2771V30.7254H77.0377V29.7429L78.1239 29.418V30.7254H79.4547L79.138 31.5365H78.1239V33.7179C78.1239 34.0516 78.2518 34.2047 78.5296 34.2047C78.8028 34.2047 79.0823 34.0864 79.2553 34.0061L79.5463 34.7099C79.138 34.9699 78.5958 35.0787 78.1678 35.0787ZM80.4601 34.9886H81.5473V30.7244H80.4601V34.9886ZM81.0042 30.0688C80.6338 30.0688 80.3333 29.7786 80.3333 29.4091C80.3333 29.0567 80.6338 28.761 81.0042 28.761C81.3845 28.761 81.6831 29.0492 81.6831 29.4091C81.6831 29.7698 81.3845 30.0688 81.0042 30.0688ZM84.5684 31.4811C83.8809 31.4811 83.5454 32.0594 83.5454 32.8524C83.5454 33.6812 83.9353 34.2398 84.5947 34.2398C85.2759 34.2398 85.6193 33.654 85.6193 32.8524C85.6193 32.0322 85.24 31.4811 84.5684 31.4811ZM86.1275 34.4657C85.7462 34.8529 85.2206 35.0787 84.5789 35.0787C83.9814 35.0787 83.4733 34.8896 83.1028 34.546C82.6757 34.1503 82.4408 33.5645 82.4408 32.8786C82.4408 32.2112 82.6668 31.6361 83.0646 31.2296C83.4459 30.8516 83.9627 30.6254 84.5865 30.6254C85.2499 30.6254 85.7821 30.8516 86.1647 31.2385C86.5342 31.6361 86.7339 32.1951 86.7339 32.8419C86.7339 33.492 86.5263 34.0677 86.1275 34.4657ZM62.4094 31.4811C61.7229 31.4811 61.3875 32.0594 61.3875 32.8524C61.3875 33.6812 61.7767 34.2398 62.4374 34.2398C63.1173 34.2398 63.4607 33.654 63.4607 32.8524C63.4607 32.0322 63.0804 31.4811 62.4094 31.4811ZM63.9695 34.4657C63.5892 34.8529 63.0616 35.0787 62.4193 35.0787C61.8221 35.0787 61.3143 34.8896 60.9439 34.546C60.5178 34.1503 60.2815 33.5645 60.2815 32.8786C60.2815 32.2112 60.5079 31.6361 60.9056 31.2296C61.2879 30.8516 61.804 30.6254 62.4289 30.6254C63.0899 30.6254 63.6245 30.8516 64.0045 31.2385C64.3749 31.6361 64.5762 32.1951 64.5762 32.8419C64.5762 33.492 64.3673 34.0677 63.9695 34.4657Z" fill="#8B8B8B"/>
</g>
<path d="M90.2131 34.9893V32.4827C90.2131 32.0424 90.1333 31.5536 89.5803 31.5536C89.199 31.5536 88.8266 31.7523 88.4912 32.0044V34.9893H87.4049V30.7252H88.3293L88.4473 31.1838C88.9084 30.8425 89.3707 30.6245 89.9508 30.6245C90.603 30.6245 91.3013 31.0143 91.3013 32.1568V34.9893H90.2131ZM16.9734 21.4861C17.6144 20.5245 18.1519 19.4617 18.5721 18.3248H20.6937C19.7354 19.6604 18.4613 20.7514 16.9734 21.4861ZM13.8482 22.4375V18.3248H16.1169C15.5593 19.8466 14.793 21.2346 13.8522 22.4375H13.8482ZM16.0928 6.70398H13.8482V2.65029C14.7759 3.83771 15.5365 5.20446 16.0928 6.70398ZM20.6558 6.70398H18.5424C18.1229 5.58278 17.5867 4.53436 16.9503 3.58364C18.4271 4.30717 19.6981 5.38378 20.6558 6.70398ZM19.5475 11.3514C19.4905 10.558 19.3808 9.78006 19.22 9.02899H21.9141C22.1926 9.76531 22.3814 10.5433 22.4773 11.3514H19.5475ZM19.5495 13.6774H22.4849C22.3923 14.4845 22.2087 15.2625 21.9352 16.0004H19.2361C19.392 15.2467 19.4978 14.4707 19.5495 13.6774ZM13.8482 11.3514V9.02899H16.7648C16.9236 9.78006 17.0314 10.558 17.0844 11.3514H13.8482ZM17.0894 13.6774C17.0376 14.4707 16.9358 15.2467 16.7789 16.0004H13.8482V13.6774H17.0894ZM12.5152 0.0944824C12.1197 0.0944824 11.7292 0.115792 11.3443 0.149559V2.15395H11.3433V24.1468H11.3443V24.9313C11.7292 24.9693 12.1197 24.9893 12.5152 24.9893C19.4256 24.9893 25.0277 19.4158 25.0277 12.5404C25.0277 5.66703 19.4256 0.0944824 12.5152 0.0944824ZM52.916 14.6143H50.0591V20.3056H52.4783C55.0242 20.3056 56.2781 19.1755 56.2781 17.3042C56.2781 15.7067 55.0515 14.6143 52.916 14.6143ZM52.1962 6.08437H50.0591V11.4569H52.0667C53.7682 11.4569 55.0242 10.3659 55.0242 8.64411C55.0242 7.17737 54.017 6.08437 52.1962 6.08437ZM52.8264 23.4898H46.2567V2.89289H52.7268C56.9079 2.89289 58.8233 5.73785 58.8233 8.23956C58.8233 10.2076 58.005 11.5219 56.3424 12.5201V12.5821C58.7333 13.1109 60.1735 14.7707 60.1735 17.2724C60.1735 20.2115 58.0373 23.4898 52.8264 23.4898Z" fill="#8B8B8B"/>
<path d="M75.423 6.05133H69.9109V23.49H66.0753V6.05133H60.0771V2.89233H76.6599L75.423 6.05133Z" fill="#8B8B8B"/>
<path d="M35.5669 10.5045C35.1856 9.47318 34.9358 8.62736 34.7809 7.94448H34.7473C34.6234 8.66145 34.3426 9.47317 33.9956 10.4452L32.2008 15.2421H37.2397L35.5669 10.5045ZM40.4727 23.4898L38.4268 18.3267H31.0365L29.1175 23.4898H25.3125L33.3233 2.88794H36.172L44.4685 23.4898H40.4727ZM82.9995 10.5045C82.6172 9.47318 82.3677 8.62736 82.2135 7.94448H82.1795C82.0556 8.66145 81.7725 9.47317 81.4268 10.4452L79.6314 15.2421H84.6697L82.9995 10.5045ZM87.9023 23.4898L85.8584 18.3267H78.4651L76.5504 23.4898H72.7434L80.7529 2.88794H83.6049L91.9001 23.4898H87.9023ZM10.1608 10.1941V9.24926L4.17085 3.28855C3.83668 3.58754 3.51998 3.89964 3.22107 4.23043L9.217 10.1941H10.1608Z" fill="#8B8B8B"/>
<mask id="mask4_2057_96420" style="mask-type:alpha" maskUnits="userSpaceOnUse" x="0" y="11" width="11" height="11">
<path d="M0.0192871 11.3816V21.726H10.1609V11.3816H0.0192871Z" fill="white"/>
</mask>
<g mask="url(#mask4_2057_96420)">
<path d="M10.1608 14.8209V15.7657L4.17085 21.7264C3.83668 21.4288 3.51998 21.1154 3.22107 20.7836L9.217 14.8209H10.1608ZM10.1608 11.3816H0.0570131C0.0201029 11.7625 0 12.1497 0 12.5405C0 12.9316 0.0201029 13.3168 0.0570131 13.6987H10.1608V11.3816Z" fill="#8B8B8B"/>
</g>
<path d="M2.56294 5.02031C1.4207 6.51425 0.611974 8.2767 0.248474 10.1942H7.76431L2.56294 5.02031ZM10.1608 7.80429V0.335205C8.23558 0.695824 6.46718 1.50001 4.96276 2.63497L10.1608 7.80429ZM4.96375 22.3802C6.46817 23.5161 8.23558 24.3174 10.1608 24.6813V17.2112L4.96375 22.3802ZM7.76464 14.821H0.249133C0.612303 16.7388 1.42103 18.4993 2.56459 19.9952L7.76464 14.821Z" fill="#8B8B8B"/>
</svg>
