<svg width="32" height="32" viewBox="0 0 32 32" fill="none" xmlns="http://www.w3.org/2000/svg">
<path d="M17.4938 6.25466L11.0088 1.93066L7.38477 3.13866L11.7088 8.18266" stroke="#212121" stroke-linecap="round" stroke-linejoin="round"/>
<path d="M31.3586 8.81972C31.1285 8.13487 30.6362 7.56923 29.9896 7.2468C29.3431 6.92437 28.5951 6.87148 27.9096 7.09972L8.93061 13.4207L5.19161 11.3477L2.09961 12.3777L5.05961 17.4997H13.9436L29.6336 12.2697C29.9734 12.1565 30.2876 11.9775 30.5583 11.7428C30.8289 11.5081 31.0506 11.2224 31.2108 10.9021C31.371 10.5817 31.4665 10.2329 31.4919 9.8756C31.5172 9.51831 31.4719 9.15952 31.3586 8.81972V8.81972Z" stroke="#212121" stroke-linecap="round" stroke-linejoin="round"/>
<path d="M15.8894 16.8519L13.7734 27.4999H17.8644L23.2994 14.3809" stroke="#212121" stroke-linecap="round" stroke-linejoin="round"/>
</svg>
