<svg width="30" height="30" viewBox="0 0 30 30" fill="none" xmlns="http://www.w3.org/2000/svg">
<path d="M22.4302 13.0048L27.1992 24.1328C27.4347 24.6835 27.5 25.2921 27.3867 25.8802C27.2733 26.4683 26.9865 27.009 26.5632 27.4328L24.9992 28.9998L17.5742 17.8618" stroke="#755F26" stroke-linecap="round" stroke-linejoin="round"/>
<path d="M16.9707 7.59188L5.92169 2.85588C5.37089 2.62048 4.76224 2.55535 4.17411 2.66888C3.58598 2.78241 3.0453 3.06939 2.62169 3.49288L1.05469 5.05588L12.1257 12.4369" stroke="#755F26" stroke-linecap="round" stroke-linejoin="round"/>
<path d="M13.9081 21.5288L3.94909 27.8088C3.70408 27.9561 3.4168 28.0173 3.133 27.9825C2.8492 27.9477 2.58519 27.819 2.38301 27.6168C2.18083 27.4147 2.05211 27.1507 2.01733 26.8669C1.98255 26.5831 2.04372 26.2958 2.19109 26.0508L8.47109 16.0918L22.4381 2.12576C23.159 1.40495 24.1367 1 25.1561 1C26.1755 1 27.1532 1.40495 27.8741 2.12576V2.12576C28.5949 2.84664 28.9999 3.82433 28.9999 4.84376C28.9999 5.8632 28.5949 6.84088 27.8741 7.56176L13.9081 21.5288Z" stroke="#755F26" stroke-linecap="round" stroke-linejoin="round"/>
<path d="M6.881 18.9997L1 18.9967L4.484 22.5997" stroke="#755F26" stroke-linecap="round" stroke-linejoin="round"/>
<path d="M7.39844 25.5147L10.9994 28.9997V23.1187" stroke="#755F26" stroke-linecap="round" stroke-linejoin="round"/>
</svg>
