<svg width="39" height="38" viewBox="0 0 39 38" fill="none" xmlns="http://www.w3.org/2000/svg">
<path d="M26.6697 22.6511C26.6697 22.6511 22.1141 22.5944 19.85 18.2191C16.7237 12.1723 23.2276 8.92285 23.2276 8.92285L29 9.91961L26.6697 22.6511ZM20.3588 24.5668C20.042 24.512 19.7776 24.5245 19.5682 24.6071C19.3583 24.6892 19.2334 24.8356 19.195 25.0476C19.1558 25.2592 19.2211 25.4401 19.3885 25.5857C19.5563 25.7335 19.7993 25.8354 20.1167 25.89C20.4333 25.9451 20.6961 25.9305 20.9036 25.8485C21.1115 25.7653 21.2346 25.6179 21.2732 25.4069C21.3116 25.1954 21.2477 25.0158 21.0831 24.8688C20.918 24.7218 20.6761 24.6211 20.3588 24.5668Z" fill="#8B8B8B"/>
<path d="M13.0854 23.6348L13.9144 23.7838L13.6234 23.0618L13.0854 23.6348Z" fill="#8B8B8B"/>
<mask id="mask0_2057_96453" style="mask-type:alpha" maskUnits="userSpaceOnUse" x="0" y="0" width="39" height="38">
<path d="M38.6903 18.9999V37.9105H0V0.0893555H38.6903V18.9999Z" fill="white"/>
</mask>
<g mask="url(#mask0_2057_96453)">
<path d="M25.4604 25.9388L22.8249 25.4798L23.1607 23.6333L23.9425 23.7696L23.6666 25.2846L25.5192 25.6059L25.4604 25.9388ZM22.3965 24.4514C22.3366 24.7825 22.102 25.0039 21.6925 25.1145C21.3834 25.2094 20.9629 25.2106 20.4271 25.1175C19.8926 25.024 19.4976 24.8819 19.2412 24.689C18.8946 24.4468 18.751 24.1595 18.8103 23.8281C18.8728 23.4901 19.1086 23.2686 19.5181 23.1656C19.8266 23.0703 20.2483 23.0697 20.7829 23.1632C21.3166 23.2557 21.7129 23.3987 21.9693 23.5913C22.3158 23.8269 22.4582 24.1128 22.3965 24.4514ZM18.6014 23.1793L17.4826 22.9849L17.2063 24.5041L16.4198 24.3674L16.6955 22.8476L15.5715 22.6523L15.6307 22.3262L18.6612 22.8518L18.6014 23.1793ZM14.2868 23.9968L14.1147 23.5764L12.731 23.3359L12.4088 23.6707L11.5921 23.5293L13.2621 21.9146L14.145 22.0674L15.1347 24.1448L14.2868 23.9968ZM17.9322 19.3377C14.2214 15.5493 14.1929 11.0474 16.5204 6.93042L13.4311 6.39404L9.98193 25.5355L25.676 28.2371L26.7154 22.518C26.7154 22.518 21.6422 23.1246 17.9322 19.3377Z" fill="#8B8B8B"/>
</g>
<mask id="mask1_2057_96453" style="mask-type:alpha" maskUnits="userSpaceOnUse" x="0" y="0" width="39" height="38">
<path d="M38.6903 18.9999V37.9105H0V0.0893555H38.6903V18.9999Z" fill="white"/>
</mask>
<g mask="url(#mask1_2057_96453)">
<path d="M0.295518 15.7214C-1.55552 25.9924 5.48269 35.8222 15.9865 37.6337C26.491 39.4444 36.5424 32.5612 38.3948 22.2904C38.5942 21.1839 38.6905 20.0833 38.6905 18.996C38.6905 9.99456 32.0769 1.99507 22.7042 0.378772C12.2006 -1.43289 2.14798 5.45028 0.295518 15.7214ZM16.2036 36.4312C6.37766 34.7369 -0.206644 25.5413 1.52506 15.9333C3.25819 6.32508 12.6616 -0.113835 22.4876 1.58065C32.3139 3.27493 38.8978 12.4699 37.1653 22.0786C35.4328 31.6862 26.0294 38.1251 16.2036 36.4312Z" fill="#8B8B8B"/>
</g>
<path d="M2.23721 23.7453C2.20921 23.6066 2.18759 23.4671 2.14785 23.3323C2.10852 23.1969 2.05148 23.0666 2 22.9341L5.97308 21.9229L6.36226 23.2522C6.58217 24.0029 6.37647 24.491 5.72187 24.6578C4.69066 24.9205 4.26545 24.2738 3.98047 23.3008L2.23721 23.7453ZM4.29922 23.2198C4.3402 23.3373 4.38179 23.4603 4.44439 23.5659C4.65154 23.891 5.01909 23.9367 5.37202 23.8472C5.83595 23.7288 6.07789 23.4294 5.99594 23.1478L5.89731 22.8124L4.29922 23.2198ZM6.94932 24.9126L7.5965 25.9417C7.73981 26.1688 7.97188 26.5157 7.98547 26.7815C8.00318 27.142 7.86171 27.4145 7.5094 27.607C7.00203 27.8847 6.48972 27.7568 6.10301 27.3636C5.77355 27.9019 5.48589 28.463 5.1865 29.0165L4.98367 29.3805C4.90275 29.2302 4.828 29.0766 4.73349 28.9262C4.64227 28.7817 4.53499 28.6452 4.43389 28.5056L5.15952 27.3356C5.25383 27.1864 5.40703 26.9209 5.53696 26.7066L5.51555 26.6728L3.85301 27.583C3.78814 27.4567 3.7274 27.3275 3.65142 27.2065C3.57544 27.086 3.4836 26.9735 3.39773 26.8579L6.94932 24.9126ZM5.73793 26.5513C6.00562 27.0865 6.42238 27.1956 6.95549 26.9036C7.02839 26.8636 7.10313 26.8168 7.19929 26.7373C7.58044 26.4249 7.3109 26.0855 7.12516 25.7902L5.73793 26.5513ZM7.53143 31.9743C6.53378 31.1591 6.37441 30.0615 7.27219 29.1038C8.05898 28.2652 9.35128 28.1218 10.4758 29.041C11.7629 30.0924 11.3476 31.2498 10.7391 31.9068C9.97211 32.7325 8.638 32.8788 7.53143 31.9743ZM7.90701 29.8392C7.39347 30.3871 7.11405 31.187 7.79191 31.7407C8.48728 32.3086 9.40771 31.9142 10.0646 31.2144C10.5744 30.6705 10.888 29.8253 10.211 29.2712C9.58294 28.7582 8.79306 28.8949 7.90701 29.8392ZM12.5639 34.7915C12.4309 34.7258 12.3004 34.6544 12.1632 34.5991C12.0253 34.5425 11.8801 34.5031 11.738 34.4572L13.2037 31.2951C12.8127 31.1372 12.4486 31.0332 12.1453 30.9533C12.1896 30.8853 12.2398 30.8208 12.2752 30.7435C12.309 30.6715 12.3255 30.5927 12.3483 30.5163L15.186 31.6618C15.1411 31.7292 15.0915 31.7948 15.0577 31.8668C15.0217 31.9438 15.0059 32.0229 14.9832 32.0988C14.6747 31.9313 14.3659 31.7653 14.0302 31.6291L12.5639 34.7915ZM18.0505 32.1258C18.0247 32.2011 17.9922 32.2815 17.9788 32.3589C17.9642 32.4359 17.9671 32.5221 17.9648 32.601C17.6111 32.4998 17.2171 32.3912 16.6111 32.3074L16.3956 33.4951L17.0112 33.5917C17.2779 33.6339 17.5242 33.6505 17.7484 33.6574C17.7227 33.7328 17.6897 33.8135 17.6755 33.8904C17.6613 33.9676 17.664 34.0535 17.6613 34.1327C17.4476 34.0705 17.2091 34.0104 16.9433 33.9682L16.3274 33.8707L16.0725 35.2732C16.6774 35.3634 17.0847 35.3999 17.4537 35.4126C17.4286 35.4878 17.3948 35.5685 17.3815 35.6457C17.3673 35.7228 17.3697 35.8079 17.3673 35.8878L15.1123 35.5303L15.7961 31.7691L18.0505 32.1258ZM22.3491 35.0714L22.2674 35.5621C21.9268 35.7678 21.5094 35.8736 21.1087 35.9097C19.83 36.025 18.7858 35.3771 18.667 34.2339C18.5156 32.778 19.523 32.0172 20.8243 31.8989C21.2191 31.8639 21.7073 31.9154 22.0726 32.0623C22.0384 32.2564 22.0225 32.4495 21.9947 32.6496L21.9109 32.6563C21.6583 32.3758 21.2545 32.1982 20.8659 32.2335C19.874 32.3228 19.5652 33.2455 19.6504 34.0659C19.7497 35.0196 20.3213 35.6434 21.2411 35.5598C21.6123 35.5262 22.0238 35.3085 22.268 35.0447L22.3491 35.0714ZM25.7522 34.679C25.6083 34.7201 25.4617 34.755 25.3221 34.8059C25.1823 34.8571 25.0494 34.9241 24.914 34.9864L23.5652 31.7783C23.1682 31.924 22.8318 32.089 22.5567 32.2324C22.5371 32.1554 22.5229 32.0759 22.49 31.9978C22.4593 31.9246 22.4121 31.8576 22.3697 31.7893L25.2486 30.7352C25.2673 30.8116 25.2817 30.8911 25.3122 30.9643C25.3445 31.0424 25.3925 31.1094 25.4347 31.1778C25.0898 31.2624 24.7441 31.3463 24.4035 31.4709L25.7522 34.679ZM27.6322 29.1804C27.6707 29.2507 27.708 29.3296 27.7564 29.393C27.8043 29.4575 27.8717 29.5164 27.9293 29.5742C27.6026 29.7347 27.2412 29.9175 26.748 30.2562L27.4912 31.2405L28.0022 30.9042C28.2221 30.7592 28.4103 30.6087 28.5745 30.4658C28.6126 30.5367 28.6504 30.6152 28.699 30.6791C28.7466 30.7435 28.8135 30.8018 28.8716 30.8596C28.6733 30.9562 28.4575 31.0704 28.2374 31.2154L27.7271 31.552L28.6058 32.7141C29.1026 32.3806 29.4189 32.1383 29.6909 31.9045C29.7294 31.9753 29.7663 32.0532 29.8147 32.1178C29.8631 32.1823 29.9306 32.2404 29.9881 32.2982L28.1186 33.5287L25.7627 30.4105L27.6322 29.1804ZM29.5011 27.2578C30.3356 26.3449 31.365 26.4764 32.1372 27.046C33.2015 27.8311 33.2406 28.9954 32.4771 29.8962L31.4342 31.1271L28.2275 28.7604L29.5011 27.2578ZM31.7196 30.266L32.0367 29.8929C32.55 29.2862 32.6163 28.5851 31.5139 27.7722C30.6284 27.1186 29.9489 27.2522 29.4238 27.8726L29.0594 28.3034L31.7196 30.266Z" fill="#8B8B8B"/>
</svg>
