<svg width="20" height="17" viewBox="0 0 20 17" fill="none" xmlns="http://www.w3.org/2000/svg">
<path d="M19.1667 8.3331H0.833333C0.61232 8.3331 0.400358 8.4209 0.244078 8.57718C0.0877974 8.73346 0 8.94542 0 9.16643L0 15.8331C0 16.0541 0.0877974 16.2661 0.244078 16.4224C0.400358 16.5786 0.61232 16.6664 0.833333 16.6664C1.05435 16.6664 1.26631 16.5786 1.42259 16.4224C1.57887 16.2661 1.66667 16.0541 1.66667 15.8331V14.1664H18.3333V15.8331C18.3333 16.0541 18.4211 16.2661 18.5774 16.4224C18.7337 16.5786 18.9457 16.6664 19.1667 16.6664C19.3877 16.6664 19.5996 16.5786 19.7559 16.4224C19.9122 16.2661 20 16.0541 20 15.8331V9.16643C20 8.94542 19.9122 8.73346 19.7559 8.57718C19.5996 8.4209 19.3877 8.3331 19.1667 8.3331Z" fill="#37424A"/>
<path d="M17.4993 0H2.49935C2.27834 0 2.06637 0.0877973 1.91009 0.244078C1.75381 0.400358 1.66602 0.61232 1.66602 0.833333V6.66667H3.33268V4.16667C3.33268 3.94565 3.42048 3.73369 3.57676 3.57741C3.73304 3.42113 3.945 3.33333 4.16602 3.33333H8.33268C8.55369 3.33333 8.76566 3.42113 8.92194 3.57741C9.07822 3.73369 9.16601 3.94565 9.16601 4.16667V6.66667H10.8327V4.16667C10.8327 3.94565 10.9205 3.73369 11.0768 3.57741C11.233 3.42113 11.445 3.33333 11.666 3.33333H15.8327C16.0537 3.33333 16.2657 3.42113 16.4219 3.57741C16.5782 3.73369 16.666 3.94565 16.666 4.16667V6.66667H18.3327V0.833333C18.3327 0.61232 18.2449 0.400358 18.0886 0.244078C17.9323 0.0877973 17.7204 0 17.4993 0Z" fill="#37424A"/>
</svg>
