<svg width="31" height="26" viewBox="0 0 31 26" fill="none" xmlns="http://www.w3.org/2000/svg">
<path fill-rule="evenodd" clip-rule="evenodd" d="M1.59546 3.18966C1.59546 1.98034 2.5758 1 3.78511 1H25.3024C26.5117 1 27.492 1.98034 27.492 3.18966V8.31055C27.492 8.58669 27.7159 8.81055 27.992 8.81055C28.2682 8.81055 28.492 8.58669 28.492 8.31055V3.18966C28.492 1.42806 27.064 0 25.3024 0H3.78511C2.02352 0 0.595459 1.42806 0.595459 3.18966V21.1207C0.595459 22.8823 2.02352 24.3103 3.78511 24.3103H12.5437C12.8198 24.3103 13.0437 24.0865 13.0437 23.8103C13.0437 23.5342 12.8198 23.3103 12.5437 23.3103H3.78511C2.5758 23.3103 1.59546 22.33 1.59546 21.1207V7.81055H11.0437V6.81055H1.59546V3.18966ZM21.5955 9.5C17.4533 9.5 14.0955 12.8579 14.0955 17C14.0955 21.1421 17.4533 24.5 21.5955 24.5C25.7376 24.5 29.0955 21.1421 29.0955 17C29.0955 12.8579 25.7376 9.5 21.5955 9.5ZM13.0955 17C13.0955 12.3056 16.901 8.5 21.5955 8.5C26.2899 8.5 30.0955 12.3056 30.0955 17C30.0955 21.6944 26.2899 25.5 21.5955 25.5C16.901 25.5 13.0955 21.6944 13.0955 17ZM22.0955 14C22.0955 13.7239 21.8716 13.5 21.5955 13.5C21.3193 13.5 21.0955 13.7239 21.0955 14V17C21.0955 17.2761 21.3193 17.5 21.5955 17.5H24.5955C24.8716 17.5 25.0955 17.2761 25.0955 17C25.0955 16.7239 24.8716 16.5 24.5955 16.5H22.0955V14Z" fill="white"/>
</svg>
