<svg width="33" height="32" viewBox="0 0 33 32" fill="none" xmlns="http://www.w3.org/2000/svg">
<path d="M9 0.5V4.5" stroke="#212121" stroke-linecap="round" stroke-linejoin="round"/>
<path d="M23 0.5V4.5" stroke="#212121" stroke-linecap="round" stroke-linejoin="round"/>
<path d="M31 10.5H1" stroke="#212121" stroke-linecap="round" stroke-linejoin="round"/>
<path d="M31 4.5H1V28.5H31V4.5Z" stroke="#212121" stroke-linecap="round" stroke-linejoin="round"/>
<rect x="18" y="17.5" width="15" height="14" fill="white"/>
<path d="M31.1988 22.2934C30.912 22.0109 30.5666 21.7948 30.1871 21.6605C29.8076 21.5262 29.4033 21.4769 29.0026 21.5161C28.6019 21.5553 28.2148 21.682 27.8685 21.8874C27.5223 22.0927 27.2254 22.3716 26.9988 22.7044C26.7726 22.3713 26.476 22.0919 26.1299 21.8861C25.7839 21.6803 25.3968 21.5531 24.9961 21.5134C24.5955 21.4737 24.191 21.5225 23.8113 21.6565C23.4315 21.7904 23.0859 22.0061 22.7988 22.2884C22.2936 22.7849 22.0063 23.4617 22.0001 24.1701C21.9939 24.8784 22.2693 25.5601 22.7658 26.0654L22.7988 26.0984L26.9988 30.2544L31.1988 26.1044C31.7041 25.608 31.9916 24.9312 31.998 24.2229C32.0043 23.5146 31.7291 22.8328 31.2328 22.3274L31.1988 22.2934Z" stroke="#212121" stroke-linecap="round" stroke-linejoin="round"/>
</svg>
