<svg width="30" height="26" viewBox="0 0 30 26" fill="none" xmlns="http://www.w3.org/2000/svg">
<path fill-rule="evenodd" clip-rule="evenodd" d="M1 3.18966C1 1.98034 1.98034 1 3.18966 1H24.7069C25.9162 1 26.8966 1.98034 26.8966 3.18966V8.31055C26.8966 8.58669 27.1204 8.81055 27.3966 8.81055C27.6727 8.81055 27.8966 8.58669 27.8966 8.31055V3.18966C27.8966 1.42806 26.4685 0 24.7069 0H3.18966C1.42806 0 0 1.42806 0 3.18966V21.1207C0 22.8823 1.42806 24.3103 3.18966 24.3103H11.9482C12.2244 24.3103 12.4482 24.0865 12.4482 23.8103C12.4482 23.5342 12.2244 23.3103 11.9482 23.3103H3.18966C1.98034 23.3103 1 22.33 1 21.1207V7.81055H10.4482V6.81055H1V3.18966ZM21 9.5C16.8579 9.5 13.5 12.8579 13.5 17C13.5 21.1421 16.8579 24.5 21 24.5C25.1421 24.5 28.5 21.1421 28.5 17C28.5 12.8579 25.1421 9.5 21 9.5ZM12.5 17C12.5 12.3056 16.3056 8.5 21 8.5C25.6944 8.5 29.5 12.3056 29.5 17C29.5 21.6944 25.6944 25.5 21 25.5C16.3056 25.5 12.5 21.6944 12.5 17ZM21.5 14C21.5 13.7239 21.2761 13.5 21 13.5C20.7239 13.5 20.5 13.7239 20.5 14V17C20.5 17.2761 20.7239 17.5 21 17.5H24C24.2761 17.5 24.5 17.2761 24.5 17C24.5 16.7239 24.2761 16.5 24 16.5H21.5V14Z" fill="black"/>
</svg>
