<svg width="26" height="22" viewBox="0 0 26 22" fill="none" xmlns="http://www.w3.org/2000/svg">
<path d="M14.602 13.6018L12.9726 15.6392C10.4478 14.1558 8.34388 12.0519 6.86046 9.52706L8.89785 7.89767C9.13668 7.70655 9.30547 7.4417 9.37784 7.14449C9.45021 6.84729 9.42209 6.53448 9.29786 6.25496L7.44047 2.07216C7.30727 1.77243 7.07195 1.52974 6.77646 1.38737C6.48097 1.24499 6.14452 1.21219 5.82709 1.29481L2.29098 2.21083C1.96116 2.29731 1.67444 2.50162 1.48502 2.78514C1.2956 3.06865 1.2166 3.41174 1.26295 3.74955C1.88336 8.168 3.92541 12.2644 7.08037 15.4193C10.2353 18.5743 14.3317 20.6163 18.7501 21.2367C19.0878 21.2833 19.4309 21.2044 19.7142 21.0149C19.9976 20.8255 20.2016 20.5386 20.2875 20.2087L21.2049 16.6739C21.2875 16.3565 21.2547 16.0201 21.1123 15.7246C20.97 15.4291 20.7273 15.1938 20.4275 15.0606L16.2447 13.2032C15.9653 13.0793 15.6527 13.0512 15.3556 13.1233C15.0585 13.1954 14.7936 13.3636 14.602 13.6018V13.6018Z" stroke="#37424A" stroke-linecap="round" stroke-linejoin="round"/>
<path d="M16.75 2.75018H19.75C22.511 2.75018 24.75 4.98918 24.75 7.75018V10.7502" stroke="#212121" stroke-linecap="round" stroke-linejoin="round"/>
<path d="M16.75 4.75018L13.75 2.75018L16.75 0.750183V4.75018Z" stroke="#212121" stroke-linecap="round" stroke-linejoin="round"/>
<path d="M16.75 4.75018L13.75 2.75018L16.75 0.750183V4.75018Z" fill="#212121"/>
</svg>
