<svg width="17" height="14" viewBox="0 0 17 14" fill="none" xmlns="http://www.w3.org/2000/svg">
<path d="M8.5 11.5C10.433 11.5 12 9.933 12 8C12 6.067 10.433 4.5 8.5 4.5C6.567 4.5 5 6.067 5 8C5 9.933 6.567 11.5 8.5 11.5Z" stroke="black" stroke-linecap="round" stroke-linejoin="round"/>
<path d="M15 2.5H12L11 0.5H6L5 2.5H2C1.448 2.5 1 2.948 1 3.5V12.5C1 13.052 1.448 13.5 2 13.5H15C15.552 13.5 16 13.052 16 12.5V3.5C16 2.948 15.552 2.5 15 2.5Z" stroke="black" stroke-linecap="round" stroke-linejoin="round"/>
</svg>
