<svg width="38" height="23" viewBox="0 0 38 23" fill="none" xmlns="http://www.w3.org/2000/svg">
<path d="M26.1969 18.7H11.7969" stroke="black" stroke-linecap="round" stroke-linejoin="round"/>
<path d="M4.6 18.7H1V9.10001L7 0.700012H23.8L28.6 9.10001H37V18.7H33.4" stroke="black" stroke-linecap="round" stroke-linejoin="round"/>
<path d="M8.20156 22.3C10.1898 22.3 11.8016 20.6883 11.8016 18.7C11.8016 16.7118 10.1898 15.1 8.20156 15.1C6.21334 15.1 4.60156 16.7118 4.60156 18.7C4.60156 20.6883 6.21334 22.3 8.20156 22.3Z" stroke="black" stroke-linecap="round" stroke-linejoin="round"/>
<path d="M29.8031 22.3C31.7913 22.3 33.4031 20.6883 33.4031 18.7C33.4031 16.7118 31.7913 15.1 29.8031 15.1C27.8149 15.1 26.2031 16.7118 26.2031 18.7C26.2031 20.6883 27.8149 22.3 29.8031 22.3Z" stroke="black" stroke-linecap="round" stroke-linejoin="round"/>
<path d="M1 9.10004H28.6" stroke="black" stroke-linecap="round" stroke-linejoin="round"/>
<path d="M15.3984 0.700012V9.10001" stroke="black" stroke-linecap="round" stroke-linejoin="round"/>
</svg>
