<svg width="32" height="33" viewBox="0 0 32 33" fill="none" xmlns="http://www.w3.org/2000/svg">
<path d="M16 7.49481V16.4948H25" stroke="black" stroke-linecap="round" stroke-linejoin="round"/>
<path d="M2.618 23.2778C4.27827 26.5571 7.08444 29.1129 10.5041 30.4604C13.9238 31.8078 17.7192 31.8533 21.1701 30.588C24.6211 29.3228 27.4876 26.8349 29.2259 23.5963C30.9642 20.3577 31.4533 16.5937 30.6005 13.0185C29.7477 9.44317 27.6122 6.30526 24.5992 4.20004C21.5862 2.09482 17.9053 1.16873 14.2548 1.59745C10.6043 2.02618 7.23812 3.7799 4.79487 6.52591C2.35163 9.27193 1.00128 12.8192 1 16.4948" stroke="black" stroke-linecap="round" stroke-linejoin="round"/>
<path d="M3.61719 31.2748L2.61719 23.2748L10.6172 24.2748" stroke="black" stroke-linecap="round" stroke-linejoin="round"/>
</svg>
