<svg width="30" height="32" viewBox="0 0 30 32" fill="none" xmlns="http://www.w3.org/2000/svg">
<path d="M6.55602 5.81543L8.66602 8.27743L10.408 10.4564L10.233 13.4504L6.74702 14.0964L4.29102 17.0004L5.43602 19.3774L6.54202 21.3594L9.14902 23.3784L7.44102 25.9704L5.14902 26.9714" stroke="#212121" stroke-linecap="round" stroke-linejoin="round"/>
<path d="M14.4375 31.0006L15.5765 28.4426L14.5585 24.8926L16.0205 21.0496L20.2365 20.2656L23.8005 21.7736L26.4035 25.0916" stroke="#212121" stroke-linecap="round" stroke-linejoin="round"/>
<path d="M28.655 14.0001C29.2944 16.9237 28.9794 19.9753 27.7562 22.7066C26.533 25.4379 24.4662 27.705 21.8593 29.1747C19.2523 30.6445 16.2428 31.2395 13.2727 30.8723C10.3026 30.5051 7.52854 29.1951 5.35803 27.1348C3.18752 25.0744 1.73498 22.3722 1.21379 19.4253C0.692597 16.4783 1.13022 13.4419 2.46238 10.762C3.79454 8.08215 5.95101 5.90015 8.615 4.53654C11.279 3.17293 14.3101 2.6996 17.263 3.18607" stroke="#212121" stroke-linecap="round" stroke-linejoin="round"/>
<path d="M21.9766 9C23.0811 9 23.9766 8.10457 23.9766 7C23.9766 5.89543 23.0811 5 21.9766 5C20.872 5 19.9766 5.89543 19.9766 7C19.9766 8.10457 20.872 9 21.9766 9Z" stroke="#212121" stroke-linecap="round" stroke-linejoin="round"/>
<path d="M27.9766 6.84438C27.9766 10.4514 21.9766 16.0004 21.9766 16.0004C21.9766 16.0004 15.9766 10.4514 15.9766 6.84438C15.9804 6.0648 16.1393 5.29378 16.4441 4.57626C16.749 3.85874 17.1935 3.20908 17.752 2.66514C18.3105 2.12119 18.9716 1.69386 19.6969 1.40804C20.4222 1.12223 21.1972 0.983645 21.9766 1.00038C22.756 0.983645 23.5309 1.12223 24.2562 1.40804C24.9815 1.69386 25.6427 2.12119 26.2011 2.66514C26.7596 3.20908 27.2042 3.85874 27.509 4.57626C27.8138 5.29378 27.9728 6.0648 27.9766 6.84438V6.84438Z" stroke="#212121" stroke-linecap="round" stroke-linejoin="round"/>
</svg>
