<svg width="32" height="32" viewBox="0 0 32 32" fill="none" xmlns="http://www.w3.org/2000/svg">
<path d="M22.3801 2.65702C22.041 2.30182 21.6351 2.01694 21.1858 1.81867C20.7365 1.62039 20.2525 1.5126 19.7615 1.50145C19.2705 1.49031 18.7821 1.57603 18.3243 1.75372C17.8664 1.9314 17.4481 2.19758 17.0931 2.53702C16.8651 2.75405 16.6658 2.99938 16.5001 3.26702C16.199 2.78228 15.7909 2.37289 15.3072 2.07018C14.8234 1.76748 14.2768 1.57949 13.7092 1.52061C13.1415 1.46174 12.568 1.53353 12.0324 1.73051C11.4968 1.92748 11.0134 2.24441 10.6191 2.65702C9.9008 3.40966 9.5 4.41009 9.5 5.45052C9.5 6.49094 9.9008 7.49138 10.6191 8.24402L16.5001 14.331L22.3811 8.24402C23.0996 7.49137 23.5004 6.49082 23.5002 5.45032C23.5 4.40982 23.0989 3.40941 22.3801 2.65702V2.65702Z" stroke="#755F26" stroke-linecap="round" stroke-linejoin="round"/>
<path d="M7.5 31.5V29.5L2.222 23.343C1.75589 22.7991 1.49979 22.1063 1.5 21.39V12.5C1.5 11.9696 1.71071 11.4609 2.08579 11.0858C2.46086 10.7107 2.96957 10.5 3.5 10.5V10.5C4.03043 10.5 4.53914 10.7107 4.91421 11.0858C5.28929 11.4609 5.5 11.9696 5.5 12.5V17.917" stroke="#755F26" stroke-linecap="round" stroke-linejoin="round"/>
<path d="M14.4999 31.5001V24.7431C14.5 24.349 14.4224 23.9587 14.2716 23.5946C14.1207 23.2305 13.8997 22.8997 13.6209 22.6211L8.99995 18.0001C8.60203 17.6024 8.0625 17.379 7.49995 17.379C6.93739 17.379 6.39786 17.6024 5.99995 18.0001C5.60229 18.398 5.37891 18.9375 5.37891 19.5001C5.37891 20.0626 5.60229 20.6022 5.99995 21.0001L9.49995 24.5001" stroke="#755F26" stroke-linecap="round" stroke-linejoin="round"/>
<path d="M25.5 31.5V29.5L30.778 23.343C31.2441 22.7991 31.5002 22.1063 31.5 21.39V12.5C31.5 11.9696 31.2893 11.4609 30.9142 11.0858C30.5391 10.7107 30.0304 10.5 29.5 10.5C28.9696 10.5 28.4609 10.7107 28.0858 11.0858C27.7107 11.4609 27.5 11.9696 27.5 12.5V17.917" stroke="#755F26" stroke-linecap="round" stroke-linejoin="round"/>
<path d="M18.5 31.5001V24.7431C18.5 24.349 18.5776 23.9587 18.7284 23.5946C18.8792 23.2305 19.1003 22.8997 19.379 22.6211L24 18.0001C24.3979 17.6024 24.9374 17.379 25.5 17.379C26.0626 17.379 26.6021 17.6024 27 18.0001C27.3977 18.398 27.621 18.9375 27.621 19.5001C27.621 20.0626 27.3977 20.6022 27 21.0001L23.5 24.5001" stroke="#755F26" stroke-linecap="round" stroke-linejoin="round"/>
</svg>
