<svg width="12" height="11" viewBox="0 0 12 11" fill="none" xmlns="http://www.w3.org/2000/svg">
<path d="M2.25 4.5V1.5H9.75V4.5H11.25V0.75C11.25 0.551088 11.171 0.360322 11.0303 0.21967C10.8897 0.0790176 10.6989 0 10.5 0H1.5C1.30109 0 1.11032 0.0790176 0.96967 0.21967C0.829018 0.360322 0.75 0.551088 0.75 0.75V4.5H2.25Z" fill="white"/>
<path d="M6 2.25C5.80109 2.25 5.61032 2.32902 5.46967 2.46967C5.32902 2.61032 5.25 2.80109 5.25 3V4.5H6.75V3C6.75 2.80109 6.67098 2.61032 6.53033 2.46967C6.38968 2.32902 6.19891 2.25 6 2.25Z" fill="white"/>
<path d="M11.25 6H0.75C0.551088 6 0.360322 6.07902 0.21967 6.21967C0.0790176 6.36032 0 6.55109 0 6.75L0 9.75C0 9.94891 0.0790176 10.1397 0.21967 10.2803C0.360322 10.421 0.551088 10.5 0.75 10.5C0.948912 10.5 1.13968 10.421 1.28033 10.2803C1.42098 10.1397 1.5 9.94891 1.5 9.75V9H10.5V9.75C10.5 9.94891 10.579 10.1397 10.7197 10.2803C10.8603 10.421 11.0511 10.5 11.25 10.5C11.4489 10.5 11.6397 10.421 11.7803 10.2803C11.921 10.1397 12 9.94891 12 9.75V6.75C12 6.55109 11.921 6.36032 11.7803 6.21967C11.6397 6.07902 11.4489 6 11.25 6Z" fill="white"/>
</svg>
