<svg width="28" height="31" viewBox="0 0 28 31" fill="none" xmlns="http://www.w3.org/2000/svg">
<path d="M14 30H1V11L11 1L21 11V14" stroke="#212121" stroke-linecap="round" stroke-linejoin="round"/>
<path d="M11 13C12.1046 13 13 12.1046 13 11C13 9.89543 12.1046 9 11 9C9.89543 9 9 9.89543 9 11C9 12.1046 9.89543 13 11 13Z" stroke="#212121" stroke-linecap="round" stroke-linejoin="round"/>
<path d="M26.041 18.9921C24.581 17.4811 22.146 17.7281 21 19.5151C19.853 17.7261 17.417 17.4831 15.959 18.9921C14.681 20.3151 14.681 22.4591 15.959 23.7821L20.999 29.0001L26.041 23.7821C27.32 22.4591 27.32 20.3151 26.041 18.9921Z" stroke="#212121" stroke-linecap="round" stroke-linejoin="round"/>
</svg>
