<svg width="20" height="20" viewBox="0 0 20 20" fill="none" xmlns="http://www.w3.org/2000/svg">
<path d="M18.8842 8.08908C18.4567 8.68707 17.9884 9.25484 17.4827 9.78836C17.4968 9.97993 17.5117 10.1715 17.5117 10.3689C17.5109 11.495 17.2667 12.6076 16.796 13.6306L16.2155 13.0691C16.1013 12.958 15.9572 12.8825 15.8008 12.8519L13.3129 12.3543C13.1603 12.3234 13.0022 12.3363 12.8567 12.3916L10.2858 13.366C10.1744 13.4083 10.0733 13.4741 9.98962 13.559C9.9059 13.6439 9.84146 13.7458 9.80069 13.8578L9.0543 15.9029L7.5524 17.5292C7.45722 17.6367 7.39226 17.7675 7.36415 17.9082C6.31118 17.589 5.337 17.0521 4.50465 16.3325L4.61247 15.8756L5.9543 14.7493C6.07709 14.6464 6.16743 14.5101 6.21438 14.3568C6.26132 14.2036 6.26288 14.0401 6.21886 13.886L5.6599 11.9288C5.62444 11.8023 5.55901 11.6863 5.46915 11.5905L4.49719 10.5513L4.36699 10.3299L4.84716 9.92022L6.81182 8.92503C6.93012 8.86504 7.0323 8.77755 7.10979 8.6699C7.18728 8.56225 7.23782 8.43758 7.25717 8.30636L7.57811 6.13686C7.59632 6.0133 7.58639 5.88722 7.54906 5.76803C7.51172 5.64884 7.44794 5.53962 7.36249 5.44853L6.05963 4.06357C6.03642 4.03602 6.01119 4.01024 5.98416 3.98644L5.55706 3.63564C6.6103 2.99547 7.79967 2.61275 9.02859 2.51854C9.19219 1.91851 9.45604 1.35044 9.80898 0.838344C9.74761 0.836685 9.69122 0.829221 9.63316 0.829221C7.63523 0.819238 5.6841 1.43383 4.05257 2.58707C2.42104 3.74031 1.19066 5.37456 0.533435 7.26133C-0.123789 9.14811 -0.174999 11.1931 0.386964 13.1104C0.948926 15.0277 2.09597 16.7215 3.66773 17.9549C5.2395 19.1884 7.15741 19.8999 9.15335 19.9899C11.1493 20.0799 13.1235 19.544 14.7999 18.4571C16.4763 17.3701 17.7712 15.7865 18.5035 13.9276C19.2358 12.0687 19.3689 10.0274 18.8842 8.08908Z" fill="#2CA6BD"/>
<path d="M14.6097 0.00025655C14.0635 -0.00585341 13.5216 0.0972289 13.0157 0.303451C12.5099 0.509674 12.0503 0.81488 11.664 1.20115C11.2778 1.58742 10.9726 2.04697 10.7663 2.55282C10.5601 3.05867 10.457 3.60062 10.4631 4.14685C10.4631 6.46895 13.6975 9.45449 14.0292 9.70329C14.1041 9.78187 14.1942 9.84443 14.294 9.88718C14.3938 9.92992 14.5012 9.95196 14.6097 9.95196C14.7183 9.95196 14.8257 9.92992 14.9255 9.88718C15.0253 9.84443 15.1154 9.78187 15.1903 9.70329C15.522 9.45449 18.7563 6.46895 18.7563 4.14685C18.7624 3.60062 18.6594 3.05867 18.4531 2.55282C18.2469 2.04697 17.9417 1.58742 17.5554 1.20115C17.1692 0.81488 16.7096 0.509674 16.2038 0.303451C15.6979 0.0972289 15.156 -0.00585341 14.6097 0.00025655ZM14.6097 5.80549C14.2817 5.80549 13.961 5.70821 13.6883 5.52596C13.4155 5.34371 13.2029 5.08466 13.0774 4.78159C12.9518 4.47851 12.919 4.14501 12.983 3.82327C13.047 3.50152 13.2049 3.20598 13.4369 2.97402C13.6689 2.74205 13.9644 2.58408 14.2862 2.52008C14.6079 2.45609 14.9414 2.48893 15.2445 2.61447C15.5476 2.74001 15.8066 2.9526 15.9888 3.22536C16.1711 3.49812 16.2684 3.8188 16.2684 4.14685C16.2671 4.58635 16.0919 5.00747 15.7811 5.31824C15.4704 5.62901 15.0492 5.80418 14.6097 5.80549Z" fill="#2CA6BD"/>
</svg>
