<svg width="160" height="27" viewBox="0 0 160 27" fill="none" xmlns="http://www.w3.org/2000/svg">
<path d="M61.6375 15.6807C61.6375 17.7827 60.7922 18.6706 59.4207 19.1158C58.0095 19.5606 55.6708 19.8028 53.1721 19.8028C50.7136 19.8028 48.4145 19.5606 47.0033 19.1158C45.6339 18.6706 44.7865 17.7827 44.7865 15.6807V1.09172H37.0065V17.1358C37.0065 18.955 37.1285 20.2075 37.572 21.298C39.5871 26.1075 48.1326 26.5924 53.2122 26.5924C58.2513 26.5924 66.7969 26.1075 68.814 21.298C69.2575 20.2075 69.3774 18.955 69.3774 17.1358V1.09172H61.6375V15.6807ZM152.462 25.6627H160V1.09172H152.462V25.6627ZM139.159 15.5588L121.904 1.09172H114.246V25.6627H121.824V10.8712L139.401 25.6627H146.455V1.09172H139.159V15.5588ZM103.562 1.41455C101.023 0.60684 97.113 0 91.5498 0C86.027 0 82.1168 0.60684 79.5763 1.41455C74.579 3.03166 74.135 7.23394 74.0949 13.296C74.0949 19.3179 74.457 23.5603 79.5362 25.1774C82.0767 25.9872 85.9869 26.5924 91.5498 26.5924C97.1531 26.5924 101.063 25.9872 103.603 25.1774C108.683 23.5603 109.045 19.3179 109.045 13.296C109.005 7.23394 108.561 3.03166 103.562 1.41455ZM98.2823 19.2779C96.7893 19.6007 94.7743 19.8429 91.5498 19.8429C88.3235 19.8429 86.4305 19.6007 84.9374 19.2779C82.1568 18.6706 81.753 17.378 81.753 13.3361C81.753 8.689 82.1568 7.71925 84.9374 7.15377C86.4305 6.87145 88.3235 6.6288 91.5498 6.6288C94.7743 6.6288 96.7893 6.87145 98.2823 7.15377C101.063 7.71925 101.467 8.689 101.467 13.3361C101.467 17.378 101.063 18.6706 98.2823 19.2779ZM26.735 17.6278L18.8027 12.4427L33.3385 1.09172H22.2922L7.5382 12.893V1.09172H0V25.6627H7.5382V20.8131L12.7959 16.8475L21.8976 22.9223C25.3239 25.2251 28.5083 25.7518 30.7673 25.7518C32.822 25.7518 34.1116 25.307 34.1116 25.307V19.5678C30.8871 19.7703 28.0247 18.4773 26.735 17.6278Z" fill="#37424a"/>
</svg>
