<svg width="24" height="24" viewBox="0 0 24 24" fill="none" xmlns="http://www.w3.org/2000/svg">
<path fill-rule="evenodd" clip-rule="evenodd" d="M21 11C21 16.5228 16.5228 21 11 21C5.47715 21 1 16.5228 1 11C1 5.47715 5.47715 1 11 1C16.5228 1 21 5.47715 21 11ZM18.7782 18.7782C16.7876 20.7688 14.0376 22 11 22C4.92487 22 0 17.0751 0 11C0 4.92487 4.92487 0 11 0C17.0751 0 22 4.92487 22 11C22 13.6775 21.0434 16.1316 19.4533 18.0391L23.9497 22.5356L23.2426 23.2427L18.7782 18.7782Z" fill="black"/>
</svg>
