<svg width="34" height="33" viewBox="0 0 34 33" fill="none" xmlns="http://www.w3.org/2000/svg">
<path d="M16.4766 2.68452C18.2494 1.60399 20.3187 1.03333 22.3326 1.03333C27.4867 1.03333 32.9992 4.77199 32.9992 11.2146C32.9992 17.4994 22.3326 28.7666 22.3326 28.7666" stroke="black" stroke-linecap="round" stroke-linejoin="round"/>
<path d="M24.4666 13.8333C24.4666 20.6013 12.7333 31.9666 12.7333 31.9666C12.7333 31.9666 1 20.6013 1 13.8333C1 6.89463 7.06292 2.09998 12.7333 2.09998C18.4037 2.09998 24.4666 6.89463 24.4666 13.8333Z" stroke="black" stroke-linecap="round" stroke-linejoin="round"/>
<path d="M12.7312 17.0333C14.4986 17.0333 15.9312 15.6006 15.9312 13.8333C15.9312 12.066 14.4986 10.6333 12.7312 10.6333C10.9639 10.6333 9.53125 12.066 9.53125 13.8333C9.53125 15.6006 10.9639 17.0333 12.7312 17.0333Z" stroke="black" stroke-linecap="round" stroke-linejoin="round"/>
</svg>
