<?xml version="1.0" encoding="UTF-8"?><svg id="original_shape" xmlns="http://www.w3.org/2000/svg" viewBox="0 0 1208.86 1208.86"><defs><style>.cls-1{stroke-width:19.6px;}.cls-1,.cls-2{fill:none;stroke:#fff;stroke-linecap:round;stroke-linejoin:round;}.cls-2{stroke-width:39.2px;}</style></defs><line class="cls-1" x1="849.41" y1="769.96" x2="1161.05" y2="1081.6"/><line class="cls-1" x1="127.27" y1="47.81" x2="438.91" y2="359.45"/><path class="cls-2" d="m27.27,208.07c-15.36,68.48-5.96,140.51,13.34,207.48,50.57,175.49,165.79,331.2,293.63,459.08,127.88,127.84,283.59,243.06,459.08,293.62,66.97,19.3,139,28.7,207.48,13.34,66.74-14.97,112.84-53.61,160.26-100,36.88-37.11,37.74-96.48,1.77-132.58l-180.96-181.04c-36.07-35.89-95.47-35.03-132.45,1.98l-88.55,88.52s-109.49-36.33-241.82-168.66c-132.33-132.33-168.66-241.82-168.66-241.82l88.52-88.55c37.01-36.98,37.87-96.38,1.98-132.45L259.85,46.04c-36.1-35.97-95.47-35.11-132.58,1.77-46.39,47.42-85.03,93.52-100,160.26Z"/></svg>