<svg width="32" height="32" viewBox="0 0 32 32" fill="none" xmlns="http://www.w3.org/2000/svg">
<path fill-rule="evenodd" clip-rule="evenodd" d="M25 15C25 20.5228 20.5228 25 15 25C9.47715 25 5 20.5228 5 15C5 9.47715 9.47715 5 15 5C20.5228 5 25 9.47715 25 15ZM22.7782 22.7782C20.7876 24.7688 18.0376 26 15 26C8.92487 26 4 21.0751 4 15C4 8.92487 8.92487 4 15 4C21.0751 4 26 8.92487 26 15C26 17.6775 25.0434 20.1316 23.4533 22.0391L27.9497 26.5356L27.2426 27.2427L22.7782 22.7782Z" fill="black"/>
</svg>
