<svg width="15" height="17" viewBox="0 0 15 17" fill="none" xmlns="http://www.w3.org/2000/svg">
<path d="M7.27864 0C4.71027 0.0299227 2.19703 0.724671 0 2.01207V9.05433C0 10.922 0.766854 12.7133 2.13186 14.0339C3.49687 15.3546 5.34822 16.0966 7.27864 16.0966C9.20905 16.0966 11.0604 15.3546 12.4254 14.0339C13.7904 12.7133 14.5573 10.922 14.5573 9.05433V2.01207C12.3602 0.724671 9.847 0.0299227 7.27864 0V0ZM3.11942 5.03018C3.11942 4.83121 3.1804 4.6367 3.29465 4.47126C3.40891 4.30582 3.5713 4.17687 3.7613 4.10072C3.9513 4.02458 4.16037 4.00466 4.36208 4.04348C4.56378 4.08229 4.74905 4.17811 4.89447 4.31881C5.03989 4.4595 5.13892 4.63876 5.17905 4.83391C5.21917 5.02906 5.19858 5.23135 5.11987 5.41517C5.04117 5.599 4.9079 5.75612 4.7369 5.86667C4.56591 5.97721 4.36487 6.03622 4.15922 6.03622C3.88345 6.03622 3.61897 5.93022 3.42397 5.74156C3.22897 5.55289 3.11942 5.297 3.11942 5.03018ZM7.27864 12.0724C6.45131 12.0724 5.65788 11.7545 5.07288 11.1885C4.48787 10.6224 4.15922 9.85478 4.15922 9.05433H10.3981C10.3981 9.85478 10.0694 10.6224 9.4844 11.1885C8.89939 11.7545 8.10596 12.0724 7.27864 12.0724ZM10.3981 6.03622C10.1924 6.03622 9.99136 5.97721 9.82036 5.86667C9.64937 5.75612 9.5161 5.599 9.4374 5.41517C9.3587 5.23135 9.3381 5.02906 9.37823 4.83391C9.41835 4.63876 9.51738 4.4595 9.6628 4.31881C9.80822 4.17811 9.99349 4.08229 10.1952 4.04348C10.3969 4.00466 10.606 4.02458 10.796 4.10072C10.986 4.17687 11.1484 4.30582 11.2626 4.47126C11.3769 4.6367 11.4379 4.83121 11.4379 5.03018C11.4379 5.297 11.3283 5.55289 11.1333 5.74156C10.9383 5.93022 10.6738 6.03622 10.3981 6.03622Z" fill="black"/>
</svg>
