<?xml version="1.0" encoding="UTF-8"?><svg id="Layer_1" xmlns="http://www.w3.org/2000/svg" viewBox="0 0 37 44.5"><defs><style>.cls-1{fill:#fff;}.cls-1,.cls-2{stroke:#1c2125;}.cls-2{fill:none;stroke-linecap:round;stroke-linejoin:round;}</style></defs><path class="cls-2" d="m.5,44h36"/><rect class="cls-1" x="17" y=".5" width="3" height="43.5"/><path class="cls-1" d="m5,22c.1-.1.3-.2.4-.2l27.5,2c.3,0,.5.3.5.5l-.7,10c0,.3-.3.5-.5.5l-27.5-2c-.2,0-.3-.1-.4-.3l-3-5.2c-.1-.2-.1-.4,0-.6l3.7-4.7Z"/><path class="cls-1" d="m30.4,8c-.1-.1-.3-.2-.4-.2L2.5,9.8c-.3,0-.5.3-.5.5l.7,10c0,.3.3.5.5.5l27.5-2c.2,0,.3-.1.4-.3l3-5.2c.1-.2.1-.4,0-.6l-3.7-4.7Z"/><path class="cls-1" d="m10,.7c.1-.1.2-.2.4-.2h15.1c.3,0,.5.2.5.5v4c0,.3-.2.5-.5.5h-15.1c-.2,0-.3-.1-.4-.2l-1.6-2c-.1-.2-.1-.4,0-.6l1.6-2Z"/></svg>