<svg width="22" height="22" viewBox="0 0 22 22" fill="none" xmlns="http://www.w3.org/2000/svg">
<path d="M8.94812 0.749908C4.41895 0.749908 0.748047 3.8099 0.748047 7.5833C0.748047 8.97868 1.25235 10.2757 2.11473 11.3581V16.4667L5.63119 13.829C6.64527 14.2049 7.76594 14.4167 8.94812 14.4167C13.4773 14.4167 17.1482 11.3567 17.1482 7.5833C17.1482 3.8099 13.4773 0.749908 8.94812 0.749908Z" stroke="#37424A" stroke-linecap="round" stroke-linejoin="round"/>
<path d="M7.20117 17.1555C8.68949 18.417 10.7614 19.2001 13.0519 19.2001C14.122 19.2001 15.1416 19.0238 16.0791 18.7135L19.8853 21.2501V16.1414C20.7477 15.059 21.252 13.7634 21.252 12.3667C21.252 11.1244 20.8543 9.95996 20.16 8.95682" stroke="#37424A" stroke-linecap="round" stroke-linejoin="round"/>
</svg>
