<svg width="45" height="45" viewBox="0 0 45 45" fill="none" xmlns="http://www.w3.org/2000/svg">
<path fill-rule="evenodd" clip-rule="evenodd" d="M23 0.5C23 0.223858 22.7761 0 22.5 0C22.2239 0 22 0.223858 22 0.5V4.5C22 4.77614 22.2239 5 22.5 5C22.7761 5 23 4.77614 23 4.5V0.5ZM6.59176 6.59054C6.78702 6.39528 7.1036 6.39528 7.29887 6.59054L10.1269 9.41854C10.3221 9.6138 10.3221 9.93038 10.1269 10.1256C9.9316 10.3209 9.61502 10.3209 9.41976 10.1256L6.59176 7.29765C6.3965 7.10238 6.3965 6.7858 6.59176 6.59054ZM0 22.5C0 22.2239 0.223858 22 0.5 22H4.5C4.77614 22 5 22.2239 5 22.5C5 22.7761 4.77614 23 4.5 23H0.5C0.223858 23 0 22.7761 0 22.5ZM38.4081 6.59054C38.6034 6.7858 38.6034 7.10238 38.4081 7.29765L35.5801 10.1256C35.3849 10.3209 35.0683 10.3209 34.873 10.1256C34.6777 9.93038 34.6777 9.6138 34.873 9.41854L37.701 6.59054C37.8963 6.39528 38.2129 6.39528 38.4081 6.59054ZM40.5 22C40.2239 22 40 22.2239 40 22.5C40 22.7761 40.2239 23 40.5 23H44.5C44.7761 23 45 22.7761 45 22.5C45 22.2239 44.7761 22 44.5 22H40.5ZM34.873 34.8745C35.0683 34.6792 35.3849 34.6792 35.5801 34.8745L38.4081 37.7025C38.6034 37.8977 38.6034 38.2143 38.4081 38.4096C38.2129 38.6048 37.8963 38.6048 37.701 38.4096L34.873 35.5816C34.6777 35.3863 34.6777 35.0697 34.873 34.8745ZM23 40.5C23 40.2239 22.7761 40 22.5 40C22.2239 40 22 40.2239 22 40.5V44.5C22 44.7761 22.2239 45 22.5 45C22.7761 45 23 44.7761 23 44.5V40.5ZM10.1269 34.8745C10.3221 35.0697 10.3221 35.3863 10.1269 35.5816L7.29887 38.4096C7.1036 38.6048 6.78702 38.6048 6.59176 38.4096C6.3965 38.2143 6.3965 37.8977 6.59176 37.7025L9.41976 34.8745C9.61502 34.6792 9.9316 34.6792 10.1269 34.8745ZM11 22.5C11 16.1487 16.1487 11 22.5 11C28.8513 11 34 16.1487 34 22.5C34 28.8513 28.8513 34 22.5 34C16.1487 34 11 28.8513 11 22.5ZM22.5 10C15.5964 10 10 15.5964 10 22.5C10 29.4036 15.5964 35 22.5 35C29.4036 35 35 29.4036 35 22.5C35 15.5964 29.4036 10 22.5 10Z" fill="black"/>
</svg>
