<svg width="22" height="22" viewBox="0 0 22 22" fill="none" xmlns="http://www.w3.org/2000/svg">
<path d="M14.3084 13.1865L12.1674 15.2985C11.0509 14.6253 10.0137 13.8286 9.07538 12.9235C8.17163 11.9836 7.37508 10.9462 6.70038 9.83046L8.81038 7.68946C8.93817 7.55969 9.02448 7.39484 9.05831 7.21587C9.09214 7.03691 9.07198 6.85193 9.00038 6.68446L6.80038 1.55646C6.71347 1.35426 6.5568 1.19002 6.35893 1.09365C6.16106 0.997286 5.93516 0.975216 5.72238 1.03146L1.68838 2.09846C1.48693 2.15069 1.30917 2.26974 1.18419 2.43614C1.0592 2.60254 0.9944 2.80644 1.00038 3.01446C1.25706 7.70623 3.20783 12.1454 6.49038 15.5075C9.85306 18.791 14.2934 20.7422 18.9864 20.9985C19.1946 21.0055 19.399 20.9412 19.5657 20.8163C19.7325 20.6913 19.8516 20.5133 19.9034 20.3115L20.9694 16.2755C21.0259 16.0628 21.0041 15.8369 20.9079 15.639C20.8117 15.4411 20.6475 15.2844 20.4454 15.1975L15.3164 12.9985C15.1487 12.9258 14.9632 12.9049 14.7836 12.9384C14.6041 12.9719 14.4386 13.0583 14.3084 13.1865V13.1865Z" stroke="#212121" stroke-linecap="round" stroke-linejoin="round"/>
</svg>
