<svg width="28" height="28" viewBox="0 0 28 28" fill="none" xmlns="http://www.w3.org/2000/svg">
<circle cx="14" cy="14" r="14" fill="#37424A"/>
<path d="M11.3364 22.1663C17.9402 22.1663 21.5522 16.5552 21.5522 11.6893C21.5522 11.5299 21.5522 11.3712 21.5417 11.2133C22.2444 10.692 22.851 10.0466 23.333 9.30727C22.6778 9.6052 21.9826 9.80049 21.2708 9.88661C22.0204 9.42648 22.5814 8.70266 22.8493 7.84992C22.1445 8.27888 21.3735 8.58116 20.5694 8.74371C20.0281 8.15337 19.3121 7.76246 18.5323 7.63148C17.7525 7.50049 16.9524 7.63673 16.2557 8.01912C15.559 8.40151 15.0046 9.00872 14.6783 9.74679C14.3521 10.4849 14.272 11.3127 14.4507 12.1021C13.0232 12.0286 11.6268 11.6482 10.352 10.9854C9.07718 10.3226 7.95252 9.39226 7.05101 8.25482C6.59187 9.06545 6.45125 10.0251 6.65777 10.9383C6.86429 11.8515 7.40242 12.6497 8.16261 13.1703C7.5912 13.1531 7.03223 12.995 6.53301 12.7094V12.7561C6.53323 13.6062 6.82019 14.4301 7.34521 15.088C7.87022 15.7459 8.60097 16.1973 9.41351 16.3657C8.88492 16.5136 8.33031 16.5352 7.79231 16.4289C8.02183 17.1605 8.46853 17.8002 9.06995 18.2587C9.67138 18.7172 10.3975 18.9715 11.1467 18.986C10.4023 19.5861 9.5498 20.0298 8.63802 20.2917C7.72624 20.5536 6.77306 20.6286 5.83301 20.5123C7.47497 21.5929 9.38545 22.1661 11.3364 22.1635" fill="white"/>
</svg>
