<svg xmlns="http://www.w3.org/2000/svg" width="17" height="14" xmlns:v="https://vecta.io/nano"><path d="M16.512 1.663a7.27 7.27 0 0 1-1.697 1.827l.01.46c0 .948-.133 1.894-.398 2.838a10.47 10.47 0 0 1-1.21 2.718 10.56 10.56 0 0 1-1.933 2.302c-.747.667-1.648 1.2-2.703 1.597S6.398 14 5.197 14A9.11 9.11 0 0 1 0 12.414a6.94 6.94 0 0 0 .817.044c1.572 0 2.972-.503 4.2-1.51a3.21 3.21 0 0 1-1.97-.705c-.58-.456-.978-1.037-1.194-1.745a4.11 4.11 0 0 0 .639.055 3.36 3.36 0 0 0 .891-.12c-.782-.168-1.43-.574-1.944-1.22S.67 5.82.67 4.966v-.044a3.25 3.25 0 0 0 1.53.448c-.46-.32-.828-.74-1.1-1.258s-.41-1.08-.41-1.684c0-.642.154-1.236.46-1.783.845 1.086 1.874 1.956 3.086 2.61A9.12 9.12 0 0 0 8.13 4.342a4.09 4.09 0 0 1-.084-.809 3.48 3.48 0 0 1 .99-2.499C9.697.345 10.495 0 11.43 0c.978 0 1.802.372 2.473 1.116a6.47 6.47 0 0 0 2.148-.853c-.258.84-.754 1.487-1.488 1.947a6.52 6.52 0 0 0 1.949-.547z" fill="#1f1f1f" fill-rule="evenodd"/></svg>