<?xml version="1.0" encoding="utf-8"?>
<!-- Generator: Adobe Illustrator 27.4.1, SVG Export Plug-In . SVG Version: 6.00 Build 0)  -->
<svg version="1.1" id="Layer_1" xmlns="http://www.w3.org/2000/svg" xmlns:xlink="http://www.w3.org/1999/xlink" x="0px" y="0px"
	 viewBox="0 0 28.4 29.8" style="enable-background:new 0 0 28.4 29.8;" xml:space="preserve">
<g id="Layer_2_00000049924941319250551300000003685845820062983609_">
	<path d="M4.7,11.5l23.4-6.9L26.8,0L0,8.1v3.1l0.3,0.3L0,11.8v16.8c0,0.7,0.5,1.2,1.2,1.2h26c0.7,0,1.2-0.5,1.2-1.2V11.5H4.7z
		 M17.8,12.6h3L18.4,15h-3L17.8,12.6z M10.7,12.6h3L11.3,15h-3L10.7,12.6z M6.5,12.6L4.2,15h-3l2.4-2.4H6.5z M23.7,2.1l2.9,1.6
		l-2.8,0.8L20.9,3L23.7,2.1z M16.9,4.2l2.9,1.6L17,6.6L14.1,5L16.9,4.2z M10.1,6.2L13,7.8l-2.8,0.8L7.3,7L10.1,6.2z M3.3,8.2
		l2.9,1.6l-2.8,0.8L1.1,8.9L3.3,8.2z M27.3,27.7c0,0.5-0.5,1-1.1,1h-24c-0.5,0-1-0.4-1-1V17.4c0-0.5,0.4-1,1-1h24.1c0.5,0,1,0.4,1,1
		V27.7L27.3,27.7z M26.1,15h-3.5l2.4-2.4h2.4v1.2L26.1,15z" fill="white"/>
</g>
</svg>
