<?xml version="1.0" encoding="UTF-8"?><svg id="Layer_1" xmlns="http://www.w3.org/2000/svg" viewBox="0 0 141.73 141.73"><defs><style>.cls-1{fill:#fff;}</style></defs><path class="cls-1" d="m13.42,128.31h114.89V13.42H13.42v114.9h0Zm119.07,4.18H9.24V9.24h123.25v123.25h0Z"/><path class="cls-1" d="m42.49,102.77l3.96-10.58h1.67l-5.63,14.7-5.63-14.7h1.67l3.96,10.58h0Zm12.22,3.29h-1.55v-13.88h1.55v13.88h0Zm7.86-1.43h3.83v1.43h-5.37v-13.88h1.55v12.44h0Zm10.4,0h3.83v1.43h-5.37v-13.88h1.54v12.44h0Zm8.9-2.5l-1.67,3.94h-1.69l6.4-14.54,6.24,14.54h-1.71l-1.64-3.94h-5.93Zm3-6.99l-2.37,5.56h4.69l-2.32-5.56h0Zm16.1-.24c-.28-.48-.61-.85-.97-1.11-.36-.26-.84-.4-1.43-.4-.31,0-.6.05-.87.16-.28.11-.52.25-.74.44-.21.19-.38.42-.51.68-.12.26-.18.55-.18.87,0,.29.07.56.21.78.14.23.32.43.53.6.21.17.44.32.7.44.26.12.5.24.74.35l.92.41c.45.2.88.41,1.29.63.4.23.76.49,1.06.79.3.3.54.65.72,1.05.18.4.27.87.27,1.43,0,.6-.11,1.17-.34,1.69-.23.53-.54.98-.94,1.36-.4.38-.86.68-1.39.9-.53.22-1.09.33-1.69.33-.55,0-1.07-.09-1.55-.26-.48-.17-.9-.41-1.28-.73-.38-.31-.69-.69-.95-1.13-.26-.44-.44-.93-.55-1.47l1.51-.42c.05.36.15.69.31,1,.16.31.36.59.6.82.24.23.52.42.84.55.32.13.66.2,1.03.2s.72-.07,1.07-.2c.34-.14.65-.32.91-.56.26-.24.47-.52.63-.85.16-.33.24-.69.24-1.09s-.07-.75-.22-1.03c-.15-.28-.34-.53-.58-.74-.24-.21-.51-.39-.82-.54-.31-.15-.62-.3-.94-.45l-.85-.37c-.4-.18-.79-.38-1.15-.59-.36-.21-.68-.45-.96-.72-.28-.27-.5-.59-.66-.96-.17-.37-.25-.8-.25-1.29,0-.54.1-1.03.31-1.46.21-.43.49-.81.86-1.11.36-.31.78-.54,1.24-.71.47-.17.96-.25,1.47-.25.77,0,1.47.19,2.1.56.63.37,1.12.91,1.49,1.59l-1.23.79h0Z"/><path class="cls-1" d="m74.54,75.08l.54,1.63s-33.99,19.03-45.4-7.75c0,0-8.7-20.26,13.05-31.4,0,0,4.89-2.72,12.64-2.72h25.28v1.36s-7.85-.27-3.8,8.16l12.77,26.33,12.37-27.42s2.66-7.31-5.36-7.23v-1.2h17.13v1.31s-3.86-1.22-7.07,6.14c-3.21,7.37-19.25,39.45-19.25,39.45h-2.99l-19.44-37.66s-3.81-8.02-12.78-6.12c0,0-19.17,3.67-12.78,26.78,0,0,6.39,23.79,35.07,10.33"/></svg>