<?xml version="1.0" encoding="UTF-8"?><svg id="Layer_1" xmlns="http://www.w3.org/2000/svg" xmlns:xlink="http://www.w3.org/1999/xlink" viewBox="0 0 141.73 141.73"><defs><style>.cls-1{fill:none;}.cls-2{clip-path:url(#clippath);}.cls-3{fill:#fff;}.cls-4{clip-path:url(#clippath-1);}</style><clipPath id="clippath"><rect class="cls-1" x="8.46" y="65.65" width="124.81" height="10.42"/></clipPath><clipPath id="clippath-1"><rect class="cls-1" x="8.46" y="65.65" width="124.81" height="10.42"/></clipPath></defs><g id="Layer_1-2"><g class="cls-2"><g class="cls-4"><path class="cls-3" d="m19.25,69.34c-1.1-1.09-2.53-1.78-4.3-1.78-2.45,0-4.11,1.39-4.11,3.29s1.69,3.32,4.3,3.32c1.66,0,2.98-.59,4.14-1.84l2.03,1.09c-1.63,1.86-3.48,2.65-6.06,2.65-1.74,0-3.21-.39-4.63-1.27-1.32-.82-2.16-2.3-2.16-3.96,0-1.41.59-2.65,1.7-3.58,1.24-1.02,3.01-1.62,4.98-1.62,2.65,0,4.7.94,6.29,2.91l-2.18.78Z"/><path class="cls-3" d="m19.25,69.34c-1.1-1.09-2.53-1.78-4.3-1.78-2.45,0-4.11,1.39-4.11,3.29s1.69,3.32,4.3,3.32c1.66,0,2.98-.59,4.14-1.84l2.03,1.09c-1.63,1.86-3.48,2.65-6.06,2.65-1.74,0-3.21-.39-4.63-1.27-1.32-.82-2.16-2.3-2.16-3.96,0-1.41.59-2.65,1.7-3.58,1.24-1.02,3.01-1.62,4.98-1.62,2.65,0,4.7.94,6.29,2.91l-2.18.78Z"/><path class="cls-3" d="m39.11,75.81l-1.13-2.12h-6.31l-1.13,2.12h-2.42l5.24-9.85h2.95l5.23,9.85h-2.42Zm-4.3-8.06l-2.16,4.04h4.33l-2.16-4.04Z"/><path class="cls-3" d="m39.11,75.81l-1.13-2.12h-6.31l-1.13,2.12h-2.42l5.24-9.85h2.95l5.23,9.85h-2.42Zm-4.3-8.06l-2.16,4.04h4.33l-2.16-4.04Z"/><path class="cls-3" d="m58.48,75.81l-2.42-3.48h-4.53v3.48h-2.4v-9.85h8.07c2.25,0,3.72,1.31,3.72,3.23,0,1.55-.76,2.56-2.25,2.97l2.5,3.66h-2.69Zm.07-6.7c0-.75-.6-1.27-1.62-1.27h-5.4v2.59h5.42c1.02,0,1.61-.5,1.61-1.32"/><path class="cls-3" d="m58.48,75.81l-2.42-3.48h-4.53v3.48h-2.4v-9.85h8.07c2.25,0,3.72,1.31,3.72,3.23,0,1.55-.76,2.56-2.25,2.97l2.5,3.66h-2.69Zm.07-6.7c0-.75-.6-1.27-1.62-1.27h-5.4v2.59h5.42c1.02,0,1.61-.5,1.61-1.32"/><path class="cls-3" d="m78.93,75.81l-2.42-3.48h-4.53v3.48h-2.4v-9.85h8.07c2.24,0,3.72,1.31,3.72,3.23,0,1.55-.76,2.56-2.25,2.97l2.5,3.66h-2.69Zm.07-6.7c0-.75-.6-1.27-1.62-1.27h-5.4v2.59h5.42c1.02,0,1.61-.5,1.61-1.32"/><path class="cls-3" d="m78.93,75.81l-2.42-3.48h-4.53v3.48h-2.4v-9.85h8.07c2.24,0,3.72,1.31,3.72,3.23,0,1.55-.76,2.56-2.25,2.97l2.5,3.66h-2.69Zm.07-6.7c0-.75-.6-1.27-1.62-1.27h-5.4v2.59h5.42c1.02,0,1.61-.5,1.61-1.32"/><rect class="cls-3" x="90.03" y="65.95" width="2.4" height="9.85"/><rect class="cls-3" x="90.03" y="65.95" width="2.4" height="9.85"/><polygon class="cls-3" points="101.71 75.81 101.71 65.95 112.39 65.95 112.39 67.85 104.11 67.85 104.11 69.86 109.86 69.86 109.86 71.75 104.11 71.75 104.11 73.91 112.78 73.91 112.78 75.81 101.71 75.81"/><polygon class="cls-3" points="101.71 75.81 101.71 65.95 112.39 65.95 112.39 67.85 104.11 67.85 104.11 69.86 109.86 69.86 109.86 71.75 104.11 71.75 104.11 73.91 112.78 73.91 112.78 75.81 101.71 75.81"/><path class="cls-3" d="m130.58,75.81l-2.42-3.48h-4.53v3.48h-2.39v-9.85h8.07c2.25,0,3.72,1.31,3.72,3.23,0,1.55-.76,2.56-2.25,2.97l2.5,3.66h-2.69Zm.07-6.7c0-.75-.6-1.27-1.62-1.27h-5.4v2.59h5.42c1.02,0,1.61-.5,1.61-1.32"/><path class="cls-3" d="m130.58,75.81l-2.42-3.48h-4.53v3.48h-2.39v-9.85h8.07c2.25,0,3.72,1.31,3.72,3.23,0,1.55-.76,2.56-2.25,2.97l2.5,3.66h-2.69Zm.07-6.7c0-.75-.6-1.27-1.62-1.27h-5.4v2.59h5.42c1.02,0,1.61-.5,1.61-1.32"/></g></g></g></svg>