<?xml version="1.0" encoding="UTF-8"?><svg id="Layer_1" xmlns="http://www.w3.org/2000/svg" xmlns:xlink="http://www.w3.org/1999/xlink" viewBox="0 0 141.73 141.73"><defs><style>.cls-1{fill:none;}.cls-2{clip-path:url(#clippath);}.cls-3{fill:#fff;}.cls-4{clip-path:url(#clippath-1);}</style><clipPath id="clippath"><rect class="cls-1" x="23.71" y="9.24" width="94.31" height="119.47"/></clipPath><clipPath id="clippath-1"><rect class="cls-1" x="23.71" y="9.24" width="94.31" height="119.47"/></clipPath></defs><g id="Layer_1-2"><g class="cls-2"><g class="cls-4"><path class="cls-3" d="m23.83,128.82c0-4.24,0-8.48,0-12.72,0-.16-.04-.33.03-.48.02-.02.03-.03.04-.04,0,0,.02-.01.03-.01.09,0,.19-.02.28-.02,31.23,0,62.46,0,93.69,0,.03,0,.07.02.1.03.12.11.08.25.08.37,0,4.08,0,8.17,0,12.25,0,.2.03.4-.03.6H23.83Zm9.17-3.81c.09-.05.08-.14.08-.22,0-1.89,0-3.77,0-5.66,0-.12.03-.24-.1-.36-.28,0-.58-.03-.93.03v3.41c-.12.04-.16-.01-.19-.06-.84-1.11-1.75-2.15-2.63-3.22-.06-.07-.12-.16-.26-.09v6.18c.32.03.62.04.95,0v-3.35c.17,0,.21.1.28.18.85,1,1.71,2,2.56,3.01.07.08.12.18.25.15m45.63-6.18c.68,2.12,1.33,4.18,1.99,6.23.2-.03.22-.16.25-.27.16-.62.42-1.21.58-1.83.02-.1.04-.22.19-.24.24.78.49,1.56.73,2.34.18-.04.19-.15.23-.25.12-.34.23-.67.35-1.01.52-1.54,1.03-3.08,1.55-4.61.04-.12.1-.24.02-.39h-.9c-.37,1.01-.66,2.07-1.11,3.1-.29-.86-.6-1.7-.89-2.56-.34.87-.59,1.75-.93,2.62-.2-.53-.37-1.06-.54-1.58-.17-.52-.28-1.07-.52-1.54h-.98Zm25.79.07c-.18.57-.33,1.06-.51,1.55-.18.49-.29,1.01-.58,1.46-.26-.86-.57-1.67-.85-2.53-.23.4-.33.85-.48,1.27-.15.43-.27.87-.4,1.3-.02,0-.05,0-.07,0-.37-1.04-.63-2.11-1.03-3.14-.19,0-.35,0-.5,0-.15,0-.3-.05-.44.04.03.21,1.78,5.83,1.9,6.08.02.05.05.11.18.12.16-.36.25-.76.38-1.14.14-.39.26-.79.39-1.19.03,0,.06,0,.1,0,.12.39.24.77.37,1.16.13.39.19.81.44,1.18.77-2,1.39-4.03,2.1-6.03.02-.07.03-.14-.06-.24-.29.06-.64-.09-.93.09m-56.22-.09c-.06,1.04-.06,2.06-.06,3.08,0,1.04,0,2.08,0,3.14.34.02.63.04.96-.01v-3.31c.13-.05.17.01.21.06.19.23.38.45.57.68.69.81,1.38,1.63,2.07,2.44.07.08.14.17.26.11.05-.05.05-.11.05-.17,0-1.9,0-3.8,0-5.69,0-.12.02-.24-.09-.33-.15-.05-.3-.02-.45-.02-.15,0-.31-.05-.48.08v3.36s-.05.02-.08.04c-.32-.38-.66-.75-.96-1.15-.32-.4-.64-.8-.97-1.18-.33-.38-.62-.79-1.03-1.12m36.33,3.12c-.02.44.05.88.16,1.3.12.5.31.97.65,1.37.39.45,1.07.73,1.73.43.4-.18.68-.46.9-.82.31-.52.45-1.09.52-1.68.11-1,0-1.97-.53-2.85-.78-1.3-2.24-1.11-2.86-.06-.42.72-.56,1.5-.57,2.31m-18.61-3.14c-.08.12-.07.2-.07.29,0,.88,0,1.76,0,2.64,0,.61-.02,1.21.01,1.82.05.96.59,1.54,1.53,1.6.77.05,1.36-.23,1.65-.87.14-.31.17-.64.17-.97,0-1.4,0-2.8,0-4.2,0-.09.01-.19-.09-.29h-.91c-.07.13-.05.25-.05.37,0,1.34,0,2.68,0,4.03,0,.11,0,.22-.01.32-.05.33-.33.56-.65.54-.29-.01-.54-.26-.57-.58-.01-.11,0-.21,0-.32,0-1.32,0-2.64,0-3.95,0-.14.04-.29-.07-.4h-.92Zm-.65,3.11c-.03-.55-.09-1.1-.28-1.63-.15-.42-.36-.8-.7-1.1-.48-.41-1.02-.55-1.62-.31-.44.18-.74.51-.94.93-.56,1.19-.61,2.42-.23,3.68.12.4.29.78.56,1.1.37.45,1.05.74,1.7.46.43-.18.73-.47.96-.86.4-.7.52-1.47.56-2.27m4.75-3.06v6.22h1v-1.67s.05-.01.08-.02c.31.56.48,1.19.83,1.7h1.04c0-.05.02-.08.01-.1-.3-.69-.6-1.39-.9-2.08,0-.02,0-.04.02-.06.03-.04.05-.08.09-.11.33-.32.5-.71.61-1.14.32-1.2-.27-2.72-2.03-2.8-.25-.01-.49-.02-.75.08m21.22,4.04c.03-.05.05-.1.08-.13.37-.36.58-.81.67-1.31.14-.75,0-1.44-.54-2.02-.49-.52-1.13-.66-1.82-.64-.15,0-.31-.02-.46.12v6.19c.33.05.65.03.96.02.08-.22.04-.41.05-.6,0-.2,0-.4,0-.61.01-.18-.09-.36.05-.58.3.61.51,1.21.84,1.77h1.05c0-.05.02-.08.01-.1-.3-.7-.6-1.39-.91-2.12m-46.61-.06c.33-.3.54-.65.67-1.06.22-.7.17-1.38-.18-2.03-.42-.79-1.63-1.17-2.57-.9,0,2.05,0,4.12,0,6.23.38-.02.7.03,1.04-.03.06-.55,0-1.08.05-1.61.23.22.27.53.42.79.15.27.27.55.4.83h1.13c-.33-.76-.63-1.47-.96-2.22m51.71,2.26c.07.01.12.03.16.03,1.1-.02,1.96-.48,2.47-1.46.53-1.02.53-2.08.09-3.13-.32-.76-.87-1.3-1.66-1.55-.34-.11-.68-.17-1.06-.13v6.25Zm11.53-6.17c-.07.67-.04,5.94.04,6.19.04.01.09.04.13.03.95-.04,1.77-.37,2.3-1.2.72-1.12.77-2.3.2-3.49-.47-.99-1.27-1.53-2.38-1.6-.09,0-.19-.03-.29.07m6.48.91c.03-.35.05-.66,0-.98h-2.8c0,2.1-.02,4.18.01,6.28h2.76c.08-.37.07-.76-.02-1.05-.55-.01-1.12,0-1.67-.02-.08-.61-.04-1.87.05-2.1.53-.06,1.07.03,1.62-.05,0-.33.05-.62-.04-.9-.3-.05-.57,0-.84-.03-.27-.02-.54.05-.81-.05v-1.1h1.73Zm-77.1-1.05c-.03.07-.05.1-.05.13,0,1.98,0,3.96-.01,5.95,0,.05.01.09.02.14,0,.01.01.02.02.03,0,0,.02.02.02.02h.99c.06-.65-.01-1.29.04-1.9.13-.11.26-.13.39-.17,1.51-.49,1.94-2.48.78-3.56-.62-.58-1.37-.7-2.2-.64m18.51.06c-.07-.02-.09-.04-.11-.04-1.12.08-1.96.59-2.45,1.62-.32.66-.38,1.37-.26,2.09.19,1.16.8,2.02,1.93,2.44.29.11.61.15.94.11v-3.89c-.34-.04-.65-.03-.98,0,0,.31,0,.58,0,.86,0,.27.01.55,0,.82-.02.26.07.53-.03.78-.13.01-.17-.06-.23-.12-.58-.65-.73-1.4-.56-2.25.17-.86.81-1.39,1.53-1.47.09,0,.19,0,.27-.13,0-.25.05-.53-.03-.81m-22.19,5.3c.15.21.28.4.44.58.58.65,1.83.45,2.25-.22.2-.33.27-.68.22-1.06-.06-.42-.24-.79-.5-1.13-.29-.39-.6-.76-.9-1.15-.2-.26-.35-.54-.38-.87-.04-.35.08-.51.44-.61.29.04.34.34.57.51.22-.15.51-.2.75-.4-.11-.37-.29-.68-.62-.88-.8-.49-1.96.03-2.12,1.05-.07.44.04.85.27,1.22.28.46.6.88.94,1.3.25.32.47.66.53,1.07.04.22-.08.41-.26.5-.17.08-.35.03-.52-.11-.11-.09-.14-.25-.3-.34-.26.16-.52.33-.81.51m41.21.01c-.35-.02-.45-.31-.66-.47-.29.13-.52.32-.81.48.19.3.39.56.66.76.57.42,1.59.25,1.99-.32.32-.46.37-.97.17-1.49-.16-.43-.4-.8-.7-1.14-.27-.31-.55-.63-.76-.98-.19-.31-.31-.64-.19-1.01.1-.13.21-.23.32-.24.36.02.41.32.6.49.28-.06.51-.23.77-.32-.06-.71-.83-1.25-1.52-1.09-1.11.25-1.45,1.34-1.01,2.26.22.46.54.86.86,1.26.27.33.53.67.65,1.09.13.42.03.61-.37.74m-14.69.94c.11-.14.07-.27.07-.38,0-1.53,0-3.06,0-4.59,0-.1-.03-.22.08-.31.26-.07.55.04.85-.06,0-.33.05-.65-.02-.97-.77-.06-2.63-.03-2.9.05,0,.3-.04.61,0,.91.3.12.59-.02.84.09.05.13.03.25.03.37,0,1.51,0,3.02,0,4.52,0,.12-.04.26.09.38h.94Zm33.77-1.06c0-.46,0-.88,0-1.31,0-.43,0-.85,0-1.28,0-.44,0-.88,0-1.32,0-.42.01-.84-.02-1.29-.37,0-.7-.03-1.06.02v2.08c0,.7,0,1.4,0,2.1,0,.68-.02,1.37.02,2.07h2.84c.04-.34.01-.66.02-1.01-.62-.07-1.21.03-1.8-.06m-52.16,1.03c.09-.4.07-6.02-.02-6.3-.32.04-.64-.03-.96.04-.02.06-.04.1-.04.13,0,1.97,0,3.94-.01,5.91,0,.05.01.09.02.14,0,.01,0,.02.02.03,0,0,.02.02.03.03.02,0,.06.02.09.02.28,0,.57,0,.87,0m5.51-.02c.08-.39.07-6.01-.03-6.29-.31.03-.64-.02-.99.04v6.25h1.02Zm-20.18-.02h1.02v-6.28c-.35.03-.68-.03-1.02.04v6.24Zm79.93.1c.11-.33.15-4.14.08-6,0-.1,0-.19-.12-.29-.28.02-.61-.05-.94.05,0,2.09,0,4.15,0,6.23.37.03.68.02.98.02"/><path class="cls-3" d="m72.29,9.31c.46.17.95.18,1.43.28,2.49.54,4.63,1.72,6.41,3.55,1.37,1.4,2.34,3.04,2.95,4.89.33,1.01.52,2.05.57,3.11,0,.12-.01.24.05.34.07.09.17.08.27.08.24,0,.48,0,.71,0,10.75,0,21.49,0,32.24,0,.12,0,.24,0,.36,0,.3.02.51.22.52.48,0,.25-.21.47-.5.5-.12,0-.24,0-.36,0-10.95,0-21.9,0-32.85,0-.13,0-.26-.03-.4.06-.11.15-.07.35-.09.54-.12,1.34-.47,2.61-1.01,3.83-.78,1.76-1.92,3.27-3.4,4.51-1.05.88-2.22,1.57-3.51,2.07-1.63.63-3.31.92-5.05.85-1.23-.05-2.42-.27-3.59-.68-2.29-.79-4.19-2.15-5.71-4.03-1.08-1.34-1.84-2.84-2.3-4.5-.21-.76-.33-1.53-.41-2.31-.01-.1,0-.22-.11-.34H24.49c-.17-.1-.25-.19-.32-.28-.05-.14-.04-.28-.01-.4.13-.25.33-.32.58-.31.14,0,.28,0,.43,0,11.02,0,22.04,0,33.06,0,.09,0,.19.02.28-.02.08-.06.08-.14.08-.22.04-.7.13-1.39.28-2.08.3-1.44.85-2.79,1.64-4.03,1.31-2.08,3.09-3.65,5.31-4.7,1.16-.54,2.37-.91,3.64-1.06.17-.02.32-.08.48-.13h2.35Zm10,9.93c-.11.02-.11.11-.14.17-.21.49-.41.98-.63,1.47-.53,1.2-1.07,2.4-1.6,3.6-.35.78-.7,1.56-1.05,2.34-.08.19-.2.32-.41.33-.28-.13-.3-.14-.4-.38-.15-.35-.3-.7-.44-1.05-.61-1.49-1.22-2.98-1.82-4.48-.44-1.08-.88-2.15-1.31-3.23-.58-1.45-1.16-2.91-1.74-4.36-.02-.06-.03-.15-.15-.14-.08.08-.06.19-.06.29-.01,2.39-.02,4.77-.03,7.16,0,2.18-.01,4.37-.03,6.55,0,.51-.03,1.02-.19,1.51-.26.85-.76,1.52-1.53,1.98-1.14.67-2.36.72-3.61.41-.32-.08-.64-.16-.98-.38,0-.71,0-1.45.02-2.17.18-.11.31-.03.44.01.53.19,1.07.3,1.64.26.48-.04.83-.27,1.03-.7.2-.4.26-.84.27-1.28,0-.65,0-1.31,0-1.96.01-3.78.03-7.55.04-11.33,0-.09.01-.19-.1-.23-.07.02-.08.09-.11.14-.17.44-.34.89-.52,1.33-.81,2.01-1.63,4.02-2.44,6.03-.7,1.72-1.4,3.45-2.1,5.17-.09.21-.17.42-.29.61-.17.29-.46.29-.66,0-.03-.05-.07-.1-.09-.15-.48-1.09-.97-2.19-1.45-3.28-.59-1.33-1.17-2.67-1.76-4-.04-.09-.07-.21-.21-.2-.06.06-.06.13-.07.2-.09.48-.15.96-.2,1.44-.13,1.41.02,2.8.41,4.16.57,1.95,1.59,3.65,3.05,5.06,1.89,1.83,4.15,2.9,6.76,3.19,2.04.23,4.02-.06,5.91-.91,2.09-.93,3.77-2.36,5.02-4.27.9-1.38,1.47-2.88,1.72-4.52.21-1.35.17-2.7-.07-4.04-.02-.13-.03-.28-.16-.36m-20.85-3.61c.22.49.42.96.63,1.42.47,1.06.94,2.12,1.41,3.18.04.09.07.18.24.17.98-2.41,1.96-4.85,2.96-7.31,2.95-.03,5.89-.01,8.82,0,.07.11.13.2.17.3.28.65.55,1.31.82,1.97.65,1.63,1.3,3.26,1.95,4.88.03.08.07.18.18.18.02-.02.05-.03.06-.05.68-1.51,1.35-3.03,2.03-4.55.09-.19.05-.35-.08-.53-2.03-2.84-4.76-4.5-8.23-4.91-1.69-.2-3.34-.02-4.95.52-1.9.64-3.53,1.72-4.88,3.21-.41.46-.8.93-1.12,1.49"/><path class="cls-3" d="m118.11,84.14c-.1.12-.23.11-.36.1-1.9-.05-3.8-.02-5.7-.04-.68,0-1.35,0-2.03,0-.08,0-.17,0-.24.05-.09.24-.14,4.8-.05,5.32.12.12.27.07.4.07,2.28,0,4.56,0,6.84.01.27,0,.54,0,.85,0,.07.39.02.76.03,1.12,0,.38,0,.76,0,1.14,0,.37,0,.74,0,1.1,0,.36.06.73-.05,1.11h-8.02c-.11.08-.09.21-.09.32-.01,3.06-.02,6.13-.03,9.19,0,.08-.01.17.07.29,2.72.04,5.48.01,8.22.04.11.31.1,4.48-.01,4.81-4.36-.02-8.74-.05-13.12-.07-.08,0-.16-.02-.26-.11.04-9.62.08-19.27.12-28.9.1-.14.23-.11.34-.11,1.82,0,3.63.01,5.45.02.82,0,1.64,0,2.46.02,1.63.01,3.25.02,4.88.03.1,0,.22-.03.3.06v4.42Z"/><path class="cls-3" d="m40.87,40.18h5.64c.16.12.13.24.13.36-.02,2.97-.05,5.94-.07,8.91-.02,2.37-.04,4.75-.05,7.12-.01,2.9-.01,5.8-.02,8.69,0,.72.11,1.42.43,2.07.66,1.34,2.14,2.06,3.59,1.76,1.38-.29,2.21-1.15,2.59-2.49.12-.44.14-.89.14-1.34.02-3.23.03-6.46.05-9.69.02-4.98.05-9.95.08-14.93,0-.13-.03-.26.06-.38.23-.07,5.45-.03,5.75.03.07.06.07.14.07.23-.02,6.17-.04,12.35-.07,18.52,0,2.18-.02,4.37-.04,6.55,0,.92-.07,1.83-.27,2.72-.36,1.61-1.02,3.08-2.17,4.29-.74.78-1.6,1.37-2.59,1.78-1.85.75-3.76.91-5.73.68-1.11-.13-2.17-.41-3.16-.9-1.65-.82-2.83-2.09-3.6-3.75-.45-.98-.72-2-.84-3.07-.08-.72-.1-1.44-.1-2.17.03-4.95.05-9.9.08-14.85.02-3.24.03-6.48.05-9.73,0-.13-.02-.26.05-.43"/><path class="cls-3" d="m98.78,69.36v5.59c-.12.14-.23.13-.33.13-4.9-.02-9.81-.03-14.71-.05-.19,0-.38.04-.6-.09.08-11.5.12-23.03.15-34.53.34-.1,15.31-.01,15.59.07.08.27.07,4.98-.01,5.28-.11.11-.24.08-.37.08-2.89-.01-5.77-.03-8.66-.04-.22,0-.45-.04-.69.06v6.32c.1.11.25.07.39.07.69,0,1.38,0,2.07.01,2.17.01,4.35.03,6.52.04.13,0,.26-.02.37.03.12.11.09.23.09.35,0,1.53,0,3.06-.01,4.6,0,.11.02.22-.09.33h-9.31c-.09.35-.11,11.4-.01,11.7,3.19.02,6.4.03,9.64.05"/><path class="cls-3" d="m85.95,108.62h-4.32c-.13-.13-.09-.28-.09-.42,0-4.22.02-8.43.03-12.65,0-2.01.02-4.01.03-6.02.02-3.05.05-6.1.07-9.15,0-.15,0-.31.02-.46.01-.17.07-.3.25-.36.23-.04.41.09.56.25.19.19.37.4.55.61,1.62,1.96,3.23,3.92,4.84,5.88,1.54,1.87,3.07,3.75,4.6,5.62,1.04,1.28,2.08,2.56,3.12,3.84.09.11.16.24.36.29,0-5.48.01-10.94.07-16.44.41-.07.8-.03,1.18-.03.38,0,.76,0,1.14,0,.39,0,.78,0,1.18,0,.38,0,.76-.01,1.12.03.12.14.07.29.07.43-.01,3.97-.02,7.93-.04,11.9-.02,4.25-.05,8.5-.07,12.75,0,1.08-.01,2.16-.02,3.24,0,.27,0,.55-.28.73-.26.03-.44-.14-.6-.32-.35-.39-.68-.79-1.02-1.19-1.46-1.73-2.92-3.47-4.38-5.2-2.26-2.68-4.52-5.35-6.77-8.03-.41-.49-.83-.98-1.24-1.47-.03-.04-.06-.08-.14-.07-.09.02-.06.12-.07.2,0,.24,0,.47,0,.71-.07,4.95.01,9.9-.06,14.85,0,.14.02.28-.06.47"/><path class="cls-3" d="m64.36,79.61c.12-.14.27-.14.41-.15,1.42-.15,2.84-.21,4.26-.02,1.56.21,3.03.66,4.36,1.52,1.36.88,2.38,2.06,3.09,3.5.6,1.22.91,2.51,1.04,3.86.11,1.2.01,2.39-.2,3.58-.25,1.39-.74,2.69-1.45,3.91-.44.75-.98,1.42-1.64,2.01-.11.1-.26.18-.34.37.28.67.57,1.36.87,2.06.29.69.58,1.37.87,2.06.29.7.58,1.4.88,2.1.29.69.6,1.37.88,2.06.28.7.63,1.36.84,2.09-.34.08-4.46.08-5.13,0-.22-.12-.26-.37-.34-.57-1.15-2.6-2.31-5.2-3.5-7.78-.02-.05-.04-.11-.13-.12-.1.1-.07.24-.07.36,0,2.57-.02,5.13-.03,7.7,0,.12.03.24-.04.33-.09.11-.2.1-.31.1-1.4,0-2.8-.01-4.2-.02-.08,0-.17,0-.23-.06-.08-.25.02-28.44.1-28.88m4.85,15.55c.06.03.11.02.17,0,.44-.12.84-.32,1.22-.57,1.31-.88,2.02-2.15,2.26-3.68.26-1.62.02-3.17-.79-4.61-.56-1.01-1.36-1.79-2.42-2.27-.13-.06-.28-.14-.43-.1-.09.35-.1,10.95,0,11.23"/><path class="cls-3" d="m118,46.25c-1.57.76-3.19,1.47-4.77,2.18-.19-.05-.2-.19-.25-.31-.24-.61-.53-1.19-.94-1.7-.98-1.23-3.06-1.13-3.79.63-.23.56-.24,1.16-.19,1.75.1,1.13.52,2.16,1.04,3.15.82,1.54,1.89,2.9,2.99,4.24.92,1.12,1.87,2.21,2.72,3.38.94,1.29,1.75,2.65,2.34,4.14.62,1.57.89,3.2.66,4.88-.19,1.43-.65,2.77-1.57,3.91-.73.9-1.64,1.57-2.69,2.05-1.69.77-3.46,1-5.29.76-1.42-.18-2.68-.72-3.72-1.76-.93-.93-1.71-1.97-2.41-3.08-.08-.13-.16-.26-.24-.39-.02-.03-.02-.07-.04-.15,1.51-.98,3.04-1.93,4.57-2.9.21.17.31.39.43.59.23.39.46.78.76,1.12.51.58,1.09,1.01,1.88,1.12,1.08.16,2.1-.48,2.53-1.5.29-.68.28-1.37.09-2.06-.45-1.67-1.25-3.17-2.25-4.57-.78-1.1-1.7-2.11-2.5-3.2-1.27-1.73-2.52-3.48-3.55-5.37-.61-1.11-.94-2.3-1.1-3.54-.11-.88-.1-1.76.06-2.63.31-1.81,1.11-3.36,2.46-4.63,1-.94,2.17-1.57,3.5-1.89,1.49-.35,2.99-.35,4.47.13,1.07.35,1.96,1.01,2.71,1.83.97,1.06,1.63,2.3,2.08,3.65,0,.02,0,.05,0,.15"/><path class="cls-3" d="m69.43,69.21c3.3.02,6.56.04,9.79.05.13.1.12.21.12.31,0,1.73-.01,3.47-.02,5.2,0,.06-.02.12-.03.22-1.31.02-2.62,0-3.94,0-1.32,0-2.64,0-3.95-.01-1.31,0-2.61-.01-3.92-.02-1.31,0-2.63-.02-3.89-.04-.12-.11-.11-.2-.11-.28.04-11.44.14-22.89.15-34.32.35-.09,5.59-.09,5.94,0,0,4.79-.06,9.6-.07,14.4-.02,4.81-.04,9.61-.06,14.47"/><path class="cls-3" d="m46.98,108.4c-.11-.38.01-28.7.12-29.02.28-.08,12.37-.04,13.03.06.06.36.01.73.02,1.11,0,.38,0,.76,0,1.14,0,.37,0,.74,0,1.1,0,.38.02.75-.04,1.18-2.71.02-5.4-.03-8.06-.01-.03.04-.04.04-.05.05,0,0-.02.02-.02.03-.01.08-.03.16-.03.25,0,1.64-.01,3.28-.01,4.92,0,.03.02.07.05.14,1.29.05,2.59.02,3.89.03,1.29.01,2.59,0,3.82,0,.16.11.16.22.16.33,0,1.31,0,2.61-.01,3.92,0,.07,0,.14-.09.25-1.27.03-2.58,0-3.9,0-1.3,0-2.6-.02-3.89,0-.09.29-.17,9.07-.1,9.72.11.13.26.09.4.09.99,0,1.97,0,2.96.01,1.4,0,2.8,0,4.2.01.18,0,.36-.02.5.03.08.07.1.14.1.21,0,1.5-.02,3.01-.02,4.5-.31.09-12.57.05-13.03-.04"/><path class="cls-3" d="m23.95,79.28h4.93c1.67,5.11,3.29,10.24,4.94,15.35.16-.01.18-.12.22-.22.54-1.51,1.08-3.01,1.61-4.52.45-1.25.9-2.5,1.34-3.75.44-1.25.88-2.5,1.32-3.76.33-.93.65-1.86.98-2.78.04-.1.08-.2.17-.26.44-.07,4.6-.03,4.84.04.06.3-.13.55-.21.81-.5,1.47-1.02,2.93-1.54,4.39-.5,1.42-1.01,2.83-1.51,4.25-.39,1.11-.77,2.22-1.16,3.32-.43,1.23-.87,2.46-1.3,3.69-.35.99-.7,1.99-1.05,2.98-.34.96-.69,1.92-1.03,2.88-.39,1.09-.77,2.19-1.16,3.28-.32.92-.65,1.83-.97,2.75-.06.15-.13.31-.25.43-.24.27-.52.27-.77.01-.18-.19-.27-.42-.34-.66-.52-1.56-1.04-3.12-1.55-4.69-.45-1.39-.89-2.78-1.34-4.16-.6-1.85-1.21-3.69-1.81-5.54-.5-1.54-.99-3.09-1.48-4.64-.44-1.38-.9-2.75-1.34-4.12-.34-1.07-.67-2.15-1.01-3.22-.17-.54-.35-1.08-.52-1.62-.02-.06-.04-.11.02-.23"/><path class="cls-3" d="m24,73.69c-.08-.76-.02-5.38.07-5.63.13-.03.25.05.36.1.83.38,1.7.67,2.6.81.75.12,1.47.06,2.12-.37.59-.38.9-.96,1.12-1.6.34-.99.45-2.02.46-3.05.03-4.44.04-8.88.05-13.32.01-3.37.04-6.74.05-10.12,0-.11-.02-.21.03-.31.09-.11.21-.09.33-.09,1.7,0,3.4.01,5.09.02.08,0,.17-.01.25.04.11.1.06.24.06.37,0,2.42-.02,4.84-.03,7.27-.01,3.61-.02,7.22-.04,10.83-.01,2.39-.03,4.77-.06,7.16-.01,1.19-.17,2.37-.53,3.51-.66,2.1-1.84,3.79-3.82,4.83-1.37.72-2.83.98-4.38.81-1.21-.13-2.34-.48-3.41-1.03-.12-.06-.23-.12-.34-.23"/><path class="cls-3" d="m85.59,121.89c0-.43.04-.85.18-1.26.09-.26.19-.51.43-.68.19-.14.36-.15.56-.03.34.21.49.55.57.91.18.73.19,1.46,0,2.19-.07.27-.17.52-.36.73-.3.33-.66.32-.94-.01-.26-.31-.34-.7-.4-1.09-.04-.25-.03-.5-.05-.74"/><path class="cls-3" d="m64.2,121.91c-.04.48-.05.97-.25,1.43-.08.17-.17.34-.32.47-.28.24-.56.22-.82-.05-.27-.27-.36-.62-.41-.96-.12-.74-.12-1.49.12-2.22.08-.25.2-.48.42-.64.18-.13.36-.14.56-.02.35.21.48.56.57.91.08.35.14.72.13,1.09"/><path class="cls-3" d="m71.05,122.15c-.01-.76-.04-1.53.01-2.29.41,0,.81.57.82,1.15.02.59-.37,1.13-.83,1.14"/><path class="cls-3" d="m90.23,119.83c.51.14.87.74.82,1.32-.05.54-.38.97-.82,1.02v-2.34Z"/><path class="cls-3" d="m43.64,122.15v-2.33c.44.05.79.59.79,1.19,0,.61-.32,1.08-.79,1.14"/><path class="cls-3" d="m97.34,120.22c.1-.06.18,0,.24.04.18.12.33.27.44.46.48.87.47,1.74-.03,2.6-.13.22-.3.45-.65.47v-3.56Z"/><path class="cls-3" d="m108.85,120.17c.8.29,1.11,1.36.99,2.21-.1.73-.5,1.31-.98,1.39-.03-1.19-.02-2.38,0-3.6"/><path class="cls-3" d="m38.3,122v-1.98c.14-.1.25-.03.35.06.37.31.47.72.39,1.18-.05.3-.19.56-.46.72-.07.04-.14.08-.28.02"/></g></g></g></svg>