<svg width="52" height="52" viewBox="0 0 52 52" fill="none" xmlns="http://www.w3.org/2000/svg">
<path fill-rule="evenodd" clip-rule="evenodd" d="M36.0089 29.5866C36.0089 29.5866 30.0546 29.51 27.0953 23.6002C23.0091 15.4327 31.51 11.0435 31.51 11.0435L39.0547 12.3898L36.0089 29.5866ZM27.7604 32.1743C27.3463 32.1002 27.0007 32.1171 26.7271 32.2287C26.4526 32.3395 26.2895 32.5373 26.2393 32.8237C26.188 33.1095 26.2734 33.3538 26.4922 33.5505C26.7115 33.7502 27.029 33.8878 27.444 33.9616C27.8578 34.036 28.2013 34.0163 28.4724 33.9055C28.7441 33.7931 28.9051 33.594 28.9555 33.3089C29.0057 33.0234 28.9223 32.7807 28.707 32.5822C28.4912 32.3836 28.1751 32.2476 27.7604 32.1743Z" fill="white"/>
<path fill-rule="evenodd" clip-rule="evenodd" d="M17.418 31.5719L18.6918 31.8009L18.2447 30.6914L17.418 31.5719Z" fill="white"/>
<mask id="mask0_5596_8481" style="mask-type:alpha" maskUnits="userSpaceOnUse" x="0" y="0" width="52" height="52">
<path d="M51.831 26V52H0V0H51.831V26Z" fill="white"/>
</mask>
<g mask="url(#mask0_5596_8481)">
<path fill-rule="evenodd" clip-rule="evenodd" d="M34.1066 35.5398L30.5761 34.9088L31.0259 32.3701L32.0732 32.5575L31.7035 34.6405L34.1854 35.0822L34.1066 35.5398ZM30.0021 33.4949C29.9219 33.95 29.6076 34.2545 29.059 34.4066C28.6449 34.5371 28.0816 34.5387 27.3639 34.4107C26.6478 34.2821 26.1186 34.0868 25.7751 33.8215C25.3108 33.4886 25.1185 33.0936 25.1979 32.6379C25.2816 32.1731 25.5975 31.8687 26.1461 31.727C26.5594 31.596 27.1244 31.5951 27.8405 31.7237C28.5555 31.8509 29.0863 32.0476 29.4298 32.3124C29.8941 32.6362 30.0847 33.0293 30.0021 33.4949ZM24.918 31.7459L23.4193 31.4786L23.0491 33.5674L21.9955 33.3794L22.3649 31.2899L20.8591 31.0213L20.9384 30.5729L24.9982 31.2956L24.918 31.7459ZM19.138 32.8698L18.9075 32.2919L17.0538 31.9611L16.6223 32.4215L15.5281 32.227L17.7653 30.007L18.9481 30.2171L20.2739 33.0734L19.138 32.8698ZM24.0216 26.4641C19.0504 21.2554 19.0122 15.0658 22.1303 9.40543L17.9917 8.66797L13.3711 34.9854L34.3955 38.6998L35.7878 30.8366C35.7878 30.8366 28.9917 31.6706 24.0216 26.4641Z" fill="white"/>
<path fill-rule="evenodd" clip-rule="evenodd" d="M0.395887 21.4924C-2.08383 35.6138 7.34482 49.1288 21.4162 51.6194C35.4883 54.1088 48.9535 44.6452 51.4352 30.5241C51.7022 29.0027 51.8313 27.4894 51.8313 25.9946C51.8313 13.6186 42.9714 2.62014 30.4154 0.397916C16.3443 -2.09293 2.87751 7.37069 0.395887 21.4924ZM21.707 49.9661C8.54375 47.6367 -0.276828 34.9937 2.04303 21.7837C4.36479 8.57344 16.962 -0.279365 30.1252 2.05036C43.2889 4.37982 52.109 17.0219 49.788 30.2328C47.4671 43.4422 34.8699 52.295 21.707 49.9661Z" fill="white"/>
<path fill-rule="evenodd" clip-rule="evenodd" d="M3.68926 31.614C3.65216 31.4165 3.62352 31.2176 3.57087 31.0256C3.51876 30.8328 3.4432 30.647 3.375 30.4583L8.6386 29.0176L9.15418 30.9116C9.44553 31.9811 9.173 32.6764 8.30578 32.9141C6.93962 33.2883 6.3763 32.3671 5.99875 30.9808L3.68926 31.614ZM6.42104 30.8653C6.47532 31.0327 6.53043 31.2081 6.61336 31.3585C6.88779 31.8216 7.37473 31.8867 7.8423 31.7593C8.45691 31.5905 8.77745 31.164 8.66888 30.7628L8.53821 30.2849L6.42104 30.8653ZM9.93192 33.2771L10.7893 34.7433C10.9792 35.0669 11.2866 35.5612 11.3046 35.9397C11.3281 36.4534 11.1407 36.8416 10.6739 37.116C10.0018 37.5115 9.32304 37.3293 8.81073 36.7691C8.37426 37.5361 7.99316 38.3354 7.59652 39.124L7.32781 39.6426C7.2206 39.4285 7.12158 39.2096 6.99637 38.9954C6.87552 38.7895 6.73339 38.595 6.59945 38.3961L7.56078 36.7292C7.68572 36.5166 7.88868 36.1383 8.06081 35.8331L8.03244 35.7849L5.82989 37.0818C5.74396 36.9018 5.66348 36.7177 5.56282 36.5454C5.46216 36.3736 5.34049 36.2133 5.22674 36.0486L9.93192 33.2771ZM8.32706 35.6118C8.6817 36.3744 9.23384 36.5298 9.9401 36.1137C10.0367 36.0568 10.1357 35.9901 10.2631 35.8768C10.768 35.4318 10.411 34.9482 10.1649 34.5275L8.32706 35.6118ZM10.7031 43.3381C9.38142 42.1767 9.17028 40.6129 10.3597 39.2485C11.402 38.0537 13.1141 37.8493 14.6038 39.159C16.3091 40.6569 15.7588 42.3058 14.9527 43.2419C13.9366 44.4183 12.1691 44.6268 10.7031 43.3381ZM11.2007 40.2961C10.5203 41.0768 10.1502 42.2164 11.0482 43.0052C11.9694 43.8144 13.1888 43.2525 14.059 42.2555C14.7345 41.4805 15.15 40.2764 14.253 39.487C13.421 38.7561 12.3745 38.9509 11.2007 40.2961ZM17.3702 47.3518C17.194 47.2582 17.0211 47.1565 16.8394 47.0777C16.6566 46.997 16.4643 46.9409 16.2761 46.8755L18.2178 42.3704C17.6998 42.1455 17.2175 41.9973 16.8157 41.8835C16.8743 41.7866 16.9409 41.6947 16.9878 41.5845C17.0325 41.4819 17.0543 41.3698 17.0846 41.2609L20.844 42.8928C20.7846 42.9888 20.7188 43.0824 20.6741 43.185C20.6263 43.2946 20.6053 43.4073 20.5753 43.5154C20.1667 43.2769 19.7575 43.0403 19.3128 42.8463L17.3702 47.3518ZM24.6389 43.554C24.6048 43.6612 24.5617 43.7758 24.544 43.886C24.5246 43.9957 24.5284 44.1185 24.5254 44.231C24.0567 44.0868 23.5349 43.932 22.732 43.8127L22.4464 45.5048L23.2621 45.6424C23.6154 45.7026 23.9416 45.7261 24.2387 45.736C24.2046 45.8435 24.161 45.9584 24.1421 46.0681C24.1233 46.178 24.1269 46.3003 24.1233 46.4133C23.8401 46.3246 23.5242 46.239 23.1721 46.1788L22.3561 46.0399L22.0184 48.0381C22.8199 48.1666 23.3595 48.2186 23.8483 48.2367C23.815 48.3439 23.7703 48.4588 23.7526 48.5687C23.7338 48.6787 23.737 48.7999 23.7338 48.9137L20.7464 48.4043L21.6523 43.0457L24.6389 43.554ZM30.3338 47.7506L30.2255 48.4498C29.7743 48.7427 29.2213 48.8934 28.6905 48.9449C26.9964 49.1093 25.613 48.1861 25.4556 46.5574C25.2551 44.4832 26.5897 43.3991 28.3137 43.2306C28.8367 43.1809 29.4835 43.2542 29.9674 43.4634C29.9221 43.74 29.9011 44.0151 29.8643 44.3002L29.7533 44.3098C29.4185 43.9101 28.8836 43.6571 28.3688 43.7074C27.0548 43.8346 26.6456 45.1492 26.7585 46.3181C26.89 47.6767 27.6473 48.5655 28.8659 48.4465C29.3577 48.3986 29.9028 48.0884 30.2263 47.7126L30.3338 47.7506ZM34.8423 47.1915C34.6516 47.25 34.4574 47.2998 34.2724 47.3723C34.0872 47.4453 33.9112 47.5408 33.7317 47.6294L31.9449 43.0589C31.419 43.2665 30.9732 43.5014 30.6088 43.7058C30.5828 43.5961 30.564 43.4828 30.5204 43.3715C30.4797 43.2673 30.4173 43.1718 30.3611 43.0744L34.175 41.5727C34.1998 41.6816 34.2189 41.7948 34.2593 41.8991C34.3021 42.0104 34.3657 42.1059 34.4216 42.2032C33.9647 42.3239 33.5067 42.4434 33.0555 42.6209L34.8423 47.1915ZM37.3329 39.3576C37.3839 39.4577 37.4333 39.5701 37.4974 39.6604C37.561 39.7523 37.6502 39.8363 37.7265 39.9186C37.2936 40.1473 36.8149 40.4077 36.1615 40.8902L37.146 42.2927L37.8231 41.8134C38.1145 41.6069 38.3638 41.3925 38.5812 41.1889C38.6317 41.2899 38.6819 41.4018 38.7463 41.4929C38.8093 41.5845 38.8979 41.6676 38.9749 41.75C38.7122 41.8876 38.4263 42.0503 38.1346 42.2568L37.4587 42.7364L38.6227 44.3921C39.2809 43.9169 39.6999 43.5717 40.0603 43.2386C40.1113 43.3395 40.1602 43.4506 40.2243 43.5425C40.2884 43.6344 40.3778 43.7173 40.454 43.7996L37.9772 45.5527L34.8562 41.1102L37.3329 39.3576ZM39.8088 36.6184C40.9144 35.3177 42.2781 35.5051 43.3011 36.3167C44.7112 37.4352 44.763 39.0939 43.7515 40.3774L42.3698 42.131L38.1216 38.7591L39.8088 36.6184ZM42.7479 40.9042L43.168 40.3727C43.8481 39.5083 43.9359 38.5094 42.4754 37.3512C41.3024 36.4201 40.4021 36.6105 39.7065 37.4943L39.2236 38.1081L42.7479 40.9042Z" fill="white"/>
</g>
</svg>
