<?xml version="1.0" encoding="utf-8"?>
<!-- Generator: Adobe Illustrator 27.6.1, SVG Export Plug-In . SVG Version: 6.00 Build 0)  -->
<svg version="1.1" id="Layer_1" xmlns="http://www.w3.org/2000/svg" xmlns:xlink="http://www.w3.org/1999/xlink" x="0px" y="0px"
	 viewBox="0 0 328 380.8" style="enable-background:new 0 0 328 380.8;" xml:space="preserve">
<g>
	<path d="M328,323.7c-1.1,2.5-2.7,3.5-4.6,4.5c-34.1,17-68.2,34.1-102.3,51.2c-1.3,0.7-2.7,1.3-5.1,1.6
		c-34.5-17.3-69.7-34.9-105-52.5c-14.6,7.3-29.2,14.6-43.8,21.9C48,359.8,28.8,369.4,9.6,379c-1,0.5-2.1,1-3.2,1.3
		c-3.2,0.8-5.7-0.7-6.2-4c-0.2-1.5-0.1-3-0.1-4.5c0-103.8,0-207.6-0.1-311.5c0-4.3,1.5-6.6,5.3-8.4c33.5-16.6,67-33.4,100.4-50.3
		c3.8-1.9,6.9-1.9,10.7,0c33.4,16.8,66.9,33.5,100.6,50.4c8.6-4.3,17.4-8.6,26.1-13c24.7-12.3,49.4-24.7,74.1-37
		c0.4-0.2,0.9-0.5,1.3-0.7c6.5-3.1,9.5-1.3,9.5,5.8c0,26.7,0,53.3,0,80c0,77,0,154,0,231C328,320.2,328,322.2,328,323.7z
		 M116.1,319.8c31.9,16,63.6,31.8,95.6,47.8c0-80.3,0-159.6,0-239.1c-2.9,0.7-3.7,3.7-6.2,4.4c-2.3-1.9-4.6-3.7-6.6-6.1
		c3.7-4.8,8.6-8.1,12.9-11.8c0-18.2,0-36.2,0-54.2c-31.8-15.9-63.5-31.7-95.6-47.7c0,80.5,0,160.2,0,240.3c2.1-0.9,3.1-2.7,4.9-3.1
		c4.8,4.4,7.7,10.2,9.4,18.8c-2.9,1.1-5.9,1.6-9,2c-1.7-3.7-2.1-7.8-5.5-11.4C116.1,280,116.1,299.7,116.1,319.8z M317.8,320
		c0-102.3,0-204.4,0-307.1c-32.3,16.1-64,32-95.4,47.7c0,102.5,0,204.4,0,307C254.6,351.5,286.2,335.7,317.8,320z M10.4,60.6
		c0,102.6,0,204.5,0,307c32.2-16.1,63.8-31.9,95.4-47.6c0-102.3,0-204.4,0-307.1C73.6,28.9,42,44.8,10.4,60.6z"/>
	<path d="M197.9,206.1c-3.3,0.1-6.1,0.3-9.2-0.2c0-6.3,0-12.5,0-19c3.1-0.8,6-0.2,9.2-0.4C197.9,193.2,197.9,199.4,197.9,206.1z"/>
	<path d="M197.9,147.4c0,6.7,0,12.9,0,19.4c-3,0.2-5.8,0.4-9-0.2c0-6.2,0-12.4,0-19C191.5,146.9,194.4,147.4,197.9,147.4z"/>
	<path d="M173.7,298.1c2.7,2.2,4.9,4.2,6.9,6.8c-5.5,5.6-11.8,9.3-19.9,10c-1-3.1-0.4-6.1-0.7-9.3
		C165.2,304.2,169.7,301.9,173.7,298.1z"/>
	<path d="M196.7,266.8c-0.9,6.5-2.1,12.8-4.7,19c-3.3-0.1-5.9-2.1-9.2-3.1c2-5.9,3.2-11.6,4.5-17.6
		C190.5,265.3,193.5,265,196.7,266.8z"/>
	<path d="M197.8,245.8c-3.2-0.3-6.2,0.5-9.2-0.7c0-6.2,0-12.2,0-18.5c3.1-0.6,6-0.4,9.2-0.2C197.8,232.8,197.8,239,197.8,245.8z"/>
	<path d="M125.3,291.3c3.2-1.4,5.8-2.5,9-3.1c2.4,4.8,4.9,9.5,9.7,12.5c-1.8,2.9-3.3,5.6-5.4,8C132.2,304.5,128,298.8,125.3,291.3z"
		/>
	<path d="M264.2,335.1c-3.4,0.1-6.3,0.3-9.5-0.2c0-6.5,0-12.9,0-19.3c3.2-0.4,5.9-0.3,9.2,0C264.5,322,264.2,328.4,264.2,335.1z"/>
	<path d="M287.8,236c0-6.4,0-12.6,0-19.2c3-0.8,5.9-0.1,9.2-0.4c0,6.7,0,13,0,19.6C294,236,291.2,236,287.8,236z"/>
	<path d="M287.6,177.4c3.4,0,6.2,0,9.3,0c0,6.4,0,12.6,0,18.9c-2.9,1.1-5.8,0.5-9.3,0.2C287.3,190.2,287.3,184,287.6,177.4z"/>
	<path d="M287.7,138.5c2.7-0.5,5.5-1.6,8.9-1c1.1,6.3,0.6,12.6,0.6,19.1c-3,1.2-5.9,0.4-9.5,0.5C287.7,151,287.7,145,287.7,138.5z"
		/>
	<path d="M275.3,311.6c-1.3-3.2-2.4-5.9-3.6-8.8c4.9-2.8,9.3-5.5,12.2-10.5c2.8,1.8,5.7,2.9,8.2,5.2
		C288.3,303.9,282.8,308.3,275.3,311.6z"/>
	<path d="M252.7,97.6c0.5,3.3,1,6.1,1.5,9.4c-5.8,1.5-11.6,2.8-17.2,5.4c-1.9-2.7-2.8-5.7-4-8.7C239.2,100.5,245.7,98.7,252.7,97.6z
		"/>
	<path d="M287.8,256.4c3.2-0.6,6-0.3,9.2-0.2c0,6.4,0,12.5,0,19c-3.1,0.2-6,0.4-9.2-0.2C287.8,268.9,287.8,262.9,287.8,256.4z"/>
	<path d="M281.5,120.8c-2.4-4.9-5.9-8.7-10.8-11.4c1.3-3.1,2.3-5.8,4.3-8.6c6.9,3.4,11.4,8.8,15.3,15.6
		C287.5,118.1,284.9,119.6,281.5,120.8z"/>
	<path d="M66.9,153.6c-0.1,5.5-0.4,10.8,0.3,16.2c1.7,0.5,3.3,1,4.9,1.5c3.6,1,6.8,2.8,9.5,5.3c7.7,7.1,7.7,18,0,25.1
		c-9.9,9.1-29,9.3-39.1,0.4c-8.6-7.5-8.6-18.5,0.1-25.9c4-3.5,8.8-5.2,14-6.2c0.7-5.3,0.1-10.5,0.4-16c-9-2.7-16.4-7.6-20.3-16.7
		c-2.5-5.9-2.8-12-1.2-18c3.3-12.2,15.5-20.6,28.4-19.7c12.5,0.9,23.5,11.3,25,24C90.2,134.8,84.2,148.7,66.9,153.6z M61.8,109.2
		c-9.4-0.1-17.3,7.6-17.6,16.9c-0.3,9.5,8.1,18.1,17.6,18c9.4-0.1,17.1-7.8,17.2-17.2C79.2,117.2,71.5,109.3,61.8,109.2z
		 M56.3,180.4c-2.3,0.1-4.4,1.1-6.3,2.4c-5.3,3.7-5.4,8.8-0.1,12.5c5.4,3.7,11.5,4,17.7,2.6c6.1-1.4,9.6-4.7,9.8-8.6
		c0.2-4-2.6-6.7-9.3-8.9c-0.2-0.1-0.6,0.2-0.9,0.4c-0.8,1.6,0.3,3.6-1.2,5.3c-2.8,0.2-5.7,0.3-8.5,0
		C56.2,184.1,57.6,182.1,56.3,180.4z"/>
	<path d="M65.8,210.7c1.4,5.9,1.8,11.4,4.6,16.3c-2.4,2.3-5.2,3.4-8.2,5c-4-6.1-5-13.1-6-20.2C59.2,210.2,62.4,211.3,65.8,210.7z"/>
	<path d="M99.8,248.8c-6.9,0.3-13.5,1-19.9-2c0.4-2.9,1.3-5.6,2.8-8.7c5.8,1.8,11.9,0.6,18.1,1.2
		C100.3,242.6,100.1,245.4,99.8,248.8z"/>
	<path d="M57.2,65.5c3.3,0,6.2-0.5,9.3,0.3c0.6,5,0.3,9.9,0.2,15.1c-3.2,0.7-6.2,0.4-9.6,0.3C57.2,75.9,57.2,71.1,57.2,65.5z"/>
	<path d="M28.2,85.6c2.2-2.3,4.2-4.5,6.4-6.8c4.1,3,7.2,7,10.9,10.5c-1.8,2.9-4.2,4.7-6.5,7C35,92.8,31.4,89.2,28.2,85.6z"/>
	<path d="M84.7,96.4c-2.3-2.4-4.3-4.6-6.2-6.5c3.4-3.4,6.8-6.9,10.6-10.6c2.1,1.1,3.8,3.6,6.5,6.2C92,89,88.4,92.6,84.7,96.4z"/>
</g>
</svg>
