<?xml version="1.0" encoding="UTF-8"?><svg id="Layer_1" xmlns="http://www.w3.org/2000/svg" xmlns:xlink="http://www.w3.org/1999/xlink" viewBox="0 0 141.73 141.73"><defs><style>.cls-1{fill:none;}.cls-2{clip-path:url(#clippath);}.cls-3{fill:#fff;}.cls-4{clip-path:url(#clippath-1);}</style><clipPath id="clippath"><rect class="cls-1" x="9.65" y="51.37" width="122.42" height="39"/></clipPath><clipPath id="clippath-1"><rect class="cls-1" x="9.65" y="51.37" width="122.42" height="39"/></clipPath></defs><g id="Layer_1-2"><g class="cls-2"><g class="cls-4"><path class="cls-3" d="m33.24,66.18c.65.05,1.65-1.55,1.89-1.94,1.94-2.99,0-6.43-1.85-8.83-1.2-1.55-4.09-4.19-4.24-4.04s1.4,1.89,1.99,3.19c-.7-.85-2.19-2.09-2.24-2.09-.15.15.95,1.75,1.55,2.59-.65-.45-1.55-1.45-1.6-1.3,0,.15.65,1.4,1.05,1.94.05.2-1-.85-1-.7.1.7,1.4,2.19,1.3,2.34-.05.1-.65-.45-.7-.35-.1.15.25.85.6,1.4-.35-.25-.55-.3-.7-.3s.1.5.5,1.2c-.25-.05-.6-.25-.7-.15-.05.05.15.5.5.95-.25,0-.45-.2-.55-.15-.1.1.25.55.6.95-.55-.05-.65-.05-.75,0-.15.15,1.45,1.3,2.54,2.89.3.4,1.45,2.34,1.8,2.39"/><path class="cls-3" d="m38.33,65.23c.25.45,1.25,0,1.05-.45-.2-.4-1.4-.2-1.05.45m.7-.05c-.2.15-.6.1-.55-.25.05.1.25.2.4.15.15-.1.1-.25,0-.3.45-.15.45.2.15.4"/><path class="cls-3" d="m38.53,63.14c-3.19.4-3.89,3.54-5.59,3.54-1.1,0-2.24-6.83-12.82-7.88-3.24-.35-6.73-.95-10.42-.95-.1,0-.1.1,0,.15,2.19.9,3.29,1.1,4.74,1.45-1.7-.05-3.74-.6-3.69-.3.3.4,2.04,1.05,2.99,1.35-.65.15-1.8-.15-1.75,0,.35.5,1.1.7,2.04,1-.7.05-1.25-.05-1.25.1,0,.25,1.1.7,1.75.9-.25.05-1.15-.05-1.05.15,1,.8,1.6.7,2.24,1-.45-.05-1.4-.1-1.25.05,1.05,1.2,2.79,1.45,4.19,2.24-.15,0-.5.05-.5.15.55.85,1.7.75,2.64,1-.15.05-.45.15-.3.25.6.25,2.19.3,2.69.7-.5.05-.25.55,0,.6-.2,0-.4.05-.35.25.35.6,1.3.45,1.94.7-.2.1-.55.15-.45.5.15.3.7.05.85.25-.25,0-.4.3-.3.45.2.15.7.05.5.55.4.1.6.05,1.15-.05-.05.15-.3.3-.15.4.15.05.6-.2.55,0-.05.25.5-.05.7.25.1.1.05.35-.35.75-.85.9-5.78,5.29-5.83,6.33,0,.4,1.55-1.25,2.04-1.2-1.45,1.05-2.94,2.99-3.09,3.39-.05.45,1.15-.6,2.49-1.7-1.85,1.94-3.19,3.94-2.79,3.89.2.05,1.1-.95,1.35-1-.95,1.5-1.25,1.45-2.24,3.09-.3.6.95-.1,1.4-.45-.65,1.8-2.04,3.14-2.34,5.34h.05c1.05-1.25,2.34-2.89,3.14-4.49,0,.45.15,1,.1,1.4.9-1.2,1.25-1.75,1.85-3.39.05.3.1,1,.05,1.35,1.89-2.54,3.04-6.03,5.04-9.13.45.2.6-.2.75-.2.1,0-.2.5.2.65.3.1.2.15.3.45.55-.3.45-.25,1.05.15.2-1.1.6,0,.6.5,0,.7-1.15.5-.95,1.35.35-.1.3-.45.7-.5.2-.05.1.25.25.25.25-.5.85-.25.95.1.15.35-.3.45-.15.75.65-.1.65-.8.6-1.25.15.05.3.1.35.35.05.35-.2.45-.2.75.65-.05.75-.55.7-1.15-.85-.3-1-1.3-.95-2.34-.15-1-.6-1.15-.15-1.5,1-.85,3.14-1.6,4.19-3.04.85-1.15.7-2.59,1.25-3.54.55-.95,1.4-.7,2.29-.6-.05.2-.25.55-.5.7,1.55.5,2.59-1.2,1.94-2.44.7-1.75-1.5-2.59-3.19-2.39m-6.63,14.61c.1-1.6-.8-2.79-.4-2.64.3.25.95,2.14.4,2.64m7.23-11.12c-.55-.05-.8.05-1.2.25q.15-.55.15-.8c0-.3-.4-.6-.35-.95.1-.9,1.8-1.75,2.49.2-.5.2-.95.6-1.1,1.3m1.15,1c.65-.8-.05-.9-.2-1.65.05-.35.85-.85,1.2-.55.4,1.2-.05,2.09-1,2.19"/><path class="cls-3" d="m44.41,74.36l1.05-1.05c.15-.1.3-.15.45,0,.2.2.4.35.8.35.45,0,.95-.4.95-1.2v-7.43c0-.15.15-.3.3-.3h1.89c.15,0,.3.15.3.3v7.38c0,2.19-1.55,3.44-3.39,3.44-1.4,0-2.14-.85-2.39-1.15-.05-.1-.05-.25.05-.35"/><path class="cls-3" d="m59.82,64.58c3.14,0,5.68,2.54,5.68,5.68s-2.49,5.63-5.68,5.63-5.63-2.49-5.63-5.63,2.49-5.68,5.63-5.68m0,8.78c1.75,0,3.14-1.4,3.14-3.09s-1.45-3.14-3.14-3.14-3.14,1.45-3.14,3.14c.05,1.7,1.45,3.09,3.14,3.09"/><path class="cls-3" d="m70.09,65.03c0-.15.15-.3.3-.3h1.94c.2,0,.3.15.3.3v6.33c0,1.1.8,1.99,1.94,1.99s1.94-.9,1.94-1.99v-6.33c0-.15.15-.3.3-.3h1.94c.15,0,.3.15.3.3v6.48c0,2.39-2.05,4.39-4.49,4.39s-4.49-1.99-4.49-4.39"/><path class="cls-3" d="m84.26,65.03c0-.15.1-.3.3-.3h4.69c1.9,0,3.44,1.5,3.44,3.39,0,1.45-.95,2.59-2.34,3.14l2.14,3.99c.15.2,0,.45-.25.45h-2.09c-.1,0-.2-.05-.25-.15l-2.04-4.14h-1.1v3.99c0,.15-.15.3-.3.3h-1.85c-.2,0-.3-.15-.3-.3m4.74-5.98c.65,0,1.2-.6,1.2-1.25s-.55-1.2-1.2-1.2h-2.34v2.44h2.34Z"/><path class="cls-3" d="m97.47,64.88c0-.15.15-.3.3-.3h.4l6.23,6.03v-5.59c0-.15.15-.3.3-.3h1.9c.15,0,.3.15.3.3v10.57c0,.15-.15.3-.3.3h-.2s-.2-.05-.25-.1l-6.18-6.23v5.83c0,.15-.1.3-.3.3h-1.85c-.15,0-.3-.15-.3-.3"/><path class="cls-3" d="m111.98,65.03c0-.15.15-.3.3-.3h6.53c.2,0,.3.15.3.3v1.7c0,.15-.15.3-.3.3h-4.39v1.94h3.59c.2,0,.3.15.3.3v1.7c0,.15-.15.3-.3.3h-3.59v2.09h4.39c.2,0,.3.15.3.3v1.7c0,.15-.15.3-.3.3h-6.53c-.15,0-.3-.15-.3-.3"/><path class="cls-3" d="m125.89,70.42l-3.49-5.24c-.1-.2,0-.45.25-.45h2.05c.15,0,.2.1.25.15l2.19,3.19,2.14-3.19s.15-.15.25-.15h2.04c.25,0,.4.25.25.45l-3.54,5.24v4.99c0,.15-.15.3-.3.3h-1.89c-.2,0-.3-.15-.3-.3"/><path class="cls-3" d="m45.76,87.87v-7.48s.05-.1.05-.15c.05-.05.1-.05.15-.05h.45s.1,0,.15.05c.05.05.05.1.05.15v6.93h3.24s.1,0,.15.05c.05.05.05.1.05.15v.35c0,.05,0,.1-.05.15-.05,0-.1.05-.15.05h-3.89s-.1,0-.15-.05c-.05-.05-.05-.1-.05-.15"/><path class="cls-3" d="m51.29,88.07s-.15,0-.2-.1c-.05-.05-.05-.1,0-.2l3.44-7.53c.05-.1.1-.15.2-.15h.1c.1,0,.15.05.2.15l3.39,7.53c.05.1.05.15,0,.2s-.1.1-.2.1h-.45c-.1,0-.15-.05-.2-.1l-.85-1.85h-3.99l-.8,1.85s-.1.1-.2.1m1.35-2.64h3.39l-1.65-3.69h-.1l-1.65,3.69Z"/><path class="cls-3" d="m60.47,87.87v-6.88h-1.94s-.1,0-.15-.05c-.05-.05-.05-.1-.05-.15v-.35c0-.05,0-.1.05-.15.05-.05.1-.05.15-.05h4.79s.1,0,.15.05c.05.05.05.1.05.15v.35s0,.1-.05.15c-.05.05-.1.05-.15.05h-1.94v6.93s0,.1-.05.15c-.05.05-.1.05-.15.05h-.45s-.1,0-.15-.05c-.1-.1-.1-.15-.1-.2"/><path class="cls-3" d="m65.31,87.87v-7.48s0-.1.05-.15c.05-.05.1-.05.15-.05h.45s.1,0,.15.05c.05.05.05.1.05.15v7.48c0,.05-.05.1-.05.15-.05.05-.1.05-.15.05h-.45s-.1,0-.15-.05c-.05-.05-.05-.1-.05-.15"/><path class="cls-3" d="m68.8,87.87v-7.58c0-.05.05-.1.05-.15.05-.05.1-.05.15-.05h.3l5.09,6.33v-5.98c0-.05,0-.1.05-.15.05-.05.1-.05.15-.05h.4s.1,0,.15.05c.05.05.05.1.05.15v7.58s0,.1-.05.15c-.05.05-.1.05-.15.05h-.2l-5.19-6.43v6.13s0,.1-.05.15c-.05,0-.1.05-.15.05h-.4s-.1,0-.15-.05c0-.1-.05-.15-.05-.2"/><path class="cls-3" d="m79.37,88.07c-.1,0-.15,0-.2-.1-.05-.05-.05-.1,0-.2l3.44-7.58c.05-.1.1-.15.2-.15h.1c.1,0,.15.05.2.15l3.39,7.58c.05.1.05.15,0,.2-.05.05-.1.1-.2.1h-.45c-.1,0-.15-.05-.2-.1l-.8-1.85h-4.04l-.85,1.85s-.1.1-.2.1m1.4-2.64h3.39l-1.65-3.69h-.1l-1.65,3.69Z"/><path class="cls-3" d="m87.95,87.82l1.5-7.53c0-.1.1-.15.2-.15h.2c.1,0,.2.05.2.15l2.24,6.18h.05l2.19-6.18c0-.1.1-.15.2-.15h.2c.1,0,.2.05.2.15l1.45,7.53c.05.2,0,.25-.2.25h-.45c-.1,0-.2-.05-.2-.15l-1-5.78h-.05l-2.04,5.93c-.05.1-.1.1-.2.1h-.2c-.1,0-.15-.05-.2-.1l-2.09-5.93h-.05l-1,5.78s-.05.05-.1.1c0,.05-.1.05-.15.05h-.45c-.2,0-.3-.1-.25-.25"/><path class="cls-3" d="m99.02,87.87v-7.48s.05-.1.1-.15c.05-.05.1-.05.15-.05h4.44c.05,0,.1,0,.15.05.05.05.05.1.05.15v.35c0,.05,0,.1-.05.15-.05.05-.1.05-.15.05h-3.79v2.74h3.19s.1.05.15.05c.05.05.1.1.1.15v.4s-.05.1-.1.15c-.05.05-.1.05-.15.05h-3.19v2.84h3.74s.1,0,.15.05c.05.05.05.1.05.15v.35c0,.05,0,.1-.05.15-.05,0-.1.05-.15.05h-4.44c-.1,0-.15,0-.15-.05s-.05-.1-.05-.15"/><path class="cls-3" d="m106.05,87.87v-7.48s.05-.1.05-.15c.05-.05.1-.05.15-.05h2.94c.7,0,1.25.25,1.75.7.5.45.75,1.05.75,1.7,0,.5-.15,1-.5,1.4-.3.4-.7.75-1.2.95l1.55,2.84c.05.1.05.15,0,.25-.05.05-.1.1-.2.1h-.55c-.1,0-.15-.05-.2-.1l-1.5-2.99h-2.14v2.89s0,.1-.05.15c-.05,0-.1.05-.15.05h-.45s-.1,0-.15-.05c-.05-.1-.1-.15-.1-.2m.9-3.59h2.19c.45,0,.85-.15,1.15-.5.35-.3.5-.7.5-1.15s-.2-.8-.5-1.1c-.3-.3-.7-.45-1.15-.45h-2.19v3.19Z"/><path class="cls-3" d="m113.83,87.87v-7.48s.05-.1.1-.15c.05-.05.1-.05.15-.05h.45c.05,0,.1,0,.15.05,0,.05.1.1.1.15v7.48c0,.05-.05.1-.1.15-.05.05-.1.05-.15.05h-.45c-.05,0-.1,0-.15-.05-.05-.05-.1-.1-.1-.15"/><path class="cls-3" d="m118.16,87.02c-.8-.8-1.2-1.75-1.2-2.89s.4-2.09,1.2-2.84c.8-.8,1.75-1.2,2.84-1.2,1,0,1.89.35,2.74,1.05.1.1.1.2,0,.3l-.3.3c-.1.1-.2.1-.3,0-.65-.55-1.35-.85-2.14-.85-.9,0-1.6.3-2.24.95-.6.65-.9,1.4-.9,2.29s.3,1.65.9,2.29c.65.65,1.35.95,2.24.95.3,0,.6-.05.9-.15.25-.05.5-.15.65-.25.2-.15.35-.25.65-.45.1-.05.2-.1.25-.05l.35.35s.1.05.05.1c0,.1,0,.15-.05.2-.75.75-1.65,1.1-2.74,1.1-1.15-.05-2.09-.4-2.89-1.2"/><path class="cls-3" d="m124.95,88.07c-.1,0-.15,0-.2-.1-.05-.05-.05-.1,0-.2l3.44-7.58c.05-.1.1-.15.2-.15h.1c.1,0,.15.05.2.15l3.39,7.58v.2s-.1.1-.2.1h-.45c-.1,0-.2-.05-.2-.1l-.85-1.85h-3.99l-.85,1.85s-.1.1-.2.1m1.4-2.64h3.34l-1.65-3.69h-.1l-1.6,3.69Z"/></g></g></g></svg>