<?xml version="1.0" encoding="UTF-8"?><svg id="Layer_1" xmlns="http://www.w3.org/2000/svg" xmlns:xlink="http://www.w3.org/1999/xlink" viewBox="0 0 141.73 141.73"><defs><style>.cls-1{fill:none;}.cls-2{clip-path:url(#clippath);}.cls-3{fill:#fff;}.cls-4{clip-path:url(#clippath-1);}</style><clipPath id="clippath"><rect class="cls-1" x="8.86" y="38.63" width="124.02" height="60.15"/></clipPath><clipPath id="clippath-1"><rect class="cls-1" x="8.86" y="38.63" width="124.02" height="60.15"/></clipPath></defs><g id="Layer_1-2"><g class="cls-2"><g class="cls-4"><path class="cls-3" d="m36.27,86.37c-.33-.35-.71-.62-1.14-.81-.44-.19-.9-.28-1.4-.28-.37,0-.71.05-1.01.15-.3.1-.57.23-.8.38-.23.16-.43.32-.6.5-.17.18-.3.36-.39.53v-2.6c0-.94.01-1.68.03-2.23.02-.55.04-.95.04-1.22s-.06-.46-.17-.57c-.11-.11-.25-.17-.41-.17-.1,0-.28.02-.53.07-.25.05-.52.1-.8.17-.28.06-.56.13-.84.2-.27.07-.48.13-.63.17-.09.02-.16.07-.19.13-.03.06-.05.13-.05.2s.02.13.07.19c.05.06.12.09.21.09h.78c.22,0,.39.07.51.2s.2.33.25.58c.05.26.08.57.1.93.01.37.02.78.02,1.24v8.31c0,.45-.02.79-.05,1-.04.21-.05.41-.05.6,0,.24.11.37.33.37.16,0,.32-.05.46-.15.14-.1.38-.25.71-.46.1.08.24.16.39.24.16.07.32.14.5.19.17.05.35.1.53.13.18.03.35.05.51.05.69,0,1.31-.12,1.88-.35.57-.23,1.06-.57,1.47-1.01.41-.44.73-.98.97-1.63.23-.64.35-1.38.35-2.2,0-.63-.09-1.19-.27-1.69-.18-.5-.43-.92-.76-1.28m-1.07,5.07c-.13.46-.32.85-.57,1.18-.24.33-.54.59-.88.77-.34.18-.72.27-1.14.27-.55,0-.96-.12-1.25-.37-.29-.24-.44-.66-.44-1.24v-4.01c.19-.41.46-.76.83-1.06.37-.3.82-.45,1.35-.45.44,0,.81.1,1.11.3.3.2.53.47.71.79s.3.69.37,1.09c.07.4.11.8.11,1.19,0,.56-.07,1.07-.2,1.52m43.82-22.63c2.73,0,4.86-1.01,6.25-2.31.42-.33.34-.8.04-1.09l-1.72-1.97c-.29-.33-.67-.25-1.09,0-.75.54-1.97,1.05-3.27,1.05-2.43,0-3.9-1.93-4.03-3.65h10.73c.38,0,.76-.29.8-.71.04-.29.08-.84.08-1.13,0-4.53-3.52-7.8-7.84-7.8-4.99,0-8.55,4.07-8.55,8.8s3.56,8.8,8.59,8.8m-.17-13.75c1.59,0,2.93,1.3,3.06,2.85h-6.33c.21-1.59,1.59-2.85,3.27-2.85m-31.34,30.4h-3.55c-.1,0-.18.03-.23.09-.05.06-.07.12-.07.19,0,.08.02.15.07.22.05.06.1.11.17.13.42.08.73.17.95.25.22.09.32.23.32.44,0,.12-.02.23-.07.33l-1.98,5.55-2.06-5.73c-.03-.11-.05-.2-.05-.3,0-.3.3-.49.91-.56.09-.01.16-.05.21-.11.05-.06.07-.14.07-.22s-.03-.15-.08-.21c-.05-.06-.13-.09-.23-.09h-3.66c-.12,0-.2.03-.25.1-.05.06-.08.14-.08.23,0,.08.02.16.07.23.05.07.12.11.21.12.33.02.58.21.77.57s.42.88.71,1.59l2.58,6.34-.61,1.5c-.19.44-.37.75-.56.92-.19.17-.38.26-.57.26s-.38-.03-.54-.1-.29-.18-.38-.34c-.14.07-.26.17-.37.31-.1.14-.16.33-.16.57,0,.31.12.56.37.74.24.18.57.27.98.27.37,0,.71-.1,1.01-.29.3-.19.53-.49.7-.9l3.9-9.58c.14-.34.27-.62.38-.85.12-.23.24-.42.36-.57.12-.15.25-.26.39-.34.14-.08.29-.14.45-.17.08-.02.15-.07.19-.13.05-.06.07-.13.07-.2,0-.08-.03-.15-.08-.21-.05-.06-.14-.09-.25-.09m-8.7-17.07h3.52c.42,0,.8-.38.8-.8v-27.75c0-.42-.38-.8-.8-.8h-3.52c-.42,0-.8.38-.8.8v27.75c0,.42.38.8.8.8m-7.65-.84c.29.59.59.84,1.22.84h3.65c.63,0,.96-.55.71-1.09l-12.91-28.21c-.13-.25-.29-.46-.71-.46h-.42c-.38,0-.59.21-.71.46l-13.04,28.21c-.25.54.08,1.09.71,1.09h3.65c.67,0,1.05-.42,1.22-.84l2.05-4.53h12.53l2.05,4.53Zm-12.53-9.18l4.11-9.22h.12l4.19,9.22h-8.43Zm45.35,32.88l-2.99-1.95,5.48-4.27h-4.16l-5.56,4.44v-4.44h-2.84v9.24h2.84v-1.82l1.98-1.49,3.43,2.28c1.29.87,2.49,1.06,3.34,1.06.77,0,1.26-.17,1.26-.17v-2.16c-1.22.07-2.29-.41-2.78-.73m47.55,3.02h2.84v-9.24h-2.84v9.24Zm-9.74-27.98l.42,1.3c.13.46.42.8.8.8h1.63c.42,0,.8-.38.8-.8v-27.75c0-.42-.38-.8-.8-.8h-3.56c-.42,0-.8.38-.8.8v12.12c-.76-.29-2.06-.75-3.73-.75-4.99,0-8.3,3.9-8.3,8.8s3.48,8.8,8.05,8.8c3.52,0,5.49-2.51,5.49-2.51m-1.34-4.74c-.29,1.01-1.3,2.72-3.52,2.72s-3.82-1.93-3.82-4.27,1.72-4.28,4.07-4.28c2.1,0,3.27.96,3.27.96v4.86Zm6.07,28.92l-6.5-5.44h-2.89v9.24h2.86v-5.56l6.62,5.56h2.66v-9.24h-2.75v5.44Zm25.83-25.73l-3.73-3.52c.55-1.01,1.89-3.65,2.6-6.67.08-.42.38-1.34-.71-1.63l-2.31-.67c-.96-.29-1.22.17-1.38,1.05-.29,1.59-.84,3.31-1.51,4.65l-4.82-4.86c.84-.75,5.11-3.31,5.11-7.63,0-3.77-3.23-6.83-7.92-6.83-5.28,0-7.92,3.61-7.92,6.79-.04,2.47,1.17,4.28,2.85,6.04l.88.96v.08c-.75.46-5.78,2.89-5.78,8.43,0,4.28,3.52,7.88,8.84,7.88s8.38-2.68,9.14-3.56l3.02,3.06c.67.67,1.34.59,1.84.13l1.72-1.76c1.01-.96.59-1.42.08-1.93m-14.84-22.17c2.18,0,3.56,1.55,3.56,3.14,0,2.6-2.93,4.02-3.56,4.4l-.92-.92c-1.26-1.34-2.22-2.31-2.18-3.77,0-1.55,1.17-2.85,3.1-2.85m-.42,21.76c-2.47,0-4.4-1.63-4.4-3.94,0-3.35,2.89-4.74,3.56-5.15l6.25,6.62c-.63.71-2.26,2.47-5.41,2.47m-23.99,20.83c-.96-.3-2.43-.53-4.53-.53s-3.55.23-4.51.53c-1.88.61-2.05,2.19-2.07,4.47,0,2.26.14,3.86,2.05,4.47.96.3,2.43.53,4.53.53s3.58-.23,4.54-.53c1.91-.61,2.05-2.2,2.05-4.47-.01-2.28-.18-3.86-2.07-4.47m-1.99,6.72c-.56.12-1.32.21-2.54.21s-1.93-.09-2.49-.21c-1.05-.23-1.2-.71-1.2-2.23,0-1.75.15-2.11,1.2-2.33.56-.11,1.28-.2,2.49-.2s1.97.09,2.54.2c1.05.21,1.2.58,1.2,2.33,0,1.52-.15,2-1.2,2.23m-21.74-36.27l1.55-2.72c.5-1.05-1.26-1.68-3.23-1.68-2.6,0-4.15,1.76-4.74,2.6l-.59-1.63c-.13-.34-.38-.54-.75-.54h-1.59c-.42,0-.8.34-.8.8v15.17c0,.42.38.8.8.8h3.23c.59,0,.96-.21.96-.8v-10.14c.29-.59,1.3-1.72,2.98-1.72.46,0,1.09.21,1.22.25.34.17.75,0,.97-.38m7.93,34.92c0,.79-.32,1.12-.83,1.29-.53.17-1.41.26-2.36.26s-1.79-.09-2.32-.26c-.52-.17-.84-.5-.84-1.29v-5.48h-2.93v6.03c0,.68.05,1.16.21,1.57.76,1.81,3.98,1.99,5.89,1.99s5.12-.18,5.88-1.99c.17-.41.21-.88.21-1.57v-6.03h-2.92v5.48Zm-19.59-35.29v-2.81c0-.46-.33-.8-.8-.8h-4.19v-4.53c0-2.43,1.01-3.81,2.81-3.81.92,0,1.93.5,2.47.84.38.21.84.13,1.01-.21l1.43-2.68c.17-.29.08-.75-.17-.96-.76-.67-2.72-1.63-4.95-1.63-4.44,0-7.84,2.93-7.84,8.47v4.53h-1.43c-.46,0-.8.34-.8.8v2.81c0,.42.34.8.8.8h1.43v11.57c0,.42.38.8.8.8h3.65c.42,0,.8-.38.8-.8v-11.57h4.19c.46,0,.8-.38.8-.8"/></g></g></g></svg>