<svg xmlns="http://www.w3.org/2000/svg" width="150" height="59"><path fill="#FFF" d="M12.67 24.16H.41c.59 3.15 1.9 6.04 3.78 8.5l8.48-8.5zm3.91 3.92L8.1 36.57a20.27 20.27 0 008.48 3.77V28.08zm0-27.69c-3.14.6-6.02 1.92-8.48 3.78l8.48 8.48V.39zM4.18 8.1a20.2 20.2 0 00-3.77 8.48h12.26L4.18 8.08zm12.4 10.43H.1a19.85 19.85 0 000 3.8h16.5v-3.8zm0 5.64h-1.54l-9.78 9.79c.49.54 1 1.05 1.55 1.54l9.77-9.78v-1.55zm0-7.59v-1.55L6.81 5.24c-.55.5-1.06 1-1.55 1.55l9.78 9.78h1.54zm116.33.41a26.8 26.8 0 001.22-4.1h.06c.25 1.12.66 2.5 1.28 4.2l2.73 7.77h-8.23l2.94-7.87zm-7.96 21.4l3.12-8.47h12.07l3.33 8.48H150l-13.54-33.8h-4.65l-13.08 33.8h6.22zm-72.4-13.53l2.94-7.87c.56-1.6 1.02-2.92 1.22-4.1h.06c.25 1.12.66 2.5 1.28 4.2l2.73 7.77h-8.22zM54.4 4.58l-13.07 33.8h6.2l3.14-8.47h12.06l3.34 8.48h6.52L59.04 4.59h-4.65zm53.46 33.8h6.26V9.79h9l2.01-5.19H98.06v5.18h9.79V38.4zm-22.2-5.22h-3.94v-9.34h4.66c3.49 0 5.49 1.8 5.49 4.42 0 3.07-2.05 4.92-6.2 4.92zM81.72 9.83h3.49c2.97 0 4.61 1.8 4.61 4.2 0 2.82-2.05 4.61-4.83 4.61h-3.27V9.83zm10.25 10.66v-.1c2.72-1.64 4.05-3.8 4.05-7.03 0-4.1-3.12-8.77-9.95-8.77H75.5v33.8h10.72c8.5 0 12-5.38 12-10.2 0-4.11-2.36-6.83-6.26-7.7zM22.6 29.9h3.7a24.81 24.81 0 01-3.69 6.75V29.9zm0-7.62h5.3c-.1 1.3-.26 2.57-.51 3.8H22.6v-3.8zm0-7.63h4.76c.26 1.23.44 2.5.53 3.81H22.6v-3.81zm0-10.47a24.84 24.84 0 013.67 6.65H22.6V4.2zm11.11 6.65h-3.44a24.92 24.92 0 00-2.6-5.12 16.42 16.42 0 016.04 5.12zm2.06 3.82c.45 1.2.76 2.48.92 3.81H31.9c-.1-1.3-.28-2.58-.54-3.81h4.4zm.03 11.44h-4.4c.25-1.24.42-2.51.5-3.81h4.8c-.15 1.32-.45 2.6-.9 3.8zm-8.1 9a25 25 0 002.61-5.19h3.47a16.45 16.45 0 01-6.08 5.19zm-9.18 5.65a20.42 20.42 0 100-40.66V40.76zm128.3 9.34c-.95 0-1.7.36-2.46.92l-.19-.75h-1.5v7h1.77v-4.9a3.08 3.08 0 011.77-.74c.9 0 1.04.8 1.04 1.52v4.11h1.77v-4.64c0-1.88-1.14-2.52-2.2-2.52zm-44.9 5.93c-1.09 0-1.72-.91-1.72-2.27 0-1.3.54-2.25 1.66-2.25 1.1 0 1.72.9 1.72 2.25 0 1.31-.56 2.27-1.67 2.27zm-.02-5.93c-1.02 0-1.87.37-2.49 1a3.8 3.8 0 00-1.02 2.7c0 1.13.39 2.09 1.08 2.74.6.56 1.44.87 2.41.87 1.05 0 1.91-.37 2.53-1 .65-.66 1-1.6 1-2.67a3.8 3.8 0 00-.94-2.63c-.62-.64-1.5-1-2.57-1zm36.18 5.93c-1.08 0-1.72-.91-1.72-2.27 0-1.3.55-2.25 1.67-2.25 1.1 0 1.72.9 1.72 2.25 0 1.31-.56 2.27-1.67 2.27zm-.02-5.93c-1.02 0-1.86.37-2.48 1a3.8 3.8 0 00-1.02 2.7c0 1.13.38 2.09 1.08 2.74.6.56 1.43.87 2.41.87 1.05 0 1.9-.37 2.53-1 .65-.66.99-1.6.99-2.67a3.8 3.8 0 00-.93-2.63 3.5 3.5 0 00-2.58-1zm-5.84-3.06c-.6 0-1.1.49-1.1 1.07 0 .6.5 1.08 1.1 1.08.62 0 1.1-.49 1.1-1.08 0-.6-.48-1.07-1.1-1.07zm-.9 10.22h1.78v-7h-1.77v7zm-3.14-1.28c-.46 0-.67-.26-.67-.8v-3.58h1.66l.52-1.33h-2.18V48.1l-1.77.54v1.6h-1.24v1.34h1.24v4.17c0 .95.49 1.64 1.85 1.64.7 0 1.58-.18 2.25-.6l-.48-1.16c-.28.13-.74.33-1.18.33zm-6.72-.42c-.24.2-.64.44-1.26.44-.74 0-1.14-.4-1.14-.97 0-.6.43-.92 1.4-.95l1-.03v1.51zm1.8-2.91c0-1.84-1.04-2.55-2.77-2.55-.94 0-1.81.15-2.74.77l.58 1.11a3.39 3.39 0 011.75-.51c.79 0 1.38.32 1.38 1.18v.18l-1.24.04c-1.8.06-2.93.84-2.93 2.29 0 1.38 1 2.25 2.3 2.25a2.9 2.9 0 002.02-.77l.3.62h1.49c-.1-.32-.13-.84-.13-1.85v-2.76zm-9.33 4.61h1.78v-7h-1.78v7zm.9-10.22c-.62 0-1.1.49-1.1 1.07 0 .6.48 1.08 1.1 1.08.61 0 1.1-.49 1.1-1.08 0-.6-.49-1.07-1.1-1.07zm-4.52 8.94c-1.4 0-2.04-1.07-2.04-2.27 0-1.3.86-2.24 2.06-2.24.72 0 1.27.2 1.75.57l.03-1.45a3.72 3.72 0 00-2-.49 3.56 3.56 0 00-3.61 3.7c0 1.97 1.16 3.61 3.44 3.61.96 0 1.9-.37 2.47-.75l-.44-1.17c-.5.28-1 .49-1.66.49zm-16.4-3.9c0-.4.39-.6 1-.6.75 0 1.38.22 1.98.46v-1.48a5.81 5.81 0 00-2.04-.36c-1.7 0-2.66.86-2.66 2.08 0 2.37 3.23 1.9 3.23 3.16 0 .47-.47.74-1.2.74-.7 0-1.36-.27-1.88-.62l-.57 1.3c.57.35 1.43.65 2.59.65 1.5 0 2.84-.6 2.84-2.17 0-2.41-3.29-2.04-3.29-3.16zm-6.5 0c0-.4.38-.6.99-.6.75 0 1.39.22 1.98.46v-1.48a5.8 5.8 0 00-2.04-.36c-1.69 0-2.65.86-2.65 2.08 0 2.37 3.22 1.9 3.22 3.16 0 .47-.47.74-1.2.74-.7 0-1.35-.27-1.87-.62l-.58 1.3c.58.35 1.44.65 2.59.65 1.5 0 2.84-.6 2.84-2.17 0-2.41-3.29-2.04-3.29-3.16zm-8.64 1.28l.84-2.26c.16-.46.3-.85.36-1.19h.01c.08.33.2.73.37 1.22l.79 2.23h-2.37zm.55-5.89l-3.79 9.8h1.8l.9-2.45h3.47l.96 2.44h1.88l-3.92-9.79h-1.3zM69.05 55.8c-.37 0-.47-.2-.47-.72v-8.3H66.8v9.08c0 .87.45 1.54 1.61 1.54.4 0 .86-.07 1.38-.36l-.22-1.31c-.25.06-.4.07-.52.07zm-8.18-2.84c0-.77.52-1.53 1.38-1.53.9 0 1.31.78 1.34 1.53h-2.72zm1.42-2.87c-2 0-3.18 1.66-3.18 3.66 0 1.88 1.04 3.65 3.48 3.65a4.5 4.5 0 002.54-.77l-.43-1.14c-.6.33-1.15.5-1.82.5-1.08 0-1.94-.74-1.96-1.77h4.5v-.52c0-2.17-1.24-3.6-3.13-3.6zm-7.04 4.93h-.03l-1.75-4.76H51.7l2.86 7.04h1.3l2.92-7.04h-1.76l-1.77 4.76zm-6.42.53c-.24.2-.64.44-1.26.44-.74 0-1.14-.4-1.14-.97 0-.6.43-.92 1.4-.95l1-.03v1.51zm1.8-2.91c0-1.84-1.05-2.55-2.78-2.55-.93 0-1.8.15-2.73.77l.57 1.11a3.4 3.4 0 011.76-.51c.79 0 1.38.32 1.38 1.18v.18l-1.25.04c-1.78.06-2.92.84-2.92 2.29 0 1.38 1 2.25 2.29 2.25a2.9 2.9 0 002.03-.77l.3.62h1.48a7.1 7.1 0 01-.13-1.85v-2.76zM41.3 51l-.21-.74h-1.5v7h1.78V52.3c.53-.46.92-.62 1.36-.62.2 0 .52.04.81.22l.67-1.51c-.27-.2-.65-.3-1-.3-.66 0-1.2.27-1.91.9zm-9.32-3.5V49h2.82v8.25h1.8V49h2.67l.43-1.5h-7.72zm-10.1 5.46c0-.77.52-1.53 1.38-1.53.9 0 1.31.78 1.34 1.53h-2.72zm1.42-2.87c-2 0-3.18 1.66-3.18 3.66 0 1.88 1.04 3.65 3.48 3.65a4.5 4.5 0 002.54-.77l-.43-1.14c-.6.33-1.15.5-1.82.5-1.07 0-1.93-.74-1.96-1.77h4.5v-.52c0-2.17-1.23-3.6-3.13-3.6zm-6.64 0c-.9 0-1.67.4-2.33.92v-4.23h-1.77v10.47h1.77V52.4c.48-.4 1.1-.74 1.7-.74.95 0 1.07.74 1.07 1.52v4.08h1.79v-4.58c0-2.06-1.15-2.58-2.23-2.58zM3.95 49h2.83v8.25h1.8V49h2.67l.43-1.5H3.96V49z"/></svg>