<svg xmlns="http://www.w3.org/2000/svg" viewbox="0 0 145 36" width="145" height="36"><path fill="#323e48" d="M124.93 0c5.4 0 9.1 3.51 9.1 7.85 0 4.95-4.91 7.9-5.88 8.76l5.54 5.58c.77-1.54 1.4-3.51 1.73-5.34.2-1.01.48-1.54 1.6-1.2l2.64.77c1.25.33.91 1.4.82 1.87a32.8 32.8 0 01-2.99 7.66l4.28 4.04c.58.58 1.06 1.1-.1 2.22l-1.96 2.02c-.58.53-1.35.62-2.12-.15l-3.47-3.51c-.86 1.01-4.23 4.1-10.49 4.1-6.11 0-10.15-4.15-10.15-9.06 0-6.35 5.77-9.15 6.64-9.68v-.1l-1.01-1.1c-1.93-2.02-3.32-4.1-3.28-6.93 0-3.66 3.04-7.8 9.1-7.8zM80.5 14.44a8.83 8.83 0 018.9 10.26.93.93 0 01-.91.81H76.17a4.59 4.59 0 004.62 4.2c1.5 0 2.89-.59 3.75-1.21.48-.29.92-.39 1.25 0l1.98 2.26c.33.34.43.87-.05 1.25a10.36 10.36 0 01-7.17 2.65c-5.78 0-9.87-4.57-9.87-10.1 0-5.45 4.1-10.12 9.82-10.12zM109.96.48c.48 0 .91.44.91.92v31.87c0 .48-.43.91-.91.91h-1.88c-.43 0-.77-.39-.91-.91l-.48-1.5s-2.27 2.9-6.3 2.9c-5.25 0-9.25-4.58-9.25-10.12 0-5.63 3.8-10.1 9.53-10.1 1.92 0 3.42.52 4.28.86V1.4c0-.48.44-.92.92-.92h4.09zM16.36 0c.48 0 .68.24.82.53L32 32.93c.3.62-.1 1.25-.81 1.25h-4.2c-.71 0-1.05-.29-1.39-.96l-2.36-5.2H8.85l-2.35 5.2c-.2.48-.63.96-1.4.96H.91c-.72 0-1.1-.63-.81-1.25L15.06.53c.15-.29.39-.53.82-.53h.48zm22.07.48c.48 0 .92.44.92.92v31.87c0 .48-.44.91-.92.91h-4.04a.95.95 0 01-.92-.91V1.4c0-.48.44-.92.92-.92h4.04zM53.35 0c2.55 0 4.81 1.1 5.68 1.88.29.24.38.77.2 1.1l-1.64 3.09c-.2.38-.73.48-1.16.24a6.01 6.01 0 00-2.84-.97c-2.07 0-3.22 1.6-3.22 4.38v5.2h4.81c.53 0 .91.39.91.92v3.22c0 .49-.38.92-.91.92h-4.81v13.28c0 .49-.44.92-.92.92h-4.18a.95.95 0 01-.92-.92V19.98h-1.64a.91.91 0 01-.9-.92v-3.22c0-.53.38-.92.9-.92h1.64v-5.2c0-6.35 3.9-9.72 9-9.72zm14.2 14.44c2.26 0 4.28.72 3.7 1.93l-1.77 3.13c-.24.43-.72.62-1.11.43a5.18 5.18 0 00-1.4-.29 3.9 3.9 0 00-3.41 1.98v11.65c0 .67-.44.9-1.11.9h-3.7a.95.95 0 01-.92-.9V15.84c0-.53.43-.92.91-.92h1.83c.44 0 .72.24.87.63l.67 1.88a6.72 6.72 0 015.44-2.99zm55.74 4.62c-.76.48-4.09 2.07-4.09 5.92 0 2.65 2.22 4.53 5.06 4.53a7.9 7.9 0 006.2-2.84l-7.17-7.6zm-21.9.58c-2.7 0-4.67 2.22-4.67 4.91 0 2.7 1.83 4.91 4.38 4.91s3.71-1.97 4.05-3.13v-5.58s-1.35-1.1-3.76-1.1zm-85.32-7.56h-.14l-4.72 10.6h9.68l-4.82-10.6zm64.29 6.8a3.79 3.79 0 00-3.76 3.27h7.27a3.6 3.6 0 00-3.51-3.28zm44.38-14.35c-2.21 0-3.56 1.49-3.56 3.27-.05 1.68 1.06 2.8 2.5 4.33l1.06 1.06c.72-.43 4.09-2.07 4.09-5.05 0-1.83-1.59-3.61-4.1-3.61z"/></svg>
