<svg xmlns="http://www.w3.org/2000/svg" width="110" height="53">
  <path fill="#323E48" d="M.07 25.33L11.5.79c.11-.22.3-.4.63-.4h.36c.37 0 .52.18.63.4l11.32 24.54c.22.47-.08.95-.63.95h-3.2c-.55 0-.8-.22-1.06-.73l-1.8-3.94H6.76l-1.8 3.94a1.1 1.1 0 01-1.06.73H.7c-.55 0-.85-.48-.63-.95zm15.88-7.77l-3.68-8.02h-.1l-3.6 8.02h7.38zM25.56 1.45c0-.37.33-.7.7-.7h3.09c.36 0 .7.33.7.7v24.13c0 .37-.34.7-.7.7h-3.1a.72.72 0 01-.69-.7V1.45zM33.88 15.52h-1.27a.7.7 0 01-.7-.7v-2.44c0-.4.3-.69.7-.69h1.27V7.75c0-4.8 2.97-7.35 6.86-7.35 1.95 0 3.68.84 4.34 1.42.22.18.3.58.15.84l-1.25 2.32c-.15.3-.56.37-.89.19a4.62 4.62 0 00-2.16-.73c-1.58 0-2.47 1.2-2.47 3.31v3.94h3.68c.4 0 .7.3.7.7v2.44a.7.7 0 01-.7.69h-3.68v10.06c0 .37-.33.7-.7.7h-3.2a.72.72 0 01-.69-.7V15.52zM44.16 12.38c0-.4.33-.69.7-.69h1.4c.32 0 .54.18.65.48l.52 1.42a5.14 5.14 0 014.15-2.26c1.73 0 3.27.54 2.83 1.46l-1.36 2.36c-.18.33-.55.48-.84.33-.11-.03-.66-.22-1.07-.22-1.47 0-2.35.99-2.6 1.5v8.82c0 .51-.34.7-.85.7h-2.83a.72.72 0 01-.7-.7v-13.2zm17.31-1.05a6.71 6.71 0 016.8 7.76.7.7 0 01-.7.62h-9.4a3.5 3.5 0 003.52 3.17 5.2 5.2 0 002.87-.9c.36-.23.7-.3.95 0l1.5 1.7c.27.26.34.66-.03.95a7.95 7.95 0 01-5.47 2 7.46 7.46 0 01-7.54-7.65 7.5 7.5 0 017.5-7.65zm2.57 5.83a2.74 2.74 0 00-2.68-2.48 2.89 2.89 0 00-2.87 2.48h5.55zm12.83-5.83c1.47 0 2.61.4 3.27.65V1.45c0-.37.33-.7.7-.7h3.12c.37 0 .7.33.7.7v24.13c0 .37-.33.7-.7.7h-1.43c-.33 0-.59-.3-.7-.7l-.36-1.13s-1.73 2.19-4.82 2.19c-4 0-7.06-3.46-7.06-7.66 0-4.26 2.9-7.65 7.28-7.65m.33 11.37a3.2 3.2 0 003.09-2.37V16.1s-1.03-.84-2.87-.84a3.6 3.6 0 00-3.56 3.72c0 2.05 1.4 3.72 3.34 3.72M91.73 12.46v-.08l-.78-.83c-1.47-1.55-2.54-3.1-2.5-5.25 0-2.78 2.32-5.91 6.95-5.91 4.11 0 6.93 2.66 6.93 5.94 0 3.76-3.75 5.98-4.48 6.64l4.22 4.23a15.9 15.9 0 001.33-4.05c.14-.77.36-1.17 1.2-.91l2.03.58c.96.26.7 1.06.63 1.42a24.72 24.72 0 01-2.28 5.8l3.27 3.06c.44.44.8.84-.08 1.68l-1.5 1.53c-.44.4-1.03.48-1.62-.1l-2.65-2.67c-.66.77-3.23 3.1-8 3.1-4.67 0-7.76-3.14-7.76-6.85 0-4.82 4.41-6.93 5.07-7.33m3.16 10.28a6.05 6.05 0 004.74-2.15l-5.47-5.76c-.6.36-3.13 1.56-3.13 4.48 0 2 1.7 3.43 3.86 3.43m3.5-16.19c0-1.38-1.22-2.73-3.13-2.73-1.7 0-2.72 1.13-2.72 2.48-.03 1.27.81 2.1 1.91 3.28l.8.8c.56-.33 3.13-1.57 3.13-3.83M20.84 49.01c-.14 0-.3-.01-.45-.04a5.04 5.04 0 01-.9-.28 1.87 1.87 0 01-.35-.2c-.28.17-.49.3-.61.4a.72.72 0 01-.4.12c-.2 0-.3-.1-.3-.32 0-.16.02-.33.05-.52.03-.19.04-.48.04-.87v-7.22l-.01-1.09a4.97 4.97 0 00-.09-.8 1.1 1.1 0 00-.22-.51c-.1-.12-.25-.18-.44-.18h-.69c-.08 0-.14-.02-.18-.07a.26.26 0 01-.06-.17c0-.06.01-.12.04-.17a.3.3 0 01.17-.12 11.68 11.68 0 011.3-.32 18.5 18.5 0 011.16-.2c.14 0 .26.04.36.14.1.1.14.25.14.49 0 .23 0 .58-.03 1.06-.02.47-.03 1.12-.03 1.94v2.25a3.02 3.02 0 011.57-1.23 3.13 3.13 0 012.12.11c.38.16.71.4 1 .7.28.32.5.69.66 1.12a5.59 5.59 0 01-.07 3.39 3.62 3.62 0 01-2.14 2.3c-.5.2-1.04.3-1.64.3zm-1.5-2.15c0 .5.13.86.39 1.08.25.2.62.32 1.1.32a2.12 2.12 0 001.76-.9c.22-.3.38-.64.5-1.04s.18-.84.18-1.32c0-.34-.04-.7-.1-1.04a3.3 3.3 0 00-.33-.95 1.93 1.93 0 00-.62-.68 1.68 1.68 0 00-.97-.27c-.47 0-.86.13-1.18.4a2.6 2.6 0 00-.73.92v3.48zm9.8 4.82c-.14.35-.35.61-.61.78a1.7 1.7 0 01-.89.25c-.35 0-.64-.08-.85-.24a.75.75 0 01-.32-.64c0-.21.04-.38.13-.5a1 1 0 01.32-.27c.09.14.2.24.34.3.14.05.3.08.47.08.18 0 .34-.08.5-.23.17-.15.33-.42.5-.8l.53-1.3L27 43.58c-.25-.62-.46-1.08-.62-1.39-.17-.3-.4-.47-.68-.49a.24.24 0 01-.18-.1.35.35 0 01-.06-.2c0-.08.02-.15.07-.2.04-.06.12-.09.22-.09h3.2c.1 0 .16.03.21.08.05.05.07.1.07.18 0 .07-.02.13-.06.19a.26.26 0 01-.18.1c-.53.06-.8.22-.8.48 0 .08.02.17.05.26l1.8 4.98 1.74-4.83a.68.68 0 00.06-.29c0-.18-.1-.3-.28-.38a4.67 4.67 0 00-.83-.22.3.3 0 01-.16-.12.31.31 0 01-.06-.19c0-.06.02-.11.06-.16.04-.05.11-.08.2-.08h3.12c.1 0 .17.03.22.08a.27.27 0 01.01.35.3.3 0 01-.17.12 1.32 1.32 0 00-.74.45 2.3 2.3 0 00-.32.49c-.1.2-.21.44-.33.74l-3.42 8.33zm16.56-7.22l4.8-3.7h-3.65l-4.87 3.85v-3.86h-2.49v8.04h2.49V47.2l1.74-1.3 3 2c1.13.75 2.19.92 2.93.92.68 0 1.1-.15 1.1-.15V46.8a4.28 4.28 0 01-2.43-.64l-2.62-1.7zm28.16-3.6c-.84-.27-2.13-.46-3.97-.46-1.83 0-3.12.2-3.96.46-1.65.53-1.8 1.9-1.8 3.88 0 1.97.11 3.36 1.79 3.89.84.26 2.13.46 3.97.46 1.85 0 3.14-.2 3.98-.46 1.68-.53 1.8-1.92 1.8-3.89-.02-1.98-.16-3.35-1.81-3.88zM72.1 46.7c-.5.1-1.16.19-2.22.19-1.07 0-1.7-.08-2.19-.19-.92-.2-1.05-.62-1.05-1.94 0-1.52.13-1.84 1.05-2.02.5-.1 1.12-.18 2.19-.18 1.06 0 1.73.08 2.22.18.92.18 1.05.5 1.05 2.02 0 1.32-.13 1.74-1.05 1.94zm13.5-1.22l-5.7-4.73h-2.53v8.04h2.5v-4.84l5.81 4.84h2.33v-8.04h-2.4v4.73zm4.4 3.3h2.49v-8.03H90v8.04zm-30-3.26c0 .7-.28.98-.74 1.13-.46.14-1.23.22-2.06.22-.81 0-1.57-.08-2.04-.22-.45-.15-.73-.44-.73-1.13v-4.77h-2.57V46c0 .6.04 1 .19 1.36.66 1.57 3.49 1.73 5.16 1.73s4.5-.16 5.16-1.73c.14-.36.18-.77.18-1.36v-5.25H60v4.77z"/>
</svg>
