<svg xmlns="http://www.w3.org/2000/svg" width="62" height="62"><path fill="#FFF" d="M51.64 47.91l-.5.63-4.22-3.32.58-.72c.83-1.05 1.9-1.28 3.3-.17 1.76 1.37 1.65 2.56.84 3.58zm-4.02-4.45L45.6 46l5.08 4 1.66-2.08c1.2-1.53 1.14-3.5-.54-4.82-1.23-.97-2.86-1.19-4.18.36zm.3 7.85c-.43.4-.93.8-1.72 1.37l-1.4-1.96.82-.57c.35-.25.69-.44 1-.6-.09-.1-.2-.2-.27-.31-.08-.1-.14-.24-.2-.36-.26.24-.56.5-.9.74l-.82.57-1.17-1.66c.78-.58 1.35-.89 1.87-1.16l-.28-.3-.2-.36-2.96 2.08 3.74 5.27 2.96-2.08c-.1-.1-.2-.2-.27-.3-.08-.12-.14-.25-.2-.37zm-6.75-1.23c-.06-.11-.14-.23-.19-.36-.05-.12-.07-.26-.1-.39l-4.56 1.79c.07.11.14.23.19.35.05.13.07.27.1.4.44-.25.97-.53 1.6-.77l2.14 5.42c.21-.1.42-.22.65-.3.22-.09.45-.15.68-.22l-2.14-5.42c.54-.21 1.09-.35 1.63-.5zm-6.64 7.41c-1.46.14-2.36-.91-2.52-2.52-.14-1.4.35-2.95 1.92-3.1a2 2 0 011.66.71h.13c.05-.35.07-.67.13-1a4.34 4.34 0 00-1.98-.28c-2.06.2-3.66 1.49-3.42 3.95.19 1.93 1.84 3.03 3.87 2.83.63-.06 1.3-.24 1.84-.58l.12-.83-.12-.05c-.4.45-1.04.82-1.63.87zm-9.71-.05l3.57.6c0-.13 0-.27.02-.4s.08-.27.12-.4c-.59-.02-1.23-.08-2.2-.23l.41-2.37.98.16c.42.07.8.17 1.14.28 0-.13 0-.28.02-.41.02-.13.07-.27.11-.4a8.68 8.68 0 01-1.16-.1l-.98-.17.34-2c.96.14 1.59.32 2.15.49 0-.13 0-.28.02-.41.02-.13.07-.27.11-.4l-3.57-.6-1.08 6.36zm-4.38-8.48c-.04.13-.07.27-.12.39-.06.13-.14.24-.2.35.48.14 1.05.31 1.67.58l-2.32 5.35c.22.08.45.14.67.24l.64.32 2.32-5.34c.53.23 1.02.5 1.51.79.04-.13.06-.26.12-.4.05-.11.13-.22.2-.34l-4.5-1.94zm-3.62 1.19c-1.04 1.18-2.5 1.85-3.6.88-1.08-.93-.64-2.28.18-3.21 1.4-1.6 2.65-1.83 3.65-.96 1.07.94.58 2.37-.23 3.29zm.65-3.68c-1.78-1.55-3.83-1.31-5.08.1-1.42 1.63-1.17 3.48.41 4.86 1.76 1.53 3.87 1.28 5.09-.11.96-1.12 1.62-3.07-.42-4.85zm-7.5-4.2l2.19-1.3c.3.5.72 1.08.12 1.6-.16.14-.27.22-.39.29-.84.5-1.5.3-1.93-.6zm2.8 1.78c.56-.33.78-.79.75-1.4-.02-.45-.39-1.04-.61-1.42l-1.03-1.74-5.63 3.29c.14.2.28.39.4.59.12.2.22.42.32.64l2.64-1.54.03.05-.6 1.07-1.15 1.98c.16.23.33.46.48.7.15.26.27.52.4.77l.32-.61c.47-.94.93-1.89 1.45-2.8.61.67 1.42.89 2.23.42zm-2.56-8.11l.16.57c.13.47-.25.98-.99 1.18-.56.15-1.14.07-1.47-.48-.1-.17-.16-.38-.23-.58l2.53-.69zm-.27 3.12c1.03-.28 1.36-1.1 1.01-2.38l-.62-2.24-6.3 1.7c.09.23.18.45.24.68.06.23.1.46.14.7l2.77-.75c.45 1.64 1.12 2.73 2.76 2.29zm49.62-3.18a29.02 29.02 0 01-33.6 23.41A28.92 28.92 0 012.45 25.85a29.02 29.02 0 0133.6-23.42 28.91 28.91 0 0123.52 33.45zM36.38.48A31.02 31.02 0 00.48 25.5a30.91 30.91 0 0025.14 35.76A31.02 31.02 0 0062 30.85 30.95 30.95 0 0036.38.47zm-3.17 37.7c-.5-.09-.91-.07-1.24.07a.89.89 0 00-.58.7c-.06.34.04.63.3.86.26.24.64.4 1.14.5.5.08.9.06 1.23-.07a.9.9 0 00.58-.71.9.9 0 00-.3-.87c-.26-.23-.64-.4-1.13-.48zm-12.37-.71l1.52.27-.53-1.32-1 1.05zm19.96 4.7l-4.22-.74.53-3.02 1.26.23-.45 2.47 2.97.52-.1.55zm-4.91-2.42c-.1.54-.47.9-1.13 1.08-.5.16-1.17.16-2.03 0a4.44 4.44 0 01-1.9-.7c-.55-.39-.78-.86-.69-1.4.1-.55.48-.91 1.14-1.08.5-.16 1.17-.16 2.02 0 .86.15 1.5.38 1.9.7.56.38.79.85.69 1.4zm-6.08-2.08l-1.8-.31-.44 2.47-1.26-.22.44-2.48-1.8-.32.1-.53 4.85.86-.1.53zm-6.92 1.34l-.27-.69-2.22-.4-.52.55-1.3-.23 2.67-2.63 1.42.25 1.58 3.39L22.9 39zm19.92-2.42s-8.13 1-14.07-5.19c-5.95-6.18-6-13.52-2.27-20.24l-4.95-.87L16 41.52l25.14 4.4 1.67-9.33zm.27-1.48l3.64-20.4-9.03-1.6S27.52 18.3 32.41 28a12.85 12.85 0 0010.67 7.1z"/></svg>