<svg xmlns="http://www.w3.org/2000/svg" width="74" height="12"><path fill="#323E48" d="M9.07 5.61L15.7.5h-5.04L3.94 5.82V.49H.5v11.1h3.44v-2.2l2.4-1.79 4.14 2.75a7.22 7.22 0 004.04 1.27c.94 0 1.53-.2 1.53-.2V8.83a5.91 5.91 0 01-3.36-.87L9.07 5.6zM47.93.64A18.97 18.97 0 0042.45 0c-2.52 0-4.3.27-5.46.64-2.27.73-2.48 2.62-2.5 5.36 0 2.72.17 4.63 2.48 5.36 1.16.37 2.95.64 5.48.64 2.56 0 4.34-.27 5.5-.64 2.31-.73 2.48-2.64 2.48-5.36-.02-2.74-.22-4.63-2.5-5.36zm-2.4 8.06c-.69.15-1.6.26-3.08.26-1.47 0-2.33-.11-3.01-.26-1.27-.27-1.45-.86-1.45-2.68 0-2.1.18-2.54 1.45-2.8.68-.12 1.54-.23 3.01-.23 1.47 0 2.39.11 3.07.24 1.27.25 1.45.7 1.45 2.79 0 1.82-.18 2.4-1.45 2.68zm18.63-1.68L56.29.5h-3.5v11.1h3.46V4.9l8.02 6.67h3.21V.5h-3.32v6.53zm6.06 4.56h3.44V.5h-3.44v11.1zm-41.4-4.5c0 .94-.39 1.35-1.01 1.55-.65.2-1.71.3-2.85.3-1.12 0-2.17-.1-2.81-.3-.63-.2-1.02-.6-1.02-1.55V.49H17.6v7.24c0 .82.05 1.39.25 1.88.92 2.17 4.82 2.39 7.14 2.39 2.3 0 6.19-.22 7.1-2.39.2-.5.27-1.06.27-1.88V.5h-3.53v6.59z"/></svg>