<svg xmlns="http://www.w3.org/2000/svg" xmlns:xlink="http://www.w3.org/1999/xlink"><defs><symbol viewBox="0 0 145 36" id="alfred"><path fill="currentColor" fill-rule="evenodd" d="M124.93 0c5.4 0 9.1 3.51 9.1 7.85 0 4.95-4.91 7.9-5.88 8.76l5.54 5.58c.77-1.54 1.4-3.51 1.73-5.34.2-1.01.48-1.54 1.6-1.2l2.64.77c1.25.33.91 1.4.82 1.87a32.8 32.8 0 0 1-2.99 7.66l4.28 4.04c.58.58 1.06 1.1-.1 2.22l-1.96 2.02c-.58.53-1.35.62-2.12-.15l-3.47-3.51c-.86 1.01-4.23 4.1-10.49 4.1-6.11 0-10.15-4.15-10.15-9.06 0-6.35 5.77-9.15 6.64-9.68v-.1l-1.01-1.1c-1.93-2.02-3.32-4.1-3.28-6.93 0-3.66 3.04-7.8 9.1-7.8zM80.5 14.44a8.83 8.83 0 0 1 8.9 10.26.93.93 0 0 1-.91.81H76.17a4.59 4.59 0 0 0 4.62 4.2c1.5 0 2.89-.59 3.75-1.21.48-.29.92-.39 1.25 0l1.98 2.26c.33.34.43.87-.05 1.25a10.36 10.36 0 0 1-7.17 2.65c-5.78 0-9.87-4.57-9.87-10.1 0-5.45 4.1-10.12 9.82-10.12zM109.96.48c.48 0 .91.44.91.92v31.87c0 .48-.43.91-.91.91h-1.88c-.43 0-.77-.39-.91-.91l-.48-1.5s-2.27 2.9-6.3 2.9c-5.25 0-9.25-4.58-9.25-10.12 0-5.63 3.8-10.1 9.53-10.1 1.92 0 3.42.52 4.28.86V1.4c0-.48.44-.92.92-.92h4.09zM16.36 0c.48 0 .68.24.82.53L32 32.93c.3.62-.1 1.25-.81 1.25h-4.2c-.71 0-1.05-.29-1.39-.96l-2.36-5.2H8.85l-2.35 5.2c-.2.48-.63.96-1.4.96H.91c-.72 0-1.1-.63-.81-1.25L15.06.53c.15-.29.39-.53.82-.53h.48zm22.07.48c.48 0 .92.44.92.92v31.87c0 .48-.44.91-.92.91h-4.04a.95.95 0 0 1-.92-.91V1.4c0-.48.44-.92.92-.92h4.04zM53.35 0c2.55 0 4.81 1.1 5.68 1.88.29.24.38.77.2 1.1l-1.64 3.09c-.2.38-.73.48-1.16.24a6.01 6.01 0 0 0-2.84-.97c-2.07 0-3.22 1.6-3.22 4.38v5.2h4.81c.53 0 .91.39.91.92v3.22c0 .49-.38.92-.91.92h-4.81v13.28c0 .49-.44.92-.92.92h-4.18a.95.95 0 0 1-.92-.92V19.98h-1.64a.91.91 0 0 1-.9-.92v-3.22c0-.53.38-.92.9-.92h1.64v-5.2c0-6.35 3.9-9.72 9-9.72zm14.2 14.44c2.26 0 4.28.72 3.7 1.93l-1.77 3.13c-.24.43-.72.62-1.11.43a5.18 5.18 0 0 0-1.4-.29 3.9 3.9 0 0 0-3.41 1.98v11.65c0 .67-.44.9-1.11.9h-3.7a.95.95 0 0 1-.92-.9V15.84c0-.53.43-.92.91-.92h1.83c.44 0 .72.24.87.63l.67 1.88a6.72 6.72 0 0 1 5.44-2.99zm55.74 4.62c-.76.48-4.09 2.07-4.09 5.92 0 2.65 2.22 4.53 5.06 4.53a7.9 7.9 0 0 0 6.2-2.84l-7.17-7.6zm-21.9.58c-2.7 0-4.67 2.22-4.67 4.91 0 2.7 1.83 4.91 4.38 4.91s3.71-1.97 4.05-3.13v-5.58s-1.35-1.1-3.76-1.1zm-85.32-7.56h-.14l-4.72 10.6h9.68l-4.82-10.6zm64.29 6.8a3.79 3.79 0 0 0-3.76 3.27h7.27a3.6 3.6 0 0 0-3.51-3.28zm44.38-14.35c-2.21 0-3.56 1.49-3.56 3.27-.05 1.68 1.06 2.8 2.5 4.33l1.06 1.06c.72-.43 4.09-2.07 4.09-5.05 0-1.83-1.59-3.61-4.1-3.61z" /></symbol><symbol viewBox="0 0 10 10" id="arrow-down-small"><path fill="none" stroke="currentColor" stroke-width="1.6" d="m8 3.5-3 3-3-3" /></symbol><symbol viewBox="0 0 10 10" id="arrow-left"><path d="M1 5h9M5 1 1 5l4 4" stroke="currentColor" fill="transparent" /></symbol><symbol viewBox="0 0 10 10" id="arrow-right"><path d="M0 5h9M5 1l4 4-4 4" stroke="currentColor" fill="transparent" /></symbol><symbol fill="none" viewBox="0 0 21 20" id="arrow-up"><path d="m16.5 8-6 6-6-6" stroke="#fff" stroke-width="2" /></symbol><symbol viewBox="0 0 56 56" id="back"><g fill="none" fill-rule="evenodd" stroke="#FFF" transform="translate(1 1)" stroke-width="2"><circle cx="27" cy="27" r="27" /><path d="m26.42 35.67-9.34-9.34L26.43 17m-8.76 9.26L37 26" /></g></symbol><symbol fill="none" viewBox="0 0 208 22" id="celebrus-safe"><path d="m22.98 14.577-6.669-4.28L28.537.925h-9.275L6.838 10.666V.925H.5v20.283h6.338v-4.002l4.416-3.272 7.659 5.014a13.4 13.4 0 0 0 7.46 2.334 9.664 9.664 0 0 0 2.835-.366V16.18a10.98 10.98 0 0 1-6.227-1.603ZM77.888.025c4.677 0 7.963.5 10.1 1.165h.01c4.204 1.338 4.61 4.84 4.61 9.811v.265c-.012 4.83-.385 8.232-4.58 9.546-2.133.665-5.45 1.165-10.131 1.165-4.682 0-7.968-.5-10.106-1.165-4.27-1.338-4.602-4.805-4.575-9.81.026-5.006.397-8.474 4.602-9.812C69.938.525 73.21.025 77.888.025Zm-39.326.9v12.044c0 1.734.711 2.468 1.864 2.838 1.694.418 3.439.608 5.185.565 1.77.045 3.538-.145 5.256-.565 1.153-.37 1.864-1.1 1.864-2.838V.925h6.51v13.244c0 1.503-.102 2.537-.477 3.437-1.692 3.971-8.847 4.37-13.117 4.37-4.271 0-11.457-.399-13.153-4.37-.371-.9-.473-1.934-.473-3.437V.925h6.541Zm64.849.004 14.509 11.94V.93h6.134v20.283h-5.931l-14.778-12.21v12.21h-6.373V.929h6.439ZM78.506 5.491l-.632.005a28.77 28.77 0 0 0-5.56.434c-2.34.465-2.68 1.27-2.68 5.106v.229c.016 3.157.394 4.184 2.68 4.672a25.62 25.62 0 0 0 5.56.47 26.709 26.709 0 0 0 5.658-.47c2.34-.5 2.677-1.564 2.677-4.901v-.241c-.016-3.63-.386-4.41-2.677-4.865a30.012 30.012 0 0 0-5.657-.434l.631-.005ZM134.129.84h-5.703v20.37h5.703V.84Z" fill="#37424A" /><path d="m201.753 14.47 1.589-2.502a4.06 4.06 0 0 1 .854-1.027c.19-.167.429-.268.682-.288a.652.652 0 0 1 .615.335c.104.168.186.348.244.536a1.34 1.34 0 0 0 1.045-.435c.255-.274.394-.634.389-1.006a1.72 1.72 0 0 0-.389-1.074 1.338 1.338 0 0 0-1.147-.51 2.073 2.073 0 0 0-1.297.41 4.163 4.163 0 0 0-.996 1.127l-2.067 3.294-1.616-4.221a1.338 1.338 0 0 0-.274-.483.607.607 0 0 0-.403-.113 2.01 2.01 0 0 0-1.049.435c-.446.31-.867.655-1.258 1.031-.39.371-.745.778-1.058 1.214-.236.275-.39.61-.442.966a.236.236 0 0 0 .07.204.246.246 0 0 0 .209.066c.165-.03.324-.092.464-.183l.718-.4.721-.396c.141-.091.299-.153.465-.183.102 0 .19.091.274.27l1.793 3.916-1.917 3.172a3.178 3.178 0 0 1-.695.87c-.184.138-.41.211-.641.21a.556.556 0 0 1-.527-.257 1.342 1.342 0 0 1-.151-.683c-.991 0-1.487.446-1.487 1.34.001.383.144.753.403 1.04.317.334.772.507 1.235.47a2.28 2.28 0 0 0 .841-.148c.241-.097.463-.236.655-.41.204-.186.383-.398.531-.63l.518-.796 1.771-2.946 1.771 4.286c.062.175.155.338.274.483a.572.572 0 0 0 .443.16 2.293 2.293 0 0 0 1.235-.408c.416-.271.8-.586 1.146-.94a5.55 5.55 0 0 0 .832-1.08c.169-.244.277-.524.315-.817 0-.213-.093-.322-.275-.322a.897.897 0 0 0-.403.174 17.4 17.4 0 0 0-.593.383c-.208.139-.407.27-.593.383a.897.897 0 0 1-.443.174.496.496 0 0 1-.478-.322l-1.903-4.37Zm-10.496-2.442a2.73 2.73 0 0 1-.713.945 7.51 7.51 0 0 1-1.514.988c-.813.414-1.65.783-2.505 1.105a8.37 8.37 0 0 1 .443-2.38 6.071 6.071 0 0 1 .885-1.671 3.64 3.64 0 0 1 1.111-.98c.34-.198.725-.309 1.12-.321.394-.037.783.104 1.058.383.232.293.349.66.328 1.03-.003.31-.066.616-.186.901h-.027Zm2.382-1.98a2.235 2.235 0 0 0-.607-.804 2.87 2.87 0 0 0-.991-.544 4.28 4.28 0 0 0-1.377-.2c-.805 0-1.6.17-2.333.496a6.018 6.018 0 0 0-2.027 1.475 7.356 7.356 0 0 0-1.448 2.476 10.042 10.042 0 0 0-.553 3.507 6.936 6.936 0 0 0 .287 2.054c.174.588.451 1.142.819 1.636.331.44.752.808 1.235 1.08.471.253 1 .385 1.537.382a6.04 6.04 0 0 0 2.067-.348 7.198 7.198 0 0 0 1.651-.835c.424-.287.798-.64 1.107-1.045.231-.264.373-.593.407-.94a.333.333 0 0 0-.102-.274.352.352 0 0 0-.204-.074.975.975 0 0 0-.478.261c-.217.174-.487.37-.805.583a6.173 6.173 0 0 1-1.134.583 3.85 3.85 0 0 1-1.438.257 2.418 2.418 0 0 1-1.851-.87c-.531-.58-.826-1.493-.885-2.737 1.426-.479 2.612-.914 3.541-1.306a11.954 11.954 0 0 0 2.258-1.21c.48-.316.882-.736 1.173-1.226.232-.44.349-.929.341-1.423a2.357 2.357 0 0 0-.204-.953h.014Zm-11.908-8.646a.643.643 0 0 0-.567-.213 2.005 2.005 0 0 0-.442.065l-.572.135-2.443.57c-.319.067-.478.232-.478.496a.428.428 0 0 0 .111.296.41.41 0 0 0 .318.126h1.005a.986.986 0 0 1 .686.183.922.922 0 0 1 .191.657c0 .083-.031.383-.089.905-.057.522-.137 1.18-.239 1.98-.102.8-.217 1.702-.35 2.703-.132 1-.265 2.019-.398 3.046-.133 1.026-.27 2.066-.403 3.072a506.077 506.077 0 0 0-.354 2.724c-.102.805-.182 1.48-.239 2.01-.058.531-.089.84-.089.94a.432.432 0 0 0 .164.383c.133.08.287.12.443.113.405-.02.805-.091 1.191-.213.508-.14 1.007-.31 1.496-.505.444-.175.875-.379 1.292-.609.372-.205.554-.374.554-.51a.255.255 0 0 0-.124-.256.598.598 0 0 0-.279-.065h-1.678a2.08 2.08 0 0 1-.487-.035.187.187 0 0 1-.137-.209c0-.117.027-.435.084-.979.058-.544.137-1.205.239-2.006.102-.8.213-1.697.337-2.69.124-.991.248-1.997.371-3.024.124-1.027.253-2.027.377-3.01.124-.984.239-1.868.341-2.664.101-.796.181-1.445.239-1.954.057-.509.088-.818.088-.918a.991.991 0 0 0-.137-.557l-.022.013ZM166.569 18.63c.031-.305.076-.679.124-1.127.049-.448.111-.927.177-1.45.067-.522.124-1.018.177-1.496.054-.479.098-.897.138-1.254.04-.356.07-.596.088-.73.337-.031.717-.057 1.147-.075a29.9 29.9 0 0 1 1.221-.021c.386 0 .673 0 1.01.035.315.02.626.088.921.2.273.102.508.283.677.518.194.299.287.65.265 1.005a.433.433 0 0 0 .138.348.497.497 0 0 0 .292.096.42.42 0 0 0 .252-.087.312.312 0 0 0 .084-.261c0-.067.014-.233.04-.497.027-.265.053-.574.089-.926.035-.353.066-.731.101-1.127.036-.397.067-.77.098-1.119.031-.348.066-.648.088-.9.022-.253.04-.436.04-.484a.301.301 0 0 0-.115-.274.45.45 0 0 0-.239-.074.525.525 0 0 0-.274.074.386.386 0 0 0-.177.274 3.083 3.083 0 0 1-.487 1.136 1.923 1.923 0 0 1-.771.61c-.304.124-.627.199-.956.221-.345.026-.704.035-1.071.035-.368 0-.77 0-1.147-.035-.376-.034-.734-.052-1.071-.087l.779-6.962h3.834a2.194 2.194 0 0 1 1.837.805c.457.652.695 1.428.682 2.22.007.125.06.244.15.334.157.14.396.14.553 0a.428.428 0 0 0 .155-.296c0-.196.04-.509.076-.927.035-.417.07-.848.11-1.279.04-.43.076-.814.102-1.149.027-.335.04-.544.04-.609 0-.183-.049-.287-.142-.322a1.4 1.4 0 0 0-.416-.048h-11.39a.297.297 0 0 0-.265.122.504.504 0 0 0-.089.3c-.001.11.03.217.089.31.058.09.156.15.265.16.505.052 1 .167 1.474.344a.636.636 0 0 1 .341.622c0 .048-.022.261-.062.631s-.093.844-.15 1.423a122.41 122.41 0 0 1-.217 1.945l-.253 2.176c-.084.727-.168 1.475-.252 2.176l-.226 1.932c-.066.57-.124 1.04-.177 1.414a7.85 7.85 0 0 0-.075.631 13.31 13.31 0 0 1-.288 1.658 2.594 2.594 0 0 1-.442.966c-.18.227-.421.399-.695.496-.33.112-.672.187-1.018.222a.52.52 0 0 0-.315.213.573.573 0 0 0-.115.335.439.439 0 0 0 .075.235c.049.074.16.11.328.11h8.141c.252 0 .376-.14.376-.436s-.19-.461-.576-.492c-2.121-.098-3.181-.545-3.178-1.34 0-.032.018-.202.053-.51" fill="#AA0B3C" /><path d="M148.73 1.154v20.413" stroke="#37424A" stroke-width=".652" /></symbol><symbol viewBox="0 0 491 593" id="dest-bg-africa"><path fill="none" stroke-linecap="round" stroke-linejoin="round" opacity=".3" stroke="currentColor" stroke-width="3" d="M268 47.23h18.87M267 56.45h91.3m-297.8 0H243M116 20h82M86.5 20h14M173 2h24m159 63.67h9.26M58 65.67h288.26M80.5 29.22H193m-63-18h65.5M48.5 74.9h299.74M69 38.44h137.5M359 74.9h5.24M35 84.11h323.1M61 48h168M26.5 93.33h335.4m-341.4 9.22h347.97M15 111.77h357.27M9.5 120.99h368.55M3.5 130.2h379.9m2.6 9.23H8m-.5 9.22H386m-375.5 9.22H391m-380.5 9.22H398M6.5 176.3h394m7.5 9.23H1.5m4.5 9.22h413.5M4 203.97h423m-413.5 9.22H429M20 222.4h416m-408 9.22h454m-447.5 9.22H479m-436 9.22h431.5M160 259.28h310m-417.5 0h70m48 9.22h295M59 269h14m27 0h14m81.5 8.72h263M195 286.94h254m-254 9.22h243m-244.5 9.22H428m-239 9.22h232.5M193 323.82h221.5M199 333.04h210m-202.5 9.22H405m-192.5 9.22h188m-186 9.22h186m-183 9.22H404m-183 9.22h183.5M218 388.36h189m-182 9.22h186.5M225 406.8h187m-194 9.21h194m60 0h8.5M213 425.24h199.5m56 0h12m-21.5 9.21h20.5m-269.5 0h199.5M207 443.67h195m40 0h34m-269 9.23h179.5m50.5 0h37.5m-37.5 9.21h35.5m-262.5 0h169m62 9.22h26m-249 0h150.5M221 480.55h149.5m66.5 0h26.5M225 489.77h148.5m57.5 0h30.5M229 499h146.5m57 0H460m-225.5 37h115M229 508.21h141.5m62.5 0h22.5m-18 9.01h7.5M239 545h107m-117-27.57h122.5M243 554h96m-87 19h71m-90-46h119m-102 37h81m-80.5 18.57H310m-56.5 8.87h18M451 222h36m-9-9h11" /></symbol><symbol viewBox="0 0 641 500" id="dest-bg-asia"><path fill="none" stroke-linecap="round" stroke-linejoin="round" opacity=".3" stroke="currentColor" stroke-width="3" d="M223 1h51m-78 9h90m112 9h19m-279 0h221M137 29h351m-353 9h464m-43 37h39m-475 0h410m26 9h20m-454 0h405m29 9h21m-454 0h354m80 9h30m-464 0h354m89 9h24m-463 0h360m89 10h15m-444 0h362m-361 9h368m-406 9h411m14 9h11m-439 0h418m16 9h13m-442 0h413m22 10h16m-446 0h404m28 9h18m-444 0h396m31 9h12m-434 0h387m-449 0h14m473 9h9m-429 0h366M5 194h98m452 9h9m-83 0h15m-364 0h323M0 203h112m441 10h14m-78 0h16m-375 0h326M3 213h112m435 9h20m-72 0h17m-490 0h439m76 9h23m-57 0h4m-465 0h426m55 9h23m-508 0h436m50 9h9m-505 0h451M34 259h454m-354 9h354m-449 0h72m40 9h333m-439 0h73m72 9h291m-431 0h77m90 9h260m-421 0h108m72 9h230m-405 0h113m172 10h81m-182 0h70m-248 0h103m180 9h72m-174 0h59m-234 0h84m343 9h8m-154 0h64m-167 0h49m-221 0h64m351 9h15m-150 0h66m-171 0h38m-208 0h45m369 9h14m-135 0h59m-180 0h30m-196 0h26m386 10h15m-138 0h65m-183 0h26m-190 0h6m402 9h18m-143 0h63m-179 0h23m220 9h23m-148 0h51m-166 0h20m223 9h25m-151 0h14m-128 0h7m237 9h23m-148 0h14m124 10h5m-54 0h14m-95 0h14m57 9h30m-93 0h13m40 9h40m-114 0h35m28 9h50m-107 0h16m40 9h46m-97 0h20m84 10h18m-67 0h39m-88 0h25m73 9h20m-65 0h28m-73 0h24m65 9h23m-105 0h14m-6 9h24m-15 9h59m-18 10h14M119 65h490m-490-9h520m-516-8 516-1" /></symbol><symbol viewBox="0 0 560 500" id="dest-bg-china"><path fill="none" stroke-linecap="round" stroke-linejoin="round" opacity=".3" stroke="currentColor" stroke-width="3" d="M425 1h37m-38 8h43m-47 9h51m-55 9h59m-62 8h66m-70 9h87m-90 8h152m-438 0h40m243 9h155m-452 0h54m241 8h157M91 69h68m251 9h148M79 78h81m258 9h140M79 87h81m257 8h131M79 95h82m246 9h131m-459 0h89m227 8h133m-449 0h99m205 9h136M0 121h185m186 8h138M0 129h194m164 9h141M0 138h202m266 8h22m-14 9h6m-135-9h101M0 146h242M6 155h433m-426 9h418m-412 8h403m-397 9h393m-388 8h393m-395 9h403m-405 8h415m-418 9h417m-420 8h413m-413 9h409m-402 9h407m-396 8h400m-389 9h395m-384 8h388m-377 9h382m-371 8h376m-366 9h370m-359 8h365m-249 9h243m-243 9h238m-238 8h233m-233 9h228m-228 8h224m-224 9h219m-227 8h222m-231 9h227m-219 8h214m-140 9h127m-192 0h40m42 9h90m-164 0h23m68 8h53m-137 0h9m89 9h23m-14 60h9m-36 8h36m-32 9h32m-28 8h9" /></symbol><symbol viewBox="0 0 456 445" id="dest-bg-generic"><path fill="none" stroke="currentColor" stroke-width="3" stroke-linecap="round" stroke-linejoin="round" opacity=".25" d="M5 250h196m180 0h73m0-9H5m4 18h440m5-27h-49m-44 0H5m288 0H157M9 268h175m88 0h177M70 223H5m449 0h-91M13 277h435m6-63H306m-167 0H5m12 73h116m127 0h184m-39 0h13m36-83H5m12 92h164m116 0h145M90 195H2m452 0h-39M21 305h216m81 0h118M113 186H9m440 0H134M27 314h170m21 0h217m-74-137H9m22 146h399m19-155h-50m-18 0H51m-16 0H9m26 165h139m52 0h199M72 158H13m352 0H124m324 0h-60M42 342h71m131 0h174M90 149H17m424 0H113M47 351h368m26-211H23m30 220h352M75 131H23m413 0H134M62 369h77m28 0h226M194 122H27m402 0H262M72 379h316M218 112H32m393 0H239M81 388h170m48 0h82m41-285H38m212 294h120M189 94h-22m242-9H283M90 397h146M416 94H43m61 312h252M267 85H53m67 331h211M225 75H63m335 0H272M139.5 425H324M245 66H69m319 0H277m1 368h23.5M225 57H75m306 0H262m-64 386h79m98-395H86m69 386h113m95-395H97m200-10H112m239 0h-43m-66-9H128m203 0h-69m49-9H150m133-9H177" /></symbol><symbol viewBox="0 0 405 500" id="dest-bg-japan"><path fill="none" stroke-linecap="round" stroke-linejoin="round" opacity=".5" stroke="currentColor" stroke-width="3" d="M303 1h10m-9 9h19m-17 9h27m-26 10h37m-37 9h50m35 0h5m-91 9h91m-94 9h95m-95 10h103m-105 9h91m-111 9h84m-93 9h85m-65 9h10m-23 0h-14m64 0h26m-89 10h18m-11 9h23m-23 9h13m-12 9h6m12 0h18m-6 10h6m-25 0h-6m0 9h32m-42 9h46m-41 9h47m-50 9h54m-46 10h48m-49 9h49m-51 9h49m-51 9h47m-50 10h49m-54 9h47m-51 9h44m-51 9h52m-58 9h58m-66 10h64m-73 9h72m-111 9h109m-111 9h110m-115 9h115m-124 10h126m-127 9h131m-21 9h12m-15 9h13m-124-9h107m-194 9h179m-11 10h9m-186 0h167m-32 9h24m-172 0h129m-35 9h41m-44 9h36m-144-9h68m-76 9h38m77 9h28m-94 0h51m-76 0h10m85 10h19m-96 0h59m-119 0h19m38 9h54M5 416h53m20 9h22M0 425h58m23 9h14m-74 0h44m-66 1h12m2 9h53m-41 9h35m-42 9h38m-45 9h42m-38 9h32m-32 10h26m-19 9h11m163-212h11m-5-9h8" /></symbol><symbol viewBox="0 0 231 500" id="dest-bg-vietnam"><path fill="none" stroke-linecap="round" stroke-linejoin="round" opacity=".3" stroke="currentColor" stroke-width="3" d="M71 1h35M62 9h44M0 18h142M4 27h138M8 35h134M12 44h130M17 52h161M21 61h157M25 69h153M30 78h142M34 87h129m-90 8h80m-74 9h67m-64 8h54m-49 9h42m-76 8h70m-70 9h70m-63 8h64m-46 9h46m-34 9h36m-30 8h38m-33 9h39m-32 8h39m-33 9h39m-34 8h40m-33 9h40m-36 8h43m-37 9h41m-35 9h45m-39 8h47m-42 9h51m-45 8h54m-54 9h58m-58 8h62m-62 9h66m-66 8h71m-71 9h71m-71 9h71m-71 8h71m-71 9h71m-71 8h71m-71 9h71m-71 8h71m-71 9h71m-79 8h79m-96 9h97m-111 9h106m-115 8h104m-115 9h106m-123 8h112m-122 9h112m-104 8h94m-87 9h76m-76 8h66m-65 9h55m-55 9h44m-45 8h35m-34 9h26m-27 8h18" /></symbol><symbol viewBox="0 0 30 10" id="drop-high"><path d="M7.78 8.23a3.75 3.75 0 0 1-4.56 0c-1.34-1.1-1.6-2.8-.65-4.14L5.5 0l2.93 4.09c.96 1.34.69 3.04-.65 4.14m10 0a3.75 3.75 0 0 1-4.56 0c-1.34-1.1-1.6-2.8-.65-4.14L15.5 0l2.93 4.09c.96 1.34.69 3.04-.65 4.14m10 0a3.75 3.75 0 0 1-4.56 0c-1.34-1.1-1.6-2.8-.65-4.14L25.5 0l2.93 4.09c.96 1.34.69 3.04-.65 4.14" fill="#323E48" /></symbol><symbol viewBox="0 0 10 10" id="drop-low"><path d="M7.78 8.23a3.75 3.75 0 0 1-4.56 0c-1.34-1.1-1.6-2.8-.65-4.14L5.5 0l2.93 4.09c.96 1.34.69 3.04-.65 4.14" fill="#323E48" /></symbol><symbol viewBox="0 0 20 10" id="drop-medium"><path d="M7.78 8.23a3.75 3.75 0 0 1-4.56 0c-1.34-1.1-1.6-2.8-.65-4.14L5.5 0l2.93 4.09c.96 1.34.69 3.04-.65 4.14m10 0a3.75 3.75 0 0 1-4.56 0c-1.34-1.1-1.6-2.8-.65-4.14L15.5 0l2.93 4.09c.96 1.34.69 3.04-.65 4.14" fill="#323E48" /></symbol><symbol fill="none" viewBox="0 0 32 22" id="flag-bhutan"><path clip-rule="evenodd" d="M29.89 20.917H1.81a.81.81 0 0 1-.81-.811V1.81A.81.81 0 0 1 1.81 1h28.08c.448 0 .812.363.812.81v18.296c0 .447-.364.81-.811.81Z" stroke="#323E48" stroke-width="1.5" stroke-linecap="round" stroke-linejoin="round" /><path d="m2 20 4.5-3m24-16L23 6m-7.08 2c-1.2-4 4.247-3.5 7.08-2.5l-.58 2h-2c-.5.167-.92-.066-.92.5 0 .5 2.5 1.5 3.5 2s-.5.5-1 1-1.5-.5-2.5-.5 0 .086 0 1.5c0 1.5 3.372 2.622 1.92 3-1.92.5-3.5-1.667-4.5-2.5-.5 0-.5 0-2-.5s-1.84.5-1.92 1c-.089.559.5.5 1.42 1 .218.118-.12.5-.92.5s.58 2.5 0 3.5c-.92 0-1.58-1.5-2.08-3-1.5 2.5-9 3.5-5.5 2s4-3 5.5-6S14.5 9.5 16 10s.92 1.333-.08-2Z" stroke="currentColor" stroke-width="1.5" stroke-linecap="round" stroke-linejoin="round" /></symbol><symbol viewBox="0 0 32 22" id="flag-borneo"><g stroke-width="1.5" stroke="currentColor" fill="none" fill-rule="evenodd" stroke-linecap="round" stroke-linejoin="round"><path d="M29.9 20.92H1.8a.81.81 0 0 1-.8-.82V1.8c0-.45.36-.81.81-.81H29.9c.45 0 .81.36.81.81v18.3c0 .44-.36.8-.8.8z" /><path d="m9.02 10.59.74-.44 2.01.84.3-1.84 2.38-.55 1.27-1.93 1.4-.6.5.19.2-.46-.26-.2.27-.31 1.66-2h.63l.93 1.4 2.04 1.03-1.68.48.85.56-1.38.6-.11 1.56.56.78-.1.21-.22.03-.02.43 1.74 1.25-.53.22h-1.35l-.43 1.47.28.27-.14.5-1.58 1.18.37.58-.58 1.46.2.91-.42.32-.27-.69-1.72.78-.12-1.04-2.09-.4-1.66.6-.16-.95-1.94.05-.5-2.32-.7-.05-.77-2.78z" /></g></symbol><symbol fill="none" stroke="currentColor" stroke-width="1.5" stroke-linecap="round" stroke-linejoin="round" viewBox="0 0 32 22" id="flag-botswana"><path d="M29.89 20.917H1.81a.81.81 0 0 1-.81-.811V1.81A.81.81 0 0 1 1.81 1h28.08c.448 0 .812.363.812.81v18.296c0 .447-.364.81-.811.81ZM1 9h30M1 13h30" /></symbol><symbol viewBox="0 0 32 22" id="flag-cambodia"><g stroke-width="1.5" stroke="currentColor" fill="none" fill-rule="evenodd" stroke-linecap="round" stroke-linejoin="round"><path d="M29.9 20.92H1.8a.81.81 0 0 1-.8-.82V1.8c0-.45.36-.81.81-.81H29.9c.45 0 .81.36.81.81v18.3c0 .44-.36.8-.8.8zM1 4.58h29.7M1 17.34h29.7" /><path d="M23.25 13.12h-1.18v-1.17l.44-.43V9.83l-.93.93V8.7l-.75-.35-.75.35v2.07l-.93-.93v1.69l.43.43v1.17h-2.36v-2.18l.49-.5V8.98l-1.06 1.06V7.45l-.8-.39-.8.4v2.58L14 8.98v1.46l.5.5v2.18h-2.4v-1.17l.44-.43V9.83l-.93.93V8.7l-.75-.35-.75.35v2.07l-.92-.93v1.69l.43.43v1.17H8.44v1.73h14.8z" /></g></symbol><symbol viewBox="0 0 32 22" id="flag-china"><g stroke-width="1.5" stroke="currentColor" fill="none" fill-rule="evenodd" stroke-linecap="round" stroke-linejoin="round"><path d="M29.9 20.92H1.8a.81.81 0 0 1-.8-.82V1.8c0-.45.36-.81.81-.81H29.9c.45 0 .81.36.81.81v18.3c0 .44-.36.8-.8.8z" /><path d="M7.83 5.11 8.7 7.8h2.82L9.24 9.46l.87 2.68-2.28-1.66-2.29 1.66.88-2.68L4.13 7.8h2.82zm7.32-1.37L15 4.79l.96.46-1.05.19-.14 1.05-.5-.93-1.05.18.74-.76-.5-.94.95.46zm0 9.21L15 14l.96.47-1.05.18-.14 1.05-.5-.93-1.05.19.74-.77-.5-.93.95.46zm1.97-2.83.32 1.01 1.06.02-.87.6.32 1.02-.85-.63-.87.6.34-1-.85-.63 1.06.01zm1.08-3.44-.47.95.75.75-1.05-.16-.47.95-.18-1.05-1.04-.16.94-.49-.17-1.04.75.74z" /></g></symbol><symbol fill="none" viewBox="0 0 32 22" id="flag-india"><path clip-rule="evenodd" d="M29.89 20.917H1.81a.81.81 0 0 1-.81-.811V1.81A.81.81 0 0 1 1.81 1h28.08c.448 0 .812.363.812.81v18.296c0 .447-.364.81-.811.81Z" stroke="currentColor" stroke-width="1.5" stroke-linecap="round" stroke-linejoin="round" /><path d="M1 6.365h29.702m0 9.187H1" stroke="currentColor" stroke-width="1.5" stroke-linecap="round" stroke-linejoin="round" /><path clip-rule="evenodd" d="M19 11a3 3 0 1 1-6 0 3 3 0 0 1 6 0Z" stroke="currentColor" stroke-width="1.5" stroke-linecap="round" stroke-linejoin="round" /><circle cx="16" cy="11" r="1" fill="currentColor" /></symbol><symbol viewBox="0 0 32 22" id="flag-indonesia"><path stroke-width="1.5" stroke="currentColor" fill="none" stroke-linecap="round" stroke-linejoin="round" d="M29.9 20.92H1.8a.81.81 0 0 1-.8-.82V1.8a.8.8 0 0 1 .81-.81H29.9a.8.8 0 0 1 .81.81v18.3a.8.8 0 0 1-.8.8zM1 10.96h29.7" /></symbol><symbol viewBox="0 0 32 23" id="flag-japan"><g stroke-width="1.5" stroke="currentColor" fill="none" fill-rule="evenodd" stroke-linecap="round" stroke-linejoin="round"><path d="M30.13 21.67H1.7c-.4 0-.71-.37-.71-.81V2.48c0-.45.32-.81.7-.81h28.43c.39 0 .7.36.7.81v18.38c0 .44-.31.81-.7.81z" /><path d="M20.92 11.6a5 5 0 1 1-10 0 5 5 0 0 1 10 0z" /></g></symbol><symbol fill="none" viewBox="0 0 32 22" id="flag-kenya"><path clip-rule="evenodd" d="M29.897 20.917H1.81a.81.81 0 0 1-.81-.811V1.81A.81.81 0 0 1 1.81 1h28.087a.81.81 0 0 1 .81.81v18.296a.81.81 0 0 1-.81.81Z" stroke="currentColor" stroke-width="1.5" stroke-linecap="round" stroke-linejoin="round" /><path d="M1 7.623h11.5M30.708 8H19.5M1 14.261h11.558m18.15 0H19.5" stroke="currentColor" stroke-width="1.5" stroke-linecap="round" stroke-linejoin="round" /><path d="m12.5 4 1 1.5m5 10L20 18m-.5-14-1 1.5m-5 10L12 18" stroke="currentColor" stroke-width="1.5" stroke-linecap="round" /><circle cx="16" cy="11" r="1" fill="currentColor" /><path d="M16 13.5v1.82m0-8.64V8.5" stroke="currentColor" stroke-width="1.5" stroke-linecap="round" stroke-linejoin="round" /><path d="M16 4c-3.018 2.139-7.244 7.933 0 14 7.244-6.067 3.018-11.861 0-14Z" stroke="currentColor" stroke-width="1.5" stroke-linejoin="round" /></symbol><symbol viewBox="0 0 32 22" id="flag-laos"><g stroke-width="1.5" stroke="currentColor" fill="none" fill-rule="evenodd" stroke-linecap="round" stroke-linejoin="round"><path d="M29.9 20.92H1.8a.81.81 0 0 1-.8-.82V1.8c0-.45.36-.81.81-.81H29.9c.45 0 .81.36.81.81v18.3c0 .44-.36.8-.8.8zM1 5.37h29.7m0 11.18H1" /><path d="M19.5 10.96a3.65 3.65 0 1 1-7.3 0 3.65 3.65 0 0 1 7.3 0z" /></g></symbol><symbol viewBox="0 0 32 22" id="flag-malaysia"><g stroke-width="1.5" stroke="currentColor" fill="none" fill-rule="evenodd" stroke-linecap="round" stroke-linejoin="round"><path d="M29.9 20.92H1.8a.81.81 0 0 1-.8-.82V1.8c0-.45.36-.81.81-.81H29.9c.45 0 .81.36.81.81v18.3c0 .44-.36.8-.8.8zM1 12.38h29.7M1 15.23h29.7M1 18.07h29.7M18.64 3.85H30.7M18.64 6.69H30.7M18.64 9.54H30.7m-12.06 2.84V1" /><path d="M7.16 8.85A2.16 2.16 0 1 1 7.7 4.6c.06.02.08-.06.03-.09a2.46 2.46 0 0 0-3.6 1.9 2.47 2.47 0 0 0 3.98 2.21c-.3.15-.62.23-.96.23zm5.07-2.15a1 1 0 1 1-2-.01 1 1 0 0 1 2 0z" /></g></symbol><symbol fill="none" viewBox="0 0 32 22" id="flag-mozambique"><path clip-rule="evenodd" d="M29.897 20.917H1.81a.81.81 0 0 1-.81-.811V1.81A.81.81 0 0 1 1.81 1h28.087a.81.81 0 0 1 .81.81v18.296a.81.81 0 0 1-.81.81Z" stroke="currentColor" stroke-width="1.5" stroke-linecap="round" stroke-linejoin="round" /><path d="m1.352 20.774 16.782-9.816L1.352 1.142M12.5 7.5h18.208m-18.208 7h18.208" stroke="currentColor" stroke-width="1.5" stroke-linecap="round" stroke-linejoin="round" /><path clip-rule="evenodd" d="m6.5 7 .826 2.674H10l-2.163 1.652L8.663 14 6.5 12.348 4.337 14l.826-2.674L3 9.674h2.674L6.5 7Z" stroke="currentColor" stroke-width="1.5" stroke-linecap="round" stroke-linejoin="round" /></symbol><symbol viewBox="0 0 32 22" id="flag-myanmar"><g stroke-width="1.5" stroke="currentColor" fill="none" fill-rule="evenodd" stroke-linecap="round" stroke-linejoin="round"><path d="M29.9 20.92H1.8a.81.81 0 0 1-.8-.82V1.8c0-.45.36-.81.81-.81H29.9c.44 0 .8.36.8.81v18.3c0 .44-.36.8-.8.8z" /><path d="m15.85 14.65-4.32 3 1.53-5.04-4.2-3.18 5.26-.1 1.73-4.98 1.73 4.97 5.27.11-4.2 3.18 1.53 5.04zM1 7.62h13.72m15.99 0H16.99M1 14.26h11.56m18.15 0H19.15" /></g></symbol><symbol fill="none" viewBox="0 0 32 22" id="flag-namibia"><path clip-rule="evenodd" d="M29.89 20.917H1.81a.81.81 0 0 1-.81-.811V1.81A.81.81 0 0 1 1.81 1h28.08c.448 0 .812.363.812.81v18.296c0 .447-.364.81-.811.81Z" stroke="currentColor" stroke-width="1.5" stroke-linecap="round" stroke-linejoin="round" /><path d="M5 20.5 30.15 6.147M10.5 20.5 30 9.5m-29 7L27.273 1.163m-26.2 12.174L22 1" stroke="currentColor" stroke-width="1.5" stroke-linecap="round" stroke-linejoin="round" /><circle cx="5.5" cy="5.5" r="1.25" stroke="currentColor" stroke-width="1.5" /><path d="M5.5 8v-.625m0-3.75V3M3 5.5h.625m3.75 0H8M3.625 7.375 4.5 6.5m2-2 .875-.875m-3.75 0L4.5 4.5m2 2 .875.875" stroke="currentColor" stroke-width="1.5" stroke-linecap="round" /></symbol><symbol fill="none" viewBox="0 0 32 22" id="flag-nepal"><path clip-rule="evenodd" d="M29.897 20.917H1.81a.81.81 0 0 1-.81-.811V1.81A.81.81 0 0 1 1.81 1h28.087a.81.81 0 0 1 .81.81v18.296a.81.81 0 0 1-.81.81Z" stroke="currentColor" stroke-width="1.5" stroke-linecap="round" stroke-linejoin="round" /><path d="M10.542 11.5h10.134L1.352 1.142M20.5 20.5l-10-9" stroke="currentColor" stroke-width="1.5" stroke-linecap="round" stroke-linejoin="round" /><path d="M9 8c0 1.104-1.119 2-2.5 2C5.12 10 4 9.104 4 8" stroke="currentColor" stroke-width="1.5" stroke-linecap="round" stroke-linejoin="round" /><circle cx="6.5" cy="15.5" r="1.25" fill="currentColor" stroke="currentColor" stroke-width="1.5" /><path d="M6.5 18v-.625m0-3.75V13M4 15.5h.625m3.75 0H9m-4.375 1.875L5.5 16.5m2-2 .875-.875m-3.75 0 .875.875m2 2 .875.875" stroke="currentColor" stroke-width="1.5" stroke-linecap="round" /><circle cx="6.5" cy="8.5" r="1.5" fill="currentColor" /></symbol><symbol viewBox="0 0 32 22" id="flag-philippines"><g stroke-width="1.5" stroke="currentColor" fill="none" fill-rule="evenodd" stroke-linecap="round" stroke-linejoin="round"><path d="M29.9 20.92H1.8a.81.81 0 0 1-.8-.82V1.8c0-.45.36-.81.81-.81H29.9c.44 0 .8.36.8.81v18.3c0 .44-.36.8-.8.8z" /><path d="m1.35 20.77 16.78-9.81L1.35 1.14m16.78 9.82h12.58" /><path d="M8.7 10.96a2 2 0 1 1-4.01 0 2 2 0 0 1 4 0z" /></g></symbol><symbol fill="none" viewBox="0 0 32 22" id="flag-rwanda"><path clip-rule="evenodd" d="M29.89 20.917H1.81a.81.81 0 0 1-.81-.811V1.81A.81.81 0 0 1 1.81 1h28.08c.448 0 .812.363.812.81v18.296c0 .447-.364.81-.811.81Z" stroke="currentColor" stroke-width="1.5" stroke-linecap="round" stroke-linejoin="round" /><path d="M1 12.203h29.702m0 4.349H1" stroke="currentColor" stroke-width="1.5" stroke-linecap="round" stroke-linejoin="round" /><path clip-rule="evenodd" d="M26 6.5a2 2 0 1 1-4 0 2 2 0 0 1 4 0Z" stroke="currentColor" stroke-width="1.5" stroke-linecap="round" stroke-linejoin="round" /><path d="M20.5 6.5h1m5 0h1M24 10V9m0-5V3m-2.5 6 .732-.732m3.536-3.536L26.5 4m0 5-.732-.732m-3.536-3.536L21.5 4" stroke="currentColor" stroke-width="1.5" stroke-linecap="round" /></symbol><symbol fill="none" stroke="currentColor" stroke-width="1.5" stroke-linecap="round" stroke-linejoin="round" viewBox="0 0 32 22" id="flag-south-africa"><path d="M29.897 20.917H1.81a.81.81 0 0 1-.81-.811V1.81A.81.81 0 0 1 1.81 1h28.087a.81.81 0 0 1 .81.81v18.296a.81.81 0 0 1-.81.81Z" /><path d="M8.5 20.5 16 14M8.5 1 16 8M1 19.952 10.5 11 1 1.5M16 8h14m-14 6h14" /></symbol><symbol viewBox="0 0 32 22" id="flag-south-korea"><g stroke-width="1.5" stroke="currentColor" fill="none" fill-rule="evenodd" stroke-linecap="round" stroke-linejoin="round"><path d="M29.89 20.64H2.2a.8.8 0 0 1-.8-.8V1.8c0-.44.36-.8.8-.8h27.69c.44 0 .8.36.8.8v18.04a.8.8 0 0 1-.8.8z" /><path d="M20.77 10.8a4.72 4.72 0 1 1-9.45 0 4.72 4.72 0 0 1 9.45 0z" /><path d="M20.63 11.94s-.1-2.22-2.58-2.22c0 0-1.28-.12-2 1.08-.73 1.21-2 1.09-2 1.09-2.5 0-2.59-2.23-2.59-2.23M6.28 6.85 8.6 3.4M7.34 7.56l2.32-3.45M8.4 8.27l2.32-3.45m14.03 2.74-2.32-3.45m-.21 1.97-.85-1.26m2.32 3.45-.95-1.42m-14.53 8.5-.84-1.26m2.32 3.45-.95-1.41m15.6-11.47-.85-1.26m2.32 3.45-.95-1.41m.1 10.64.85-1.26m-2.32 3.45.95-1.42m-1.59-2.19.84-1.26m-2.32 3.45.95-1.41m1.58-.13.85-1.26m-2.32 3.45.95-1.42m-17.1-1.32 2.32 3.45m-.2-4.87 2.32 3.45" /></g></symbol><symbol fill="none" viewBox="0 0 32 22" id="flag-tanzania"><path clip-rule="evenodd" d="M29.89 20.917H1.81a.81.81 0 0 1-.81-.811V1.81A.81.81 0 0 1 1.81 1h28.08c.448 0 .812.363.812.81v18.296c0 .447-.364.81-.811.81Z" stroke="currentColor" stroke-width="1.5" stroke-linecap="round" stroke-linejoin="round" /><path d="M5 20.5 30.15 6.147M10.5 20.5 30 9.5m-29 7L27.273 1.163m-26.2 12.174L22 1" stroke="currentColor" stroke-width="1.5" stroke-linecap="round" stroke-linejoin="round" /></symbol><symbol viewBox="0 0 32 22" id="flag-thailand"><path d="M29.89 20.64H2.2a.8.8 0 0 1-.8-.8V1.8c0-.44.36-.8.8-.8h27.69c.44 0 .8.36.8.8v18.04a.8.8 0 0 1-.8.8zM1.4 4.34h29.29M1.4 7.59h29.29M1.4 14.12h29.29M1.4 17.37h29.29" stroke-width="1.5" stroke="currentColor" fill="none" fill-rule="evenodd" stroke-linecap="round" stroke-linejoin="round" /></symbol><symbol viewBox="0 0 32 22" id="flag-vietnam"><g stroke-width="1.5" stroke="currentColor" fill="none" fill-rule="evenodd" stroke-linecap="round" stroke-linejoin="round"><path d="M29.89 21.04H2.2a.8.8 0 0 1-.8-.82V1.85a.8.8 0 0 1 .8-.81h27.69c.44 0 .8.36.8.81v18.37a.8.8 0 0 1-.8.82z" /><path d="m16.04 5.46 1.31 4.02h4.24l-3.43 2.5L19.47 16l-3.43-2.5-3.42 2.5 1.3-4.03-3.42-2.49h4.24z" /></g></symbol><symbol fill="none" viewBox="0 0 32 22" id="flag-zambia"><path clip-rule="evenodd" d="M29.89 20.638H2.2a.8.8 0 0 1-.8-.8V1.8a.8.8 0 0 1 .8-.8h27.69a.8.8 0 0 1 .8.8v18.038a.8.8 0 0 1-.8.8Z" stroke="currentColor" stroke-width="1.5" stroke-linecap="round" stroke-linejoin="round" /><path d="M22.5 20V10M18 20V10m0 0h12.5m-4 10V10m-1.843-5.517c1.44.21 2.829-.702 3.343-1.052-.257 1.665-2.314 2.28-2.829 2.543-.411.21-.514 1.14-.514 1.579l-.771-.526L23.05 8c0-1.052.321-1.763-.45-2.026-2.88-.21-3.6-1.608-3.6-2.28 1.286.789 1.543.789 3.086.789 1.06 0 .74-.318 1.8-1.402.347-.355.514.525.771 1.402Z" stroke="currentColor" stroke-width="1.5" stroke-linecap="round" stroke-linejoin="round" /></symbol><symbol fill="none" viewBox="0 0 32 22" id="flag-zimbabwe"><path clip-rule="evenodd" d="M29.897 20.917H1.81a.81.81 0 0 1-.81-.811V1.81A.81.81 0 0 1 1.81 1h28.087a.81.81 0 0 1 .81.81v18.296a.81.81 0 0 1-.81.81Z" stroke="currentColor" stroke-width="1.5" stroke-linecap="round" stroke-linejoin="round" /><path d="M2.5 20.5 15 10.88 2 1m4.5 3H30M11 7.5h19M15 11h15m-19.5 3.5H30M6 18h24" stroke="currentColor" stroke-width="1.5" stroke-linecap="round" stroke-linejoin="round" /><path clip-rule="evenodd" d="m7.8 13.377-.782-2.182 1.77-1.33-2.254-.018-.783-2.182-.61 2.17-2.256-.018 1.878 1.36-.611 2.17 1.77-1.33 1.878 1.36Z" stroke="currentColor" stroke-width="1.5" stroke-linecap="round" stroke-linejoin="round" /></symbol><symbol fill="#fff" viewBox="0 0 35 35" id="icon-beach"><path d="M14.22 0C9 0 5.33 2.2 3.1 5.08A15.25 15.25 0 0 0 0 14.22a1.1 1.1 0 0 0 1.1 1.1h12.03V26.6c-4.87.8-9.26 2.98-12.8 6.53A1.1 1.1 0 0 0 1.08 35H33.9a1.1 1.1 0 0 0 .77-1.86 23.78 23.78 0 0 0-1.78-1.62 7.67 7.67 0 0 0-5.43-12.93 7.66 7.66 0 0 0-7.75 7.76c-.73-.06-1.47-.1-2.21-.1h-.01c-.74 0-1.46.04-2.18.1V15.3h12.04a1.1 1.1 0 0 0 1.1-1.09c0-2.78-.88-6.26-3.1-9.14C23.26 2.4 19.94.35 15.33.06a2.82 2.82 0 0 0-.81-.04l-.2-.02h-.1Zm0 2.19c.25 0 .47.02.7.04.3.07.7.37 1.19 1.07.57.84 1.13 2.1 1.6 3.48.73 2.2 1.2 4.7 1.36 6.35H14.4a1.1 1.1 0 0 0-.33 0H9.92a32.1 32.1 0 0 1 1.38-6.35 14.78 14.78 0 0 1 1.59-3.48c.57-.83 1.06-1.11 1.33-1.11Zm-3.46.4A17.78 17.78 0 0 0 9.2 6.1a31.68 31.68 0 0 0-1.49 7.04H2.36c.2-2.15.87-4.64 2.47-6.71a10.46 10.46 0 0 1 5.93-3.82Zm7.6.2c2.32.72 4.02 2.04 5.25 3.63a12.83 12.83 0 0 1 2.47 6.7h-4.8a31.83 31.83 0 0 0-1.5-7.04c-.4-1.2-.87-2.32-1.42-3.3Zm9.07 18a5.47 5.47 0 0 1 3.8 9.32l-.12.1a23.36 23.36 0 0 0-9.09-3.58 5.36 5.36 0 0 1 1.47-4.25 5.47 5.47 0 0 1 3.94-1.6Zm-9.93 7.65c4.92 0 9.12 1.7 12.82 4.37H4.7c3.7-2.66 7.9-4.37 12.8-4.37Z" /></symbol><symbol viewBox="0 0 8 8" id="icon-close"><path fill="none" stroke="currentColor" d="m1 1 6 6m0-6L1 7" /></symbol><symbol viewBox="0 0 42 42" id="icon-date"><g fill="none" fill-rule="evenodd" stroke="#323E48" stroke-linecap="round" stroke-linejoin="round" stroke-width="2"><path d="M41 21c0 11.046-8.955 20-20 20S1 32.046 1 21 9.955 1 21 1s20 8.954 20 20Z" /><path d="M27.54 28.193H14.702A.705.705 0 0 1 14 27.49V14.592c0-.387.317-.703.703-.703H27.54c.387 0 .703.316.703.703V27.49a.705.705 0 0 1-.703.703ZM14 16.445h14.243M17.966 12v3.778M24.277 12v3.778" /></g></symbol><symbol viewBox="0 0 75 75" id="icon-large-award"><path fill="none" stroke="currentColor" stroke-width="3" stroke-linecap="round" stroke-linejoin="round" d="M55.5 12.1v17.8c0 9.6-7.9 17.5-17.5 17.5s-17.5-7.9-17.5-17.5V12.1" /><path fill="none" stroke="currentColor" stroke-width="3" stroke-linecap="round" stroke-linejoin="round" d="m38 32.5-5.3 2.8 1-5.9-4.3-4.2 6-.8L38 19l2.6 5.4 6 .8-4.3 4.2 1 5.9zm-17.5-13H14v10.4c0 5.6 3.6 10.2 8 10.2h1.7m31.8-20.6H62v10.4c0 5.6-3.6 10.2-8 10.2h-1.7M17 12.1h42M40.7 47.3v11.6h-5.4V47.3m-9.5 16.6h24.7v-5H25.8z" /></symbol><symbol viewBox="0 0 75 75" id="icon-large-responsible"><g fill="none" stroke-linecap="round" stroke-linejoin="round" stroke="currentColor" stroke-width="3"><path d="M65.253 37.098c0 14.966-12.132 27.098-27.1 27.098-14.965 0-27.097-12.132-27.097-27.098S23.188 10 38.154 10c14.967 0 27.1 12.132 27.1 27.098z" /><path d="M42.472 63.688c5.82-3.559 10.038-14.117 10.038-26.59 0-12.475-4.219-23.031-10.038-26.59m-8.634 0C28.018 14.065 23.8 24.624 23.8 37.097c0 12.474 4.218 23.03 10.038 26.59M14.991 23.028h46.188m-49.938 14.07h18.905m17.195 0h17.905m-3.928 14.069H14.992" /><path d="M38.7 32.58c-.855-1.418-2.34-2.303-4.051-2.303-2.611 0-4.795 2.303-4.795 5.05 0 1.195.158 1.683.856 2.813.697 1.13 8.014 7.886 8.014 7.886s7.294-6.757 7.991-7.886c.697-1.13.856-1.64.856-2.813 0-2.724-2.16-5.05-4.818-5.05-1.71 0-3.196.908-4.052 2.303z" /></g></symbol><symbol viewBox="0 0 40 40" id="icon-like"><path d="M24.1 12a4.8 4.8 0 0 0-4.1 2.34A4.76 4.76 0 0 0 15.87 12C13.22 12 11 14.34 11 17.13c0 1.22.16 1.71.87 2.86C12.57 21.14 20 28 20 28s7.41-6.86 8.12-8.01c.71-1.15.87-1.67.87-2.86 0-2.77-2.2-5.13-4.9-5.13" /></symbol><symbol viewBox="0 0 23 23" id="icon-like-filled"><path d="M11.487 5.129C9.684 3.372 8.123 2.494 6.806 2.494c-3.017 0-5.54 2.635-5.54 5.776 0 1.368.182 1.925.988 3.217.538.862 3.624 3.868 9.26 9.019 5.617-5.151 8.694-8.157 9.232-9.019.806-1.292.988-1.874.988-3.217 0-3.116-2.497-5.776-5.565-5.776-1.318 0-2.879.878-4.682 2.635z" fill="#a1bcc4" fill-rule="evenodd" /></symbol><symbol viewBox="0 0 42 42" id="icon-location"><g fill="none" fill-rule="evenodd" stroke="#323E48" stroke-linecap="round" stroke-linejoin="round" stroke-width="2"><path d="M41 21c0 11.046-8.955 20-20 20S1 32.046 1 21 9.955 1 21 1s20 8.954 20 20Z" /><path d="M27.226 13.44a8.333 8.333 0 0 1 0 11.786l-5.893 5.892-5.892-5.892A8.333 8.333 0 1 1 27.226 13.44ZM21.333 16a3.333 3.333 0 1 0 0 6.667 3.333 3.333 0 0 0 0-6.667Z" /></g></symbol><symbol viewBox="0 0 20 20" id="icon-menu-toggle"><path d="M20 16v2H0v-2zm0-7v2H0V9zm0-7v2H0V2z" /><path fill="currentColor" d="m16.364 2.222 1.414 1.414L11.414 10l6.364 6.364-1.414 1.414L10 11.414l-6.364 6.364-1.414-1.414L8.586 10 2.222 3.636l1.414-1.414L10 8.586z" /></symbol><symbol viewBox="0 0 42 42" id="icon-plane"><g stroke="#323E48" fill="none" fill-rule="evenodd"><path d="M41 21a20 20 0 1 1-40 0 20 20 0 0 1 40 0z" stroke-width="2" stroke-linecap="round" stroke-linejoin="round" /><path d="m17.32 31.28-.04-.05-3.02-3.21-3.08-2.89a.23.23 0 0 1-.13-.22c-.01-.12.04-.21.11-.28l.97-.98c.1-.1.24-.15.35-.08l2.96 1.15 4.22-4.62-6.4-4.55c-.07-.07-.14-.14-.13-.23-.02-.11.03-.2.1-.28l1.22-1.22c.1-.1.21-.12.35-.08l8.45 2.77 3.02-3.01c.77-.78 2.7-1.68 3.5-.86.87.86-.49 3.14-.85 3.5l-3.01 3.02 2.77 8.46c.04.13 0 .25-.09.35l-1.21 1.21a.41.41 0 0 1-.27.13.23.23 0 0 1-.22-.13l-4.58-6.42-4.62 4.17 1.16 2.96c.04.13.01.25-.09.35l-.97.97c-.07.07-.17.12-.28.1a.17.17 0 0 1-.19-.03zm-2.57-3.75.04.05 2.85 2.94.5-.5-1.17-2.98a.38.38 0 0 1 .11-.38l5.08-4.64c.07-.07.14-.1.26-.08.1 0 .18.04.22.13l4.58 6.38.78-.78-2.77-8.45a.33.33 0 0 1 .09-.36l3.16-3.15c.31-.32 1.28-2.12.81-2.59-.46-.46-1.95.19-2.58.82l-3.16 3.16c-.1.1-.21.12-.35.08l-8.46-2.77-.77.78 6.4 4.56c.07.06.13.13.13.22 0 .1-.04.21-.1.28l-4.65 5.08c-.1.1-.23.15-.37.11l-2.98-1.17-.5.5 2.8 2.72.05.04z" stroke-width="1.2" fill-rule="nonzero" fill="#000" /></g></symbol><symbol viewBox="0 0 42 42" id="icon-price"><g fill="none" fill-rule="evenodd" stroke="#323E48" stroke-linecap="round" stroke-linejoin="round" stroke-width="2"><path d="M41 21c0 11.046-8.955 20-20 20S1 32.046 1 21 9.955 1 21 1s20 8.954 20 20Z" /><path d="M23.529 13H21.76c-2.143 0-3.88 1.804-3.88 4.028v6.877c0 2.225-1.738 4.028-3.881 4.028h11.378M14.711 20.822h7.822" /></g></symbol><symbol viewBox="0 0 30 30" id="icon-small-date"><path d="M21.54 23.2H8.7a.7.7 0 0 1-.7-.71V9.59c0-.39.32-.7.7-.7h12.84c.39 0 .7.31.7.7v12.9a.7.7 0 0 1-.7.7zM8 11.45h14.24M11.97 7v3.78M18.28 7v3.78" fill="none" fill-rule="evenodd" stroke="#323E48" stroke-linecap="round" stroke-linejoin="round" stroke-width="2" /></symbol><symbol viewBox="0 0 30 30" id="icon-small-price"><g fill="none" fill-rule="evenodd" stroke="#323E48" stroke-linecap="round" stroke-linejoin="round" stroke-width="2"><path d="M17.56 10.5h-1.03a2.3 2.3 0 0 0-2.27 2.35v4.01A2.3 2.3 0 0 1 12 19.21h6.64m-6.23-4.15h4.57" /><path d="M26 15.5a10.5 10.5 0 1 1-21 0 10.5 10.5 0 0 1 21 0z" /></g></symbol><symbol viewBox="0 0 20 20" id="offer-icon-calendar"><path fill="none" stroke="currentColor" stroke-linecap="round" stroke-linejoin="round" stroke-width="2" d="M18.2 19H1.8a.8.8 0 0 1-.8-.8V3.8c0-.4.4-.8.8-.8h16.4c.4 0 .8.4.8.8v14.4c0 .4-.4.8-.8.8ZM1 10h18M6.5 1v4m7-4v4" /></symbol><symbol fill="none" stroke="currentColor" stroke-width="2" viewBox="0 0 22 22" id="offer-icon-misc"><path d="M21 11a10 10 0 1 1-20 0 10 10 0 0 1 20 0ZM11 6v2m0 1.5v7" /></symbol><symbol fill="currentColor" viewBox="0 0 21 21" id="offer-icon-plane"><path d="m6.9 19.53.04.04c.04.05.11.07.18.04.11.02.2-.03.28-.1l.96-.96c.1-.1.12-.21.08-.35L7.3 15.3l4.55-4.13 4.52 6.34c.04.09.13.13.22.13a.4.4 0 0 0 .26-.13l1.2-1.2c.1-.1.12-.21.08-.34L15.4 7.63l2.97-2.97c.36-.36 1.7-2.61.85-3.46-.8-.81-2.7.08-3.46.84l-2.97 2.97-8.34-2.73a.33.33 0 0 0-.35.09l-1.2 1.2c-.07.07-.12.16-.1.27 0 .1.06.16.13.23l6.31 4.49-4.16 4.55-2.91-1.14c-.12-.06-.26 0-.35.09l-.96.96a.3.3 0 0 0-.1.28c0 .09.03.18.12.22l3.04 2.84 2.98 3.17Zm-2.46-3.6-.04-.05-.04-.04-2.78-2.67.5-.5 2.94 1.15c.14.04.28 0 .37-.1L9.96 8.7c.08-.07.1-.19.1-.28.01-.1-.05-.16-.12-.22L3.63 3.7l.76-.76 8.34 2.73c.14.04.25.01.35-.09l3.11-3.11c.62-.62 2.1-1.26 2.55-.8.46.45-.5 2.23-.8 2.54l-3.12 3.12c-.1.1-.12.2-.08.34l2.73 8.34-.77.77-4.52-6.3a.23.23 0 0 0-.22-.12c-.11-.02-.18 0-.25.08L6.7 15.02c-.1.1-.15.24-.11.37l1.16 2.94-.5.5-2.8-2.9Z" /><path d="m6.94 19.57-.42.43.42-.43Zm-.04-.04-.44.41.01.02.43-.43Zm.22.08.1-.6-.16-.01-.15.05.21.56Zm.28-.1.42.42-.42-.42Zm.96-.96-.43-.42.43.42Zm.08-.35.58-.16V18L9 17.98l-.56.22ZM7.3 15.3l-.4-.45-.3.27.14.39.56-.22Zm4.55-4.13.5-.34-.4-.55-.5.45.4.44Zm4.52 6.34.54-.25-.02-.05-.03-.05-.49.35Zm.22.13-.03-.6.03.6Zm1.54-1.67.58-.17v-.02l-.58.19ZM15.4 7.63l-.42-.43-.27.27.12.35.57-.2Zm2.97-2.97-.42-.43.42.43ZM12.79 5l-.2.57.36.12.26-.26-.42-.43ZM4.45 2.28l.19-.57h-.02l-.17.57ZM2.8 3.84l.6.03v-.12l-.6.1Zm.13.23-.43.42.04.04.04.03.35-.5Zm6.31 4.49.44.4.46-.5-.55-.39-.35.49ZM5.08 13.1l-.22.56.38.15.28-.3-.44-.4Zm-2.91-1.14-.3.53.04.02.04.01.22-.56ZM.76 13.3l.6.02v-.06l-.01-.06-.6.1Zm.12.22.41-.44-.07-.07-.08-.04-.26.55Zm3.04 2.84.44-.4-.02-.02-.01-.02-.41.44Zm.52-.43.43-.42-.43.42Zm-.08-.09.42-.42v-.01l-.42.43Zm-2.78-2.67-.42-.43-.43.43.44.43.41-.43Zm.5-.5.23-.57-.37-.14-.28.28.43.42Zm2.94 1.15-.22.56.03.01.02.01.17-.58Zm.37-.1.43.42v-.01l.01-.01-.44-.4ZM9.96 8.7l-.42-.43-.01.01v.01l.43.4Zm-.02-.5.43-.43-.04-.03-.04-.03-.35.49ZM3.63 3.7l-.43-.4-.5.5.58.41.35-.49Zm.76-.76.2-.57-.36-.12-.26.26.42.43Zm8.34 2.73-.19.57h.02l.17-.57Zm.35-.09-.43-.42.43.42Zm3.11-3.11.43.42-.43-.42Zm1.74 1.74-.42-.42.42.42Zm-3.11 3.12.42.42-.42-.42Zm-.08.34-.58.17v.02l.58-.19Zm2.73 8.34.42.42.26-.26-.11-.35-.57.19Zm-.77.77-.49.35.42.57.5-.5-.43-.42Zm-4.52-6.3-.54.26.02.05.04.05.48-.35Zm-.22-.12-.09.6h.12l-.03-.6Zm-.25.08.4.44h.01l.01-.02-.42-.42ZM6.7 15.02l-.4-.44h-.02v.02l.42.42Zm-.11.37-.58.17.01.03.01.02.56-.22Zm1.16 2.94.43.42.27-.28-.14-.36-.56.22Zm-.5.5-.43.42.42.44.43-.44-.42-.42Zm.11.32-.04-.04-.85.85.05.04.84-.85Zm-.45-.1a.43.43 0 0 1 .45.1l-.84.85c.2.2.51.29.81.17l-.42-1.12Zm.06.03.08-.04c.04-.02.1-.03.16-.02l-.18 1.19c.36.05.64-.12.8-.28l-.86-.85Zm.96-.95-.96.95.85.85.96-.96-.85-.84Zm-.06.24a.25.25 0 0 1 0-.12c.01-.06.04-.1.06-.12l.85.84a.94.94 0 0 0 .24-.93l-1.15.33Zm-1.13-2.86 1.14 2.91L9 17.98l-1.14-2.9-1.12.43Zm4.71-4.78L6.9 14.85l.8.89 4.56-4.12-.8-.9Zm5.4 6.43-4.5-6.33-.98.7 4.51 6.33.98-.7Zm-.29-.12c.1 0 .27.04.35.22l-1.08.5c.16.35.5.49.79.47l-.06-1.2Zm-.14.04.04-.02.1-.02.06 1.2a1 1 0 0 0 .65-.3l-.85-.86Zm1.2-1.2-1.2 1.2.85.85 1.2-1.2-.85-.84Zm-.07.25a.25.25 0 0 1 0-.12c.02-.06.05-.1.07-.12l.85.85a.94.94 0 0 0 .24-.94l-1.16.33Zm-2.72-8.31 2.73 8.33 1.14-.37-2.73-8.34-1.14.38Zm3.12-3.59L14.98 7.2l.84.85 2.97-2.97-.84-.85Zm.84-2.6c.05.04.11.15.1.4 0 .24-.08.54-.2.87a6 6 0 0 1-.73 1.32l-.01.01.84.85a6.98 6.98 0 0 0 1.02-1.75c.15-.4.27-.84.28-1.26a1.7 1.7 0 0 0-.45-1.3l-.85.85Zm-2.61.84c.31-.31.89-.68 1.48-.87.63-.2.99-.12 1.13.02l.85-.85C18.98.11 18 .23 17.3.46c-.76.24-1.5.7-1.96 1.16l.85.85ZM13.2 5.44l2.97-2.97-.85-.85-2.97 2.97.85.85ZM4.26 2.85l8.34 2.73.37-1.14-8.33-2.73-.38 1.14Zm.27-.06a.27.27 0 0 1-.13.07h-.12l.34-1.15a.94.94 0 0 0-.94.24l.85.84ZM3.33 4l1.2-1.2-.85-.85-1.2 1.2.85.85Zm.06-.24c.01.06 0 .12-.02.17a.22.22 0 0 1-.04.07l-.85-.85a.92.92 0 0 0-.27.8l1.18-.19Zm-.04-.1a.98.98 0 0 1-.03-.04l.02.02.04.1.02.14-1.2-.05c-.02.4.29.65.3.67l.85-.85Zm6.25 4.4-6.31-4.5-.7.99L8.9 9.04l.7-.98Zm-4.07 5.45 4.16-4.56-.88-.8-4.17 4.55.89.8Zm-3.57-.99 2.9 1.14.45-1.11-2.92-1.14-.43 1.11Zm.3-.05a.2.2 0 0 1-.1.05.37.37 0 0 1-.28-.03l.6-1.05c-.47-.26-.9 0-1.08.19l.85.84Zm-.96.96.95-.96-.85-.84-.95.95.85.85Zm.06-.24c0 .06 0 .12-.02.17a.22.22 0 0 1-.04.07l-.85-.85a.92.92 0 0 0-.28.8l1.19-.19Zm-.21-.23a.4.4 0 0 1 .22.35l-1.2-.05c-.02.28.12.63.47.8l.5-1.1Zm3.19 2.95L1.3 13.07l-.82.88 3.04 2.84.82-.88Zm3 3.2-2.97-3.17-.88.82 2.98 3.17.87-.82ZM3.98 16.3l.05.04.85-.85-.05-.04-.85.85Zm-.04-.05.04.05.85-.85-.04-.04-.85.84ZM1.17 13.6l2.77 2.67.83-.86L2 12.73l-.83.87Zm.5-1.36-.51.5.85.85.5-.5-.85-.85Zm3.57 1.03L2.31 12.1l-.44 1.12 2.93 1.16.44-1.11Zm-.27.02c.02-.02.1-.08.22-.04l-.34 1.15a1 1 0 0 0 .97-.26l-.85-.85ZM9.52 8.3l-4.57 5.01.88.81 4.58-5-.89-.82Zm-.05.1v-.02s.02-.05.07-.1l.85.85c.22-.22.27-.52.28-.67l-1.2-.06Zm.05.23.03.03-.02-.02a.42.42 0 0 1-.06-.24l1.2.06c.02-.4-.29-.66-.3-.68l-.85.85ZM3.28 4.2 9.6 8.7l.7-.98-6.31-4.5-.7.98Zm.7-1.68-.78.77.85.85.77-.77-.85-.85Zm8.94 2.59L4.58 2.38l-.37 1.14 8.33 2.73.38-1.14Zm-.27.06a.27.27 0 0 1 .13-.07h.12l-.34 1.16a.94.94 0 0 0 .94-.24l-.85-.85Zm3.12-3.11-3.12 3.11.85.85 3.12-3.12-.85-.84Zm3.4-.8a1.26 1.26 0 0 0-.95-.34c-.3 0-.61.09-.9.19-.56.2-1.17.56-1.55.95l.85.84a3.3 3.3 0 0 1 1.11-.66c.22-.08.4-.12.52-.12.14 0 .12.03.06-.02l.85-.85Zm-.81 3.39a6.85 6.85 0 0 0 .82-1.42c.12-.3.23-.62.27-.93.03-.27.04-.72-.29-1.05l-.85.85c-.1-.1-.03-.15-.06.05a2.7 2.7 0 0 1-.18.63 5.63 5.63 0 0 1-.54 1l-.02.02.85.85Zm-3.12 3.11 3.12-3.11-.85-.85-3.11 3.1.84.85Zm.07-.24v.12a.27.27 0 0 1-.07.12l-.84-.85a.94.94 0 0 0-.24.94l1.15-.33Zm2.73 8.31L15.3 7.5l-1.14.37 2.73 8.34 1.14-.38Zm-.92 1.38.77-.77-.85-.84-.76.76.84.85Zm-5.42-6.36 4.51 6.29.98-.7-4.52-6.3-.97.7Zm.29.12a.38.38 0 0 1-.35-.22l1.09-.5a.82.82 0 0 0-.8-.48l.06 1.2Zm.14-.1c0 .01-.05.05-.12.08a.31.31 0 0 1-.14.01l.18-1.18a.9.9 0 0 0-.42.03.88.88 0 0 0-.35.22l.85.84Zm-5.03 4.6 5.01-4.58-.8-.88-5.02 4.57.81.89Zm.07-.24c.03.12-.03.2-.05.22l-.85-.85a.98.98 0 0 0-.26.96l1.16-.33ZM8.3 18.1l-1.16-2.94-1.12.44 1.16 2.94 1.12-.44Zm-.64 1.14.5-.5-.84-.85-.5.5.84.85ZM4 16.34l2.8 2.9.87-.84-2.8-2.9-.87.83Z" /></symbol><symbol fill="none" stroke="currentColor" stroke-linecap="round" stroke-linejoin="round" stroke-width="2" viewBox="0 0 22 22" id="offer-icon-price"><path d="M12.96 6.24h-.98a2.2 2.2 0 0 0-2.16 2.24v3.82a2.2 2.2 0 0 1-2.15 2.23h6.32m-5.93-3.95h4.35" /><path d="M21 11a10 10 0 1 1-20 0 10 10 0 0 1 20 0Z" /></symbol><symbol fill="none" stroke="currentColor" stroke-width="2" viewBox="0 0 22 22" id="offer-icon-time"><path d="M21 11a10 10 0 1 1-20 0 10 10 0 0 1 20 0Z" /><path d="M10.23 7.15v4.62h4.62" /></symbol><symbol fill="none" viewBox="0 0 23 20" id="phone-call"><path d="M21.802 12.864a11.471 11.471 0 0 0-1.88-2.998 3.936 3.936 0 0 0 1.996-1.565 3.927 3.927 0 0 0 .562-2.971 3.923 3.923 0 0 0-1.702-2.498A17.28 17.28 0 0 0 11.282 0C7.898 0 4.614.98 1.787 2.832A3.923 3.923 0 0 0 .085 5.33 3.926 3.926 0 0 0 .646 8.3a3.939 3.939 0 0 0 2.01 1.57 11.372 11.372 0 0 0-2.566 5.1 3.934 3.934 0 0 0 .788 3.314 3.93 3.93 0 0 0 3.071 1.468h14.667a3.929 3.929 0 0 0 3.07-1.468 3.934 3.934 0 0 0 .789-3.313 11.426 11.426 0 0 0-.673-2.107ZM2.298 7.219a1.976 1.976 0 0 1 .57-2.735 15.313 15.313 0 0 1 8.414-2.509c3 0 5.91.868 8.415 2.51a1.976 1.976 0 0 1-2.163 3.304 11.374 11.374 0 0 0-6.252-1.863c-2.229 0-4.39.644-6.252 1.863a1.97 1.97 0 0 1-2.733-.57Zm17.853 9.824c-.375.464-.939.734-1.535.734H3.949a1.974 1.974 0 0 1-1.93-2.39C2.951 11.048 6.847 7.9 11.282 7.9a9.473 9.473 0 0 1 9.264 7.485 1.977 1.977 0 0 1-.395 1.657ZM11.282 15.8a2.965 2.965 0 0 1-2.96-2.962 2.965 2.965 0 0 1 2.96-2.963 2.965 2.965 0 0 1 2.961 2.963 2.965 2.965 0 0 1-2.96 2.962Zm.987-2.962a.989.989 0 0 0-.987-.988.989.989 0 0 0 0 1.975.989.989 0 0 0 .987-.987Z" fill="#A1BCC4" /></symbol><symbol viewBox="0 0 40 40" id="social-facebook"><path fill="currentColor" d="M27.46 11.64H12.9c-.5 0-.9.4-.9.9V27.1c0 .5.4.9.9.9h7.84v-6.34h-2.13V19.2h2.13v-1.82c0-2.11 1.29-3.26 3.18-3.26.9 0 1.68.06 1.9.1v2.2h-1.3c-1.03 0-1.23.5-1.23 1.2v1.58h2.45l-.32 2.47h-2.13V28h4.17c.5 0 .9-.4.9-.9V12.54c0-.5-.4-.9-.9-.9" /></symbol><symbol viewBox="0 0 40 40" id="social-instagram"><path fill="currentColor" d="M24.07 10.9a5.02 5.02 0 0 1 5.02 5.03v8.14a5.02 5.02 0 0 1-5.02 5.02h-8.14a5.02 5.02 0 0 1-5.02-5.02v-8.14a5.02 5.02 0 0 1 5.02-5.02zm0 1.62h-8.14a3.4 3.4 0 0 0-3.4 3.4v8.15a3.4 3.4 0 0 0 3.4 3.4h8.14a3.4 3.4 0 0 0 3.4-3.4v-8.14a3.4 3.4 0 0 0-3.4-3.4zM20 15.32a4.69 4.69 0 1 1-.01 9.38 4.69 4.69 0 0 1 .01-9.38zm0 1.6a3.08 3.08 0 1 0 0 6.16 3.08 3.08 0 0 0 0-6.15zm4.88-2.97a1.19 1.19 0 0 1 1.18 1.18 1.2 1.2 0 0 1-1.18 1.18 1.2 1.2 0 0 1-1.18-1.18 1.19 1.19 0 0 1 1.18-1.18z" /></symbol><symbol viewBox="0 0 40 40" id="social-twitter"><path fill="currentColor" d="M29.53 14.85c-.4.18-.82.32-1.25.42a3.9 3.9 0 0 0 1.03-1.64.2.2 0 0 0-.3-.24 7.23 7.23 0 0 1-2.04.8.5.5 0 0 1-.33-.12 3.92 3.92 0 0 0-3.84-.79 3.8 3.8 0 0 0-2.56 2.74 4.4 4.4 0 0 0-.1 1.44c.01.06-.01.1-.03.11a.15.15 0 0 1-.12.05c-2.78-.26-5.3-1.6-7.06-3.77a.2.2 0 0 0-.34.02 3.92 3.92 0 0 0 .64 4.77 3.5 3.5 0 0 1-.9-.35.2.2 0 0 0-.3.18 3.92 3.92 0 0 0 2.29 3.61 3.35 3.35 0 0 1-.75-.06.2.2 0 0 0-.23.27 3.93 3.93 0 0 0 3.1 2.67c-1.2.8-2.6 1.23-4.05 1.23h-.45a.3.3 0 0 0-.3.22c-.03.14.04.28.15.35 1.64.95 3.51 1.45 5.41 1.45 1.66 0 3.22-.32 4.62-.98a10.2 10.2 0 0 0 3.38-2.53 11.1 11.1 0 0 0 2.77-7.26v-.06c0-.2.1-.39.25-.52a7.75 7.75 0 0 0 1.56-1.7c.12-.18-.06-.4-.25-.31" /></symbol><symbol fill="none" viewBox="0 0 23 15" id="video-call"><path fill-rule="evenodd" clip-rule="evenodd" d="M16.936 3.5A2.5 2.5 0 0 0 14.438 1H3.498A2.497 2.497 0 0 0 1 3.5v8A2.5 2.5 0 0 0 3.498 14h10.94a2.497 2.497 0 0 0 2.498-2.5v-8Zm-1 0A1.5 1.5 0 0 0 14.438 2H3.499A1.501 1.501 0 0 0 2 3.5v8A1.501 1.501 0 0 0 3.498 13h10.94a1.5 1.5 0 0 0 1.499-1.5v-8Z" fill="#A1BCC4" /><path d="m15.498 2.439.354-.353-.354.353Zm-13.06 0-.353-.354-.001.001.354.353Zm0 10.122-.354.353.001.001.353-.354Zm13.06 0 .354.353-.354-.353ZM17.436 3.5c0-.795-.315-1.558-.878-2.121l-.707.706a2 2 0 0 1 .585 1.415h1Zm-.878-2.121A2.997 2.997 0 0 0 14.438.5v1c.53 0 1.038.21 1.413.585l.707-.706ZM14.438.5H3.498v1H14.438v-1ZM3.498.5c-.795 0-1.558.316-2.12.879l.707.706A1.997 1.997 0 0 1 3.498 1.5v-1Zm-2.12.879A3 3 0 0 0 .5 3.5h1a2 2 0 0 1 .585-1.415l-.707-.706ZM.5 3.5V11.5h1V3.5h-1Zm0 8a3 3 0 0 0 .878 2.121l.707-.706A2.001 2.001 0 0 1 1.5 11.5h-1Zm.878 2.121a2.997 2.997 0 0 0 2.12.879v-1c-.53 0-1.038-.21-1.413-.585l-.707.706Zm2.12.879H14.438v-1H3.498v1Zm10.94 0c.795 0 1.558-.316 2.12-.879l-.707-.706a1.998 1.998 0 0 1-1.413.585v1Zm2.12-.879a3 3 0 0 0 .878-2.121h-1c0 .53-.21 1.04-.585 1.415l.707.706Zm.878-2.121v-8h-1v8h1Zm-1-8c0-.53-.21-1.038-.584-1.414l-.708.706c.187.188.293.443.293.708h1Zm-.584-1.414a2 2 0 0 0-1.414-.586v1a1 1 0 0 1 .706.292l.708-.706ZM14.438 1.5H3.498v1H14.438v-1Zm-10.94 0c-.53 0-1.038.21-1.413.585l.706.708c.189-.188.442-.293.707-.293v-1Zm-1.414.586A2.003 2.003 0 0 0 1.499 3.5h1c0-.265.105-.52.293-.708l-.708-.706ZM1.499 3.5V11.5h1V3.5h-1Zm0 8c0 .53.21 1.038.585 1.414l.708-.706A1.003 1.003 0 0 1 2.5 11.5h-1Zm.586 1.415c.375.374.883.585 1.413.585v-1a1 1 0 0 1-.707-.293l-.706.708Zm1.413.585H14.438v-1H3.498v1Zm10.94 0a2 2 0 0 0 1.414-.586l-.708-.706a1 1 0 0 1-.706.292v1Zm1.414-.586c.374-.376.585-.883.585-1.414h-1c0 .265-.106.52-.293.708l.708.706Zm.585-1.414v-8h-1v8h1Z" fill="#A1BCC4" mask="url(#video-call_a)" /><path d="M21.644 3.382a1.25 1.25 0 0 0-1.216-.054L17.74 4.67l-1.16.58-.35.176-.096.048-.025.012-.006.004h-.002l.112.224-.112-.223a.75.75 0 0 0-.415.67V8.69c0 .284.16.544.415.67l.112-.223-.112.224h.002l.006.004.025.012.095.048.351.176 1.16.58 2.687 1.344a1.25 1.25 0 0 0 1.215-.054 1.25 1.25 0 0 0 .593-1.064v-5.96a1.25 1.25 0 0 0-.592-1.064Zm-4.458 4.844v-1.6l3.55-1.776v5.152l-3.55-1.776Z" fill="#A1BCC4" stroke="#A1BCC4" stroke-width=".5" /></symbol><mask id="video-call_a" maskUnits="userSpaceOnUse" x="0" y="0" width="18" height="15" fill="#000"><path fill="#fff" d="M0 0h18v15H0z" /><path fill-rule="evenodd" clip-rule="evenodd" d="M16.936 3.5A2.5 2.5 0 0 0 14.438 1H3.498A2.497 2.497 0 0 0 1 3.5v8A2.5 2.5 0 0 0 3.498 14h10.94a2.497 2.497 0 0 0 2.498-2.5v-8Zm-1 0A1.5 1.5 0 0 0 14.438 2H3.499A1.501 1.501 0 0 0 2 3.5v8A1.501 1.501 0 0 0 3.498 13h10.94a1.5 1.5 0 0 0 1.499-1.5v-8Z" /></mask><symbol viewBox="0 0 40 40" id="weather-cloudy"><path d="m28.68 12.18.02-.38a6.22 6.22 0 0 0-11.92-2.5 3.12 3.12 0 0 0-5.24 2.82 4.89 4.89 0 0 0 .7 9.74h15.42a4.9 4.9 0 0 0 1.02-9.68z" fill="#C4D7E4" stroke="#323E48" stroke-linecap="round" stroke-linejoin="round" stroke-width="2.2" /></symbol><symbol viewBox="0 0 40 40" id="weather-raining"><g stroke="#323E48" stroke-linecap="round" stroke-linejoin="round" stroke-width="2.2"><path d="m28.68 12.18.02-.38a6.22 6.22 0 0 0-11.92-2.5 3.12 3.12 0 0 0-5.24 2.82 4.89 4.89 0 0 0 .7 9.74h15.42a4.9 4.9 0 0 0 1.02-9.68z" fill="#C4D7E4" /><path d="m18.46 21.86-3.9 3.9m11.81-3.71-3.9 3.9m-4.55 4.32-3.9 3.9m12.84-3.9-3.9 3.9" /></g></symbol><symbol viewBox="0 0 40 40" id="weather-snowing"><g transform="translate(6 5)" fill="none" fill-rule="evenodd"><circle fill="#D8ECFF" cx="14.52" cy="15.73" r="10.89" /><path stroke="#323E48" stroke-width="2" stroke-linecap="round" stroke-linejoin="round" d="M13.98 4.21v21.96M17.28.9l-3.3 3.3-3.3-3.3m0 28.58 3.3-3.3 3.3 3.3m6.16-19.87L4.52 20.77m23.44-9.99L23.44 9.6l1.17-4.52M0 19.6l4.52 1.17-1.17 4.52M4.52 9.61l18.92 11.16M0 10.78 4.52 9.6 3.35 5.1m24.61 14.5-4.52 1.17 1.17 4.52" /></g></symbol><symbol viewBox="0 0 40 40" id="weather-sunny"><g stroke="#323E48" stroke-linecap="round" stroke-linejoin="round" stroke-width="2"><path d="M20.41 9.34V6.01m0 28.8v-3.33m14.4-11.07h-3.32m-.85-10.23-5.08 5.09m-.02 10.27 5.08 5.08M6.01 20.41h3.33m.85 10.23 5.08-5.08m.02-10.27-5.08-5.08" fill="none" /><path d="M27.67 20.41a7.25 7.25 0 1 1-14.51 0 7.25 7.25 0 0 1 14.5 0z" fill="#FFE060" /></g></symbol><symbol viewBox="0 0 40 40" id="weather-sunnyClouds"><g fill="none" fill-rule="evenodd"><path d="m34.57 24.5.02-.33a5.64 5.64 0 0 0-10.8-2.27 2.83 2.83 0 0 0-4.76 2.56 4.44 4.44 0 0 0 .62 8.83h14a4.44 4.44 0 0 0 .92-8.78z" fill="#FFF" stroke="#323E48" stroke-linecap="round" stroke-linejoin="round" stroke-width="2" /><path d="M13.47 21.87a5.33 5.33 0 0 0 5.33-5.33c0-2.95-.7-4.7-3.64-4.7-2.95 0-6.4 2.16-6.4 5.1 0 2.95 1.76 4.93 4.7 4.93z" fill="#FFE060" /><path d="M9.74 21.87a6.18 6.18 0 1 1 8.74-8.74m-8.74 8.74L6.01 25.6M22.2 9.41l-3.73 3.73M6.01 9.41l3.73 3.73M1.79 17.5h6.12m6.2-6.17V5.21" stroke="#323E48" stroke-width="2" stroke-linecap="round" stroke-linejoin="round" /></g></symbol><symbol viewBox="0 0 40 40" id="weather-sunnyRain"><g fill="none" fill-rule="evenodd" stroke-width="2" stroke-linecap="round" stroke-linejoin="round"><path stroke="#323E48" d="m34.57 19.5.02-.33a5.64 5.64 0 0 0-10.8-2.27 2.83 2.83 0 0 0-4.76 2.56 4.44 4.44 0 0 0 .62 8.83h14a4.44 4.44 0 0 0 .92-8.78z" fill="#C4D7E4" /><path stroke="#323E48" d="m25.3 28.3-3.54 3.53m10.71-3.37L28.93 32m-4.12 2.92-3.54 3.54m11.65-3.54-3.54 3.54" /><path d="M13.47 16.87a5.33 5.33 0 0 0 5.33-5.33c0-2.95-.7-4.7-3.64-4.7-2.95 0-6.4 2.16-6.4 5.1 0 2.95 1.76 4.93 4.7 4.93z" fill="#FFE060" /><path stroke="#323E48" d="M9.74 16.87a6.18 6.18 0 1 1 8.74-8.74m-8.74 8.74L6.01 20.6M22.2 4.41l-3.73 3.73M6.01 4.41l3.73 3.73M1.79 12.5h6.12m6.2-6.17V.21" /></g></symbol><symbol fill="none" viewBox="0 0 138 111" id="which"><g clip-path="url(#which_a)"><path d="M0 55.025c0 30.384 30.78 55 68.794 55 38.013 0 68.794-24.616 68.794-55s-30.869-55-68.794-55S0 24.65 0 55.025Z" fill="url(#which_b)" /><path d="M3.121 55.026c0 28.656 29.387 51.878 65.628 51.878 36.24 0 65.628-23.222 65.628-51.878 0-28.655-29.379-51.878-65.584-51.878S3.121 26.38 3.121 55.026Z" fill="url(#which_c)" /><path d="m14.773 42.977-.335.829 2.99 1.2-.882 2.16-8.132-3.29 1.2-2.963c.881-2.09 2.134-2.805 3.766-2.143a2.55 2.55 0 0 1 1.702 2.055l3.58-.37.53.211-.812 2.002-3.607.309Zm-1.764.256.282-.688a1.049 1.049 0 0 0-.626-1.588 1.058 1.058 0 0 0-1.56.706l-.274.688 2.178.882ZM18.08 37.386a1.297 1.297 0 0 0 2.002-.485 2.7 2.7 0 0 0 .493-1.596l.37-.565 1.12.732a4.84 4.84 0 0 1-.881 2.576 3.06 3.06 0 0 1-4.666.961 3.167 3.167 0 0 1-1.076-4.63c1.094-1.658 2.567-1.905 4.41-.68.22.15.406.3.468.345l-2.24 3.342Zm-.98-.661 1.103-1.658c-.882-.53-1.323-.441-1.64.053-.318.493-.292.908.537 1.605ZM20.488 33.073a3.262 3.262 0 0 1-.114-4.93 4.057 4.057 0 0 1 1.675-1.182l1.138 1.05-.538.582a1.614 1.614 0 0 0-1.04.538c-.565.617-.52 1.455.405 2.302.926.846 1.685.829 2.258.211a1.763 1.763 0 0 0 .52-1.252l.494-.538 1.041.961a3.854 3.854 0 0 1-1.032 2.02 3.104 3.104 0 0 1-4.807.238ZM24.635 28.576a3.422 3.422 0 0 1 5.292-4.34 3.228 3.228 0 0 1-.476 4.772 3.228 3.228 0 0 1-4.816-.432Zm3.59-2.91c-.882-1.015-1.605-1.174-2.143-.724-.538.45-.547 1.235.29 2.25.839 1.013 1.57 1.128 2.126.67.556-.46.538-1.191-.273-2.197ZM30.977 20.495a3.272 3.272 0 0 1 1.446-1.896 1.5 1.5 0 0 1 1.835 0 3.378 3.378 0 0 1 1.508-1.966c.811-.468 1.693-.477 2.407.767l2.4 4.198-1.853 1.103-2.134-3.678c-.282-.477-.547-.53-.988-.265-.28.173-.528.394-.732.653l2.408 4.136-1.888 1.094-2.143-3.678c-.273-.476-.547-.52-.988-.265a3.088 3.088 0 0 0-.732.644l2.408 4.146-1.887 1.102-3.325-5.724 1.314-.758c.29-.177.538-.16.944.387ZM41.542 15.02a3.299 3.299 0 0 1 1.764-1.606 1.5 1.5 0 0 1 1.764.353 3.404 3.404 0 0 1 1.834-1.667c.882-.317 1.764-.159 2.24 1.182l1.641 4.56-2.055.74-1.446-4.004c-.185-.52-.441-.608-.882-.44-.322.116-.621.29-.882.511l1.623 4.498-2.055.741-1.403-3.987c-.185-.52-.44-.617-.882-.44a2.788 2.788 0 0 0-.882.502l1.623 4.507-2.046.723-2.24-6.174 1.42-.52c.326-.141.564-.08.864.52ZM52.778 14.648c.344 1.067.882 1.243 1.764 1.058.57-.11 1.089-.401 1.481-.829l.67-.14.283 1.313a4.869 4.869 0 0 1-2.443 1.2 3.069 3.069 0 0 1-4.022-2.567 3.165 3.165 0 0 1 2.47-4.075c1.94-.432 3.175.424 3.651 2.646.053.256.08.494.097.574l-3.951.82Zm-.238-1.155 1.949-.424c-.256-.979-.644-1.235-1.217-1.111-.573.123-.847.458-.732 1.534ZM59.498 10.415a3.598 3.598 0 0 1 2.24-1.156c.953-.106 1.764.203 1.931 1.667l.538 4.807-2.17.247-.475-4.225c-.062-.573-.31-.697-.83-.644a3.57 3.57 0 0 0-1.023.335l.53 4.737-2.17.247-.74-6.571 1.463-.132c.3-.08.547 0 .706.688ZM68.951 14.958a2.347 2.347 0 0 1-1.835.82c-1.446 0-2.557-1.023-2.593-3.29 0-2.646 1.341-3.528 2.646-3.528a2.143 2.143 0 0 1 1.667.609v-2.69h1.385c.68 0 .803.176.82 1.164l.097 7.603h-1.543c-.353 0-.538-.141-.644-.688Zm-.088-1.094V10.84a1.553 1.553 0 0 0-.882-.212c-.644 0-1.253.327-1.226 1.764.026 1.438.397 1.879 1.129 1.87.365-.002.715-.144.979-.397ZM73.903 13.017c0 1.128.502 1.455 1.384 1.534a2.645 2.645 0 0 0 1.658-.353l.68.062-.115 1.332a4.86 4.86 0 0 1-2.646.432 3.06 3.06 0 0 1-3.122-3.651 3.16 3.16 0 0 1 3.528-3.158c1.984.168 2.91 1.34 2.716 3.572 0 .256-.062.494-.07.565l-4.013-.335Zm.114-1.173 1.985.176c.053-1.023-.247-1.376-.83-1.42-.582-.044-.943.185-1.155 1.244ZM82.818 16.405a2.371 2.371 0 0 1-1.967.432c-1.42-.274-2.302-1.517-1.87-3.749.494-2.557 2.02-3.175 3.273-2.928a2.134 2.134 0 0 1 1.534.935L84.3 8.45l1.358.265c.67.123.75.335.564 1.305l-1.464 7.462-1.517-.291c-.282-.053-.432-.23-.423-.785Zm.132-1.085.574-2.946a1.526 1.526 0 0 0-.803-.388c-.635-.115-1.288.07-1.561 1.5-.273 1.428 0 1.922.723 2.063a1.49 1.49 0 0 0 1.067-.23ZM91.11 10.123l2.937 1.04c2.178.768 2.98 2.012 2.328 3.855-.653 1.843-2.117 2.267-4.304 1.49l-.661-.238-1.032 2.91-2.179-.775 2.91-8.282Zm.785 4.727.67.23a1.112 1.112 0 0 0 1.623-.82c.282-.777.159-1.27-.767-1.606l-.67-.229-.856 2.425ZM98.666 17.665 96.76 21.74l-1.976-.926 2.796-5.998 1.367.644c.309.15.432.37.185 1.085a2.152 2.152 0 0 1 1.994-.123c.117.06.229.132.335.211l-.768 1.64-.255-.123a4.88 4.88 0 0 0-1.773-.485ZM100.447 19.834a3.425 3.425 0 0 1 2.105-1.554 3.423 3.423 0 0 1 3.574 1.288 3.425 3.425 0 0 1 .178 3.794 3.419 3.419 0 0 1-5.857-3.528Zm3.943 2.381c.679-1.128.573-1.896 0-2.257-.574-.362-1.341-.097-2.02 1.032s-.538 1.852.079 2.222c.618.37 1.27.124 1.941-.997ZM108.078 21.13l.318-.405 1.649 1.278-1.438 4.102 3.528-2.488 1.473 1.138-.317.406-5.469 3.484-1.693-1.28 1.949-6.235ZM109.789 30.32l4.551-4.788 1.023.952c.476.459.397.697-.317 1.447l-3.678 3.88-1.579-1.49Zm5.53-5.873A1.13 1.13 0 1 1 116.96 26a1.13 1.13 0 0 1-1.641-1.554ZM115.256 35.145a2.332 2.332 0 0 1-1.764-.882c-.882-1.111-.811-2.646.935-4.083 2.011-1.659 3.581-1.165 4.41-.177a2.096 2.096 0 0 1 .573 1.676l2.082-1.764.882 1.067c.432.53.37.741-.397 1.376l-5.856 4.842-.979-1.19c-.238-.203-.247-.433.114-.865Zm.794-.75 2.329-1.922a1.547 1.547 0 0 0-.38-.812c-.405-.494-1.04-.758-2.161.168-1.12.926-1.208 1.49-.74 2.046.233.3.575.497.952.547v-.026ZM119.851 38.092a1.297 1.297 0 0 0-.477 2.002c.265.517.693.932 1.217 1.182l.336.591-1.165.662a4.785 4.785 0 0 1-1.869-1.985 3.043 3.043 0 0 1-.47-2.603 3.04 3.04 0 0 1 1.74-1.992 3.172 3.172 0 0 1 4.612 1.147c.979 1.764.53 3.166-1.42 4.26-.229.132-.449.229-.511.264l-1.993-3.528Zm1.04-.564.979 1.764c.882-.538.988-.98.697-1.49-.291-.512-.679-.733-1.676-.274ZM124.563 44.248l-4.242 1.49-.723-2.072 6.244-2.188.494 1.43c.115.326 0 .564-.644.881a1.984 1.984 0 0 1 1.561 1.764l-1.702.591-.097-.273a4.886 4.886 0 0 0-.891-1.623Z" fill="#1D1D1B" /><path d="M20.004 55.026c0 18.971 22.332 35.006 48.79 35.006 26.46 0 48.756-16.035 48.756-35.006S95.175 20.03 68.795 20.03c-26.38 0-48.791 16.026-48.791 34.997Z" fill="url(#which_d)" /><path d="M23.125 55.025c0 17.322 20.894 31.875 45.669 31.875 24.774 0 45.589-14.553 45.589-31.875S93.489 23.15 68.793 23.15c-24.695 0-45.668 14.597-45.668 31.875Z" fill="url(#which_e)" /><path d="m48.86 55.898-1.932-8.088c-.3-1.243-.732-1.623-1.764-1.623h-1.949l-2.249 9.702-1.976-9.702h-3.986l3.801 16.352h3.431l2.487-9.349 2.54 9.35h3.352l3.854-16.352h-3.757l-1.852 9.71ZM62.507 49.902a6.173 6.173 0 0 0-3.713 1.2v-3.529c0-.882-.308-1.41-1.243-1.41h-2.496V62.54h3.74v-9.278a8.87 8.87 0 0 1 2.16-.318c.803 0 1.27.212 1.27 1.173v8.415h3.74V53.12c0-1.835-.732-3.22-3.458-3.22ZM70.743 50.227h-3.731v12.312h3.73V50.227ZM71.563 56.383c0 3.695 2.028 6.491 6.094 6.491a5.503 5.503 0 0 0 3.687-1.04v-2.347c-.998.21-2.015.31-3.034.3-1.923 0-2.884-1.314-2.884-3.404s.96-3.44 2.884-3.44c1.02-.01 2.037.093 3.034.309v-2.32a5.547 5.547 0 0 0-3.687-1.032c-4.066 0-6.094 2.796-6.094 6.483ZM89.663 49.902a6.094 6.094 0 0 0-3.713 1.2v-3.529c0-.882-.31-1.41-1.244-1.41h-2.487V62.54h3.73v-9.278a8.822 8.822 0 0 1 2.161-.318c.794 0 1.262.212 1.262 1.173v8.415h3.74V53.12c0-1.835-.733-3.22-3.45-3.22ZM70.1 46.188h-2.434a.811.811 0 0 0-.803.81v1.377a.802.802 0 0 0 .803.802H70.1a.803.803 0 0 0 .803-.802v-1.376a.811.811 0 0 0-.803-.812Z" fill="#E30613" /><path d="M97.107 44.478a8.325 8.325 0 0 0-4.63 1.314v2.443a19.005 19.005 0 0 1 3.333-.353c1.764 0 2.84.52 2.84 1.932 0 1.41-.626 1.667-1.684 2.575-1.297 1.129-2.417 1.65-2.417 4.11v1.667h3.731V56.94c0-1.446.75-1.967 1.993-2.972a5.562 5.562 0 0 0 2.232-4.657c0-2.787-1.835-4.833-5.398-4.833ZM97.582 59.206h-2.329a.882.882 0 0 0-.882.882v1.623a.882.882 0 0 0 .882.882H97.6a.882.882 0 0 0 .882-.882v-1.65a.882.882 0 0 0-.882-.881M25.206 79.35l-1.694 1.816 2.117 1.967 1.71-1.817.574.538-4.101 4.349-.573-.53 1.896-2.037-2.117-1.976-1.852 2.047-.564-.53 4.039-4.357.565.53ZM29.335 87.729a2.09 2.09 0 0 1-3.078.494 2.037 2.037 0 0 1-.309-2.99 2.09 2.09 0 0 1 3.07-.538 2.03 2.03 0 0 1 .317 3.034Zm-2.743-2.038a1.446 1.446 0 0 0 .044 2.09 1.473 1.473 0 0 0 2.047-.52 1.342 1.342 0 0 0-.062-2.095 1.341 1.341 0 0 0-2.029.525ZM32.369 84.81l.644.433-3.528 5.195-.653-.441 3.537-5.186ZM30.578 91.133l2.276-3.616.652.415-2.266 3.616-.662-.415Zm3.643-4.172a.45.45 0 0 1-.67.142.468.468 0 0 1-.142-.653.458.458 0 0 1 .67-.15.45.45 0 0 1 .142.661ZM38.623 88.567l-2.461 4.507c-.185.335-.388.714-.503.978l-.617-.335.326-.661a1.58 1.58 0 0 1-1.684 0 1.942 1.942 0 0 1-.556-2.778 2.038 2.038 0 0 1 2.796-1.076 1.42 1.42 0 0 1 .811 1.2l1.19-2.18.698.345Zm-2.461 2.884c.058-.096.103-.2.132-.309a1.164 1.164 0 0 0-.555-1.332c-.706-.388-1.464 0-1.923.82a1.358 1.358 0 0 0 .353 1.994 1.164 1.164 0 0 0 1.446-.256c.074-.084.139-.176.194-.273l.353-.644ZM38.887 95.613l.176-.52a1.623 1.623 0 0 1-1.464 0 1.218 1.218 0 0 1-.67-1.667c.432-.935 1.508-1.058 3.016-.353v-.08a.883.883 0 0 0-.467-1.305 2.205 2.205 0 0 0-1.147-.185l.053-.538c.493-.05.99.035 1.438.247a1.518 1.518 0 0 1 .75 2.302l-.671 1.447c-.15.309-.275.63-.37.96l-.644-.308Zm.82-2.028c-.767-.37-1.711-.644-2.055.106a.68.68 0 0 0 .353.978 1.066 1.066 0 0 0 1.243-.202.882.882 0 0 0 .141-.212l.318-.67ZM42.335 92.448l-.053 2.698c0 .3 0 .653-.062.882.168-.211.37-.476.582-.723l1.711-2.02.767.3-2.205 2.4a6.438 6.438 0 0 1-2.355 1.948 2.011 2.011 0 0 1-1.075.115l.061-.68c.26.02.521-.012.768-.096.35-.116.67-.309.934-.565a.706.706 0 0 0 .124-.15.882.882 0 0 0 0-.211v-4.243l.803.345ZM50.272 99.416a3.75 3.75 0 0 1-1.596-.167 2.779 2.779 0 0 1-1.994-3.714 2.962 2.962 0 0 1 3.863-2.125c.476.117.92.34 1.297.652l-.362.547a2.892 2.892 0 0 0-1.084-.573 2.223 2.223 0 0 0-2.929 1.702 2.17 2.17 0 0 0 1.544 2.937c.407.13.836.174 1.261.133v.608ZM55.29 98.508a2.091 2.091 0 0 1-2.576 1.764 2.038 2.038 0 0 1-1.36-.948 2.03 2.03 0 0 1-.2-1.645 2.09 2.09 0 0 1 2.566-1.764 2.02 2.02 0 0 1 1.57 2.593Zm-3.334-.68a1.455 1.455 0 0 0 .961 1.861c.732.16 1.429-.405 1.632-1.34a1.446 1.446 0 0 0-.882-1.879c-.962-.176-1.535.573-1.711 1.358ZM56.216 97.757c.062-.441.097-.803.115-1.155l.68.088-.054.688a1.464 1.464 0 0 1 1.438-.6 1.27 1.27 0 0 1 1.094 1.005c.143-.2.33-.366.546-.485.296-.17.643-.233.98-.176.564.08 1.349.556 1.155 2.028l-.335 2.496-.759-.105.318-2.4c.114-.81-.124-1.34-.741-1.42a1.006 1.006 0 0 0-1.014.574c-.052.122-.09.25-.115.38l-.344 2.645-.759-.097.344-2.54c.088-.67-.15-1.2-.732-1.279a1.076 1.076 0 0 0-1.067.644c-.055.117-.09.242-.106.37l-.344 2.549-.758-.097.458-3.113ZM63.263 98.807v-1.394h.705v.733a1.684 1.684 0 0 1 1.561-.75 1.932 1.932 0 0 1 1.755 2.293c-.07 1.535-1.05 2.249-2.055 2.196a1.484 1.484 0 0 1-1.288-.732l-.123 2.32h-.767l.212-4.666Zm.714 1.182a1.75 1.75 0 0 0 0 .317 1.198 1.198 0 0 0 1.12.962c.82 0 1.332-.6 1.385-1.579.053-.979-.37-1.614-1.2-1.65a1.252 1.252 0 0 0-1.226.883c-.034.102-.055.21-.061.317l-.018.75ZM70.604 101.885l-.07-.538a1.584 1.584 0 0 1-1.306.653 1.228 1.228 0 0 1-1.314-1.208c0-1.032.882-1.606 2.567-1.623v-.088a.882.882 0 0 0-.988-.97 2.144 2.144 0 0 0-1.111.334l-.186-.511a2.735 2.735 0 0 1 1.403-.397c1.314 0 1.649.882 1.658 1.764v1.596c-.003.343.023.685.08 1.024l-.733-.036Zm-.15-2.196c-.882 0-1.764.159-1.764.988a.69.69 0 0 0 .741.732 1.066 1.066 0 0 0 1.032-.732.815.815 0 0 0 .044-.247l-.053-.74ZM72.244 98.727c0-.442-.062-.803-.115-1.147l.688-.053.097.697a1.587 1.587 0 0 1 1.358-.882c.591 0 1.535.238 1.64 1.702l.186 2.54-.776.062-.177-2.46c-.053-.689-.352-1.236-1.085-1.183a1.11 1.11 0 0 0-.987.882 1.217 1.217 0 0 0 0 .37l.194 2.558-.785.053-.238-3.14ZM77.614 95.879a.469.469 0 0 1-.441.529.459.459 0 0 1-.52-.415.487.487 0 0 1 .42-.57.486.486 0 0 1 .541.456Zm-.247 5.574-.52-4.234.767-.176.511 4.242-.758.168ZM79.53 99.123a1.367 1.367 0 0 0 1.693 1.217 2.748 2.748 0 0 0 1.137-.414l.22.529c-.414.261-.88.43-1.366.494a1.979 1.979 0 0 1-2.185-.956 1.983 1.983 0 0 1-.25-.808 2.081 2.081 0 0 1 1.615-2.646 1.764 1.764 0 0 1 2.072 1.693c.01.12.01.242 0 .362l-2.937.53Zm2.16-.882a1.104 1.104 0 0 0-1.27-1.067 1.288 1.288 0 0 0-.97 1.438l2.24-.37ZM83.507 99.636a2.02 2.02 0 0 0 1.076.08c.555-.124.75-.459.67-.803-.08-.344-.335-.512-.944-.59-.82-.098-1.26-.433-1.376-.936a1.322 1.322 0 0 1 1.182-1.543 2.187 2.187 0 0 1 1.085 0l-.07.6a1.613 1.613 0 0 0-.882-.053c-.45.097-.644.414-.574.723.07.308.362.44.953.529.785.115 1.244.397 1.376 1.014.132.618-.291 1.376-1.288 1.597a2.45 2.45 0 0 1-1.243 0l.035-.618ZM88.523 93.056l.732-.22 1.147 3.81c.45 1.508-.16 2.196-1.147 2.496-.268.081-.55.114-.829.097l-.07-.635c.22.017.44-.007.652-.07.662-.203.97-.61.635-1.765l-1.12-3.713ZM95.15 95.835c.15.415.29.777.432 1.076l-.653.239-.282-.636a1.64 1.64 0 0 1-1.068 1.235c-.634.23-1.516.159-2.037-1.252l-.882-2.346.732-.265.812 2.223c.273.758.696 1.19 1.358.944a1.13 1.13 0 0 0 .732-1.015 1.296 1.296 0 0 0-.07-.397l-.883-2.46.741-.265 1.067 2.92ZM94.3 90.656l.724-.308 2.425 5.777-.723.3-2.425-5.769ZM97.098 91.619l1.932 1.879c.212.211.45.467.626.67 0-.265-.097-.6-.132-.882l-.309-2.646.74-.353.257 3.255a6.53 6.53 0 0 1-.177 3.042 2.166 2.166 0 0 1-.652.882l-.459-.511c.192-.18.347-.396.459-.635.152-.335.227-.7.22-1.067a.536.536 0 0 0 0-.194.749.749 0 0 0-.132-.16l-3.131-2.866.758-.414ZM103.88 92.986l-.247-.406.221-.82c.546-1.958.74-2.928.299-3.678a1.015 1.015 0 0 0-.687-.558 1.023 1.023 0 0 0-.865.188 1.94 1.94 0 0 0-.802 1.04l-.494-.335a2.522 2.522 0 0 1 1.102-1.34 1.615 1.615 0 0 1 2.364.52c.547.882.326 2.037-.115 3.66l-.176.6 2.214-1.332.335.556-3.149 1.905ZM109.119 86.088c1.12 1.596 1.146 2.893.097 3.625-.882.652-2.144.229-3.246-1.314-1.103-1.544-1.041-2.92-.079-3.59.961-.67 2.178-.212 3.228 1.279Zm-2.514 1.87c.882 1.217 1.764 1.649 2.302 1.234.538-.414.432-1.428-.406-2.646-.838-1.217-1.64-1.702-2.302-1.234-.661.467-.485 1.367.406 2.646ZM111.183 88.224l-.3-.37.097-.883c.256-2.01.309-2.999-.238-3.678a1.028 1.028 0 0 0-.764-.456 1.021 1.021 0 0 0-.832.315 1.99 1.99 0 0 0-.635 1.147l-.538-.265a2.546 2.546 0 0 1 .882-1.482 1.62 1.62 0 0 1 1.907-.267c.202.11.379.261.518.444.67.82.617 1.967.415 3.634l-.097.617 2.002-1.64.405.502-2.822 2.382ZM112.151 80.761l-.353 1.085-.521-.326.45-1.358.485-.459 3.952 4.154-.547.52-3.466-3.615Z" fill="#1D1D1B" /></g><defs></defs></symbol><linearGradient id="which_b" x1="24.731" y1="99.054" x2="112.778" y2="11.006" gradientUnits="userSpaceOnUse"><stop stop-color="#B8B8B8" /><stop offset="1" stop-color="#EDEDED" /></linearGradient><linearGradient id="which_c" x1="26.926" y1="96.858" x2="110.581" y2="13.203" gradientUnits="userSpaceOnUse"><stop stop-color="#DBDBDB" /><stop offset="1" stop-color="#fff" /></linearGradient><linearGradient id="which_d" x1="38.896" y1="84.89" x2="98.614" y2="25.171" gradientUnits="userSpaceOnUse"><stop stop-color="#fff" /><stop offset="1" stop-color="#D1D1D1" /></linearGradient><linearGradient id="which_e" x1="41.056" y1="82.728" x2="96.452" y2="27.331" gradientUnits="userSpaceOnUse"><stop stop-color="#DBDBDB" /><stop offset="1" stop-color="#fff" /></linearGradient><clipPath id="which_a"><path fill="#fff" transform="translate(0 .025)" d="M0 0h137.509v110H0z" /></clipPath></defs></svg>