<?xml version="1.0" encoding="UTF-8"?><svg id="Layer_1" xmlns="http://www.w3.org/2000/svg" xmlns:xlink="http://www.w3.org/1999/xlink" viewBox="0 0 141.73 141.73"><defs><style>.cls-1{fill:none;}.cls-2{clip-path:url(#clippath);}.cls-3{fill:#fff;}.cls-4{clip-path:url(#clippath-1);}</style><clipPath id="clippath"><rect class="cls-1" x="10.51" y="37.01" width="120.7" height="63.4"/></clipPath><clipPath id="clippath-1"><rect class="cls-1" x="10.51" y="37.01" width="120.71" height="63.4"/></clipPath></defs><g id="Layer_1-2"><g class="cls-2"><g class="cls-4"><path class="cls-3" d="m10.96,92.11h112.77v-.21H10.96v.21Zm84.63-10.38v-.32h-.32l.21.32h.11Zm-82.6-3.85h-.21c.12.12,0,.05.21.11v-.11Zm105.28-17.33v.21h.11c-.06-.21.01-.09-.11-.21m-76.82,11.88c.12-.28.19-.51.21-.86h.21c.02-.27,0-.37.11-.53h.11v-.32h.11v-.32h.11v-.43h.11v-.21h.11v-.43h.11c.04-.14.07-.29.11-.43h.11c.04-.25.07-.5.11-.75h.11l.11-.43h.11c.04-.18.07-.36.11-.53.07-.04.14-.07.21-.11.04-.32.07-.64.11-.96.18-.14.36-.29.53-.43v-.43c.07-.04.14-.07.21-.11v-.53h.11l.11-.43.43.11c.06.21-.02.09.11.21l.11-.32s-.17-.11-.11-.32h.11v-.21h.11c-.04-.14-.07-.29-.11-.43.02-.06.33-.66.32-.75h-.11v-.32c-.11-.07-.21-.14-.32-.21v-.64h-.43v-.21c-.28-.02-.37-.01-.54-.11v-.11h-.53v-.43c-.87-.06-1.22-.43-2.14-.43v.64h-.32c-.09.12.01.02-.11.11v.43h-.21c-.04.11-.07.21-.11.32-.11.07-.21.14-.32.21v.21c-.18.3-.33.42-.32.96-.11.04-.21.07-.32.11-.11.32-.21.64-.32.96h-.11v.21h-.11c-.07.36-.14.71-.21,1.07h-.11c-.04.14-.07.29-.11.43h-.11v.32c-.16.4-.32.68-.32,1.28h-.21c-.04.18-.07.36-.11.53h-.11v.54h-.11c-.04.14-.07.29-.11.43h-.11v.43c-.07.04-.14.07-.21.11-.13.22.02.47-.11.75-.07.04-.14.07-.21.11v.53h-.21c.04.21.07.43.11.64-.21.06-.09-.01-.21.11h-.11c-.04.21-.07.43-.11.64l-.21.11.11.43h-.11c-.04.18-.07.36-.11.53h-.11c-.04.14-.07.29-.11.43h-.11c-.04.36-.07.71-.11,1.07h.11c0,.69.22.95.64,1.18v.21c.25-.03.26-.05.43-.11.06.11.19.18.21.21v.32h.11v.11l.54.11c.04.07.07.14.11.21.21.07.43.14.64.21.39.22.21.4.86.43.03-.66.11-.56.32-.96v-.21h.11v-.32c.11-.07.21-.14.32-.21v-.21h.11v-.43h.11v-.21c.07-.04.14-.07.21-.11v-.53h.11v-.21c.18-.14.36-.29.53-.43l-.11-.43h.11v-.43h.11v-.11s-.17-.12-.11-.32h.11Zm7.17-8.99l-.21.11.11.32h-.11v.32h-.11v.32c-.11.07-.21.14-.32.21-.16.37.23.46.21.64h-.11c-.12.42-.31.37-.32.96l-.32.11c-.04.22-.11.21-.11.21v.64c-.18.11-.36.21-.53.32v.21h-.11v.54c-.11.07-.21.14-.32.21v.32h-.11v.21h-.11c-.07.21-.14.43-.21.64h-.11v.32h-.11c-.07.21-.14.43-.21.64h-.11c-.04.39-.07.78-.11,1.18-.07.04-.14.07-.21.11v.32h-.11l-.11.43h-.11v.86h-.11v-.11c-.16.16-.07.02-.11.32h-.21c0,.3,0,.55-.11.75-.07.04-.14.07-.21.11.04.11.07.21.11.32h-.11c-.04.21-.07.43-.11.64h-.11c0,.29-.06.73.11.86.14.11.33-.03.43.11.1.15-.05.34.11.43l.32-.11v.11c.33.22.05.2.21.43h.11v.11c.11-.04.21-.07.32-.11l.11.32c.18-.04.36-.07.53-.11l.11.21c.19.08.38-.14.43-.11l.11.32h.21v.11c.47.25.75-.04,1.07-.21.04-.21.07-.43.11-.64.21-.06.09.01.21-.11.47-.13.37-.34.53-.75h.11v-.43l.21-.11c.07-.21.14-.43.21-.64l.21-.21v-.21c.07-.04.14-.07.21-.11v-.32h.11v-.21h.11c.04-.43.07-.86.11-1.28.21-.06.09.01.21-.11.42-.12.14-.03.32-.32h.11v-.21h.11v-.21h.11v-.32l.21-.11v-.21h.11v-.21l.21-.21v-.21c.07-.04.14-.07.21-.11.04-.18.07-.36.11-.53.07-.04.14-.07.21-.11.11-.36.21-.71.32-1.07.42-.12.14-.03.32-.32h.11v-.21l.21-.11c.29-.3.65-.58.75-1.07h.21c.14-.29.28-.57.43-.86h.21l.11-.32c.11-.07.21-.14.32-.21v-.21c.11-.07.21-.14.32-.21v-.21h.11v-.11c.25-.21.2.12.32-.32h.21c.04-.11.07-.21.11-.32l.32-.21c.04-.11.07-.21.11-.32h.21c.07-.11.14-.21.21-.32l.43-.11.11-.21h.21v-.11h.21v-.11h.32v-.11h.32v-.11h.32v-.11c.32-.16.5-.19.96-.21.36-.02,1.29-.29,1.6,0,.23,0,.44.02.54-.11v-.32h.11c.04-.14.07-.29.11-.43-.47-.06-.29-.16-.75-.21.06-.21-.01-.09.11-.21-.01-.28-.04-.36-.11-.53-.49.06-.26.1-.53.32-.06-.16-.09-.17-.11-.43h-.32c-.1-.25-.09-.38-.32-.53v-.11s-.58.1-.75.11v-.21c-.25-.04-.5-.07-.75-.11l-.11.11v-.11c-.25-.08-.64-.2-.86,0h-.53v.11h.11v.11l-.32-.11v.21h-.64c.04.11.07.21.11.32-.4.06-.24.06-.64,0v.32h-.75v.53c-.23-.13-.32-.26-.64-.32-.04.11-.07.21-.11.32h-.11v.32h-.11v.11c-.14-.04-.29-.07-.43-.11v.21h-.21c.04.11.07.21.11.32-.11.04-.21.07-.32.11v.32c-.28.01-.36.04-.54.11v.53c-.21.04-.43.07-.64.11.1-.4.75-1.47.43-1.82-.02-.46-.07-.36-.21-.64-.26-.05-.39-.1-.75-.11-.06-.21.01-.09-.11-.21-.04-.11-.07-.21-.11-.32-.38-.02-.66-.17-.96,0v.11c-.11.07-.21.14-.32.21v.21h-.11v.21c-.11.07-.21.14-.32.21-.04.14-.07.28-.11.43l-.43.32c-.14.5-.29,1-.43,1.5m33.6-6.1h-.21v.21h.21v-.21Zm-35.09-2.46v.21h.11c-.06-.21.01-.09-.11-.21m83.13-.64v.32h.32c-.08-.29-.03-.24-.32-.32m-42.05,8.77v-.11h.32v-.21c.21-.06.09.01.21-.11h.11v-.32h.21c.08-.29.03-.24.32-.32v-.32h-.11l.11-.11c-.04-.07-.07-.14-.11-.21.25-.14.5-.29.75-.43v-.21h.53c.18-.25.36-.5.54-.75.21-.04.43-.07.64-.11.04-.11.07-.21.11-.32.17-.22.48-.29.64-.53h.21c.17-.63.43-.26.86-.53l.21-.32h.43v-.11h.21c.11-.14.21-.29.32-.43h.21l.21-.21h.21v-.11h.21c.07-.11.14-.21.21-.32h.64v-.11h.21v-.11h.43l.11-.21h.53v-.11c.28.07.31.11.43.32.12.16-.13.44.21.75v.11h-.21c-.04.07-.07.14-.11.21h-.11v.32c-.14.11-.29.21-.43.32-.04.11-.07.21-.11.32h-.21c-.18.32-.36.64-.54.96l-.43.11c-.18.21-.36.43-.53.64h-.32c-.04.11-.07.21-.11.32l-.32.21v.11h-.32v.11h-.21c-.04.07-.07.14-.11.21h-.32c-.04.07-.07.14-.11.21-.27.19-.19-.11-.32.32-.7.09-.9.51-1.71.53v.21c-.25.04-.5.07-.75.11-.04.07-.07.14-.11.21h-.53c-.04.07-.07.14-.11.21h-1.18c-.36.11-.64.22-1.18.21.05-.23.07-.3.21-.43m43.01-7.06v-.32h-.32v.11h-.11v-.32c.21-.06.09.01.21-.11h.11v-.11h-.43c-.04-.18-.07-.36-.11-.53h-.43c-.12-.07-.04-.29-.11-.43h-.11v-.32h-.11c-.15-.21-.21-.26-.21-.64-.29.06-.27.2-.43.21-.1-.06-.04-.2-.21-.21-.12.06-.04.27-.32.21v-.11h-.21v-.11h-.53v-.11c-.18.04-.36.07-.54.11v.11h-.11v-.11h-.11v.11c-.14-.04-.28-.07-.43-.11v.21c-.16-.05-.46-.19-.75-.11v.11h-.54l-.11.21h-.21v.11c-.78.11-1.57.21-2.35.32v.21c-.11.04-.21.07-.32.11v.11h-.21v.11h-.54v.11h-.21c-.04.07-.07.14-.11.21h-.32v.11c-.11.04-.21.07-.32.11v.43c-.49.02-.46.02-.75.21v.11h-.64c-.04.07-.07.14-.11.21h-.64l-.11.21c-.28.25-.57.39-1.07.43-.04.11-.07.21-.11.32-.44.12-.12.05-.32.32-.06.08-.14.06-.21.21-.36,0-.48.06-.75.11v.21l-.54.11c-.04.14-.07.29-.11.43-.38.04-.42.15-.75.21-.13.43-.22.21-.43.54h-.32c-.09.39-.22.5-.53.64h-.32c-.11.14-.21.29-.32.43h-.11v.21c-.29.21-.57.43-.86.64v.32h-.21v.21h-.32c-.08.29-.03.24-.32.32-.11.39-.34.43-.43.86h-.32v.32h-.32v.21c-.16.3-.36.04-.43.64-.16-.06-.17-.09-.43-.11v.32c-.21.06-.09-.01-.21.11h-.11v-.43h-.11v-.43h.11v.11c.22-.04.1,0,.21-.11h.11v-.11h-.21c-.04-.14-.07-.29-.11-.43h-.11v-.43h-.11v-.21h-.11c-.04-.11-.07-.21-.11-.32-.14.04-.29.07-.43.11-.04-.18-.07-.36-.11-.54h-.11v-.11h-.53c.03-.25.05-.26.11-.43-.21-.07-.54-.11-.75.11-.6-.02-.86.06-.96.53h-.21v-.21c-.21.06-.09-.01-.21.11h-.11l.11.21h-.21c-.07.29-.14.24-.21.53-.16-.06-.17-.09-.43-.11v.21h-.32v.11c-.21.13-.27.25-.32.53-.39.04-.46.08-.54.43h-.21c-.04.38-.15.42-.21.75-.41-.07-.34-.07-.75,0l.11.43c-.53.04-.46.22-.86.32-.15.53-.28.29-.64.54-.14.18-.28.36-.43.53h-.21c-.14.18-.29.36-.43.54-.11.07-.21.14-.32.21v.11h-.21c-.21.32-.43.64-.64.96h-.21c-.04.39-.08.46-.43.54-.15.51-.1.12-.43.32l-.21.32h-.32c-.04.07-.07.14-.11.21-.22.2-.4.36-.75.43v.32c-.29.06-.6.23-.75.43-.04.11-.07.21-.11.32l-.64.11c-.04.07-.07.14-.11.21-.35.23-.34.12-.53.54h-.43c-.08.29-.03.24-.32.32-.06.21.01.09-.11.21v.11h-.64v.11c-.18.12-.15.07-.21.32-.18-.04-.36-.07-.53-.11-.04.11-.07.21-.11.32-.13.14-.37.1-.64.11-.04.11-.07.21-.11.32-.25.03-.27.02-.43.11v.11h-.43v.11h-.11v-.11h-.11v.11h-.54c-.04.07-.07.14-.11.21h-.43v.11h-.43v.11c-.28.04-.57.07-.86.11l-.11.21h-.21v.11h-1.18c-.31.09-.78.2-1.18.21v-.32h-.32c-.04-.46-.07-.93-.11-1.39l-.21-.11c-.04-.15.03,0,.11-.11v-.54h-.11c.04-.14.07-.29.11-.43l-.21-.11v-.43h.11c-.04-.39-.07-.78-.11-1.18h.11c.04-.14.07-.29.11-.43h.11v-.53l.21-.11c.04-.11.07-.21.11-.32h.11c.04-.29.07-.57.11-.86l.21-.11v-.32h.11c.12-.17.15-.18.21-.43h.43v.11h.54l-.11-.21c.36.04.35,0,.43.32h.11v-.32c1.05-.21,2.53-.64,3.64-.43v-.21c.25-.04.5-.07.75-.11,0,0,.1.16.32.11v-.11h.32v-.21c.35-.01.61.01.86-.11v-.11h.21v-.11c.46-.04.93-.07,1.39-.11v-.11h.32v-.11h.21v-.11h.43c.04-.07.07-.14.11-.21h.54v-.11h.21v-.11c.11-.04.21-.07.32-.11v-.32c.37-.06.2-.11.54,0,.18-.21.36-.43.53-.64h.21l.11-.21h.43l.11-.21c.46-.29.7-.1.86-.75.29-.08.24-.03.32-.32.34-.08.39-.14.43-.53.93,0,.5-.26.86-.75l.54-.32v-.21h.11v-.21h.11v-.64c.07-.04.14-.07.21-.11.04-.29.07-.57.11-.86h.21c-.07-.21-.14-.43-.21-.64h-.11c.04-.11.07-.21.11-.32-.07-.04-.14-.07-.21-.11v-.43h-.11c-.11-.23-.03-.26-.21-.43l.11-.54h-.32c-.05-.23-.07-.3-.21-.43-.08-.29-.03-.24-.32-.32v-.21c-.35-.1-.51-.33-.75-.53v-.11h-.21c-.11-.14-.21-.29-.32-.43h-.21c-.04-.07-.07-.14-.11-.21h-.32l-.11-.21-.43.11v-.11h-.21v-.11c-.18-.04-.19.1-.21.11h-.64c-.26,0-.3-.1-.43-.11h-.11v.11c-.11-.07-.21-.14-.32-.21v.11h-.21v.11c-.32.11-.64.21-.96.32v.32c-.24.03-.27.02-.43.11v.11c-.25.04-.5.07-.75.11l-.11.21c-.28.04-.57.07-.86.11v.11h-.21c-.36.18-.35.32-.96.32v.21c-.34.09-.37.21-.86.21v.21c-.11.04-.21.07-.32.11l-.11.21h-.21l-.21.21h-.21v.11h-.21v.11h-.21c-.07.11-.14.21-.21.32h-.11v-.11l-.54.11v.54c-.32.08-.24.18-.32.21l-.75.11v.11h-.43v.11s.22,0,.11.11h-.21c-.04.11-.07.21-.11.32l-.21.21h-.21l-.43.54c-.18-.04-.23-.1-.53-.11-.14.39-.29.78-.43,1.18h-.53v.43c-.16-.06-.17-.09-.43-.11v.43h-.11v.11h-.21c-.07.28-.11.31-.32.43v.53c-.17-.16-.61.05-.75.21.08.3.06.07,0,.43h-.21v.32h-.11c-.25.3-.28.06-.32.64h-.21c-.08.3-.19.41-.43.53-.09.06,0,.13-.21.11v-.11h-.75v-.11h-1.18v-.11h-.43v-.11h-.21v-.11c-.32-.09-.48.24-.64.21-.07-.11-.14-.21-.21-.32-.11.04-.21.07-.32.11v-.11h-.21v-.11h-.32v-.11h-.21v-.11h-.21v-.11c-.15-.1-.19-.08-.43-.11v-.21c-.29-.07-.24-.14-.53-.21v-.21c-.11.04-.21.07-.32.11-.3-.17-.04-.35-.64-.43v.21h-.43v.11c-.21.06-.09-.01-.21.11h-.11v.32c.51.15.13.09.32.43l.21.11c.04.11.07.21.11.32h.43v.32h.32v.32c.32.11.64.21.96.32v.21c.27.03.5.06.64.21.04.11.07.21.11.32.17.08.32-.11.32-.11.14.04.29.07.43.11v.32h.32v-.21c.11-.11.11.11.11.11h.32v.11h.53l.21.32h.43v.11s.42-.02.21-.11c-.03-.15-.1.04-.11-.11h.21l.11.21c.21-.04.43-.07.64-.11-.04.18-.07.36-.11.53h-.11l-.11,1.61c-.11.04-.21.07-.32.11v.32h.11v.86h-.11v-.21h-.21c.02.28.02.37.11.54h.11c.08.21-.11.32-.11.32v.11h.11c.02.22-.1.33-.21.43.12.12,0,.05.21.11-.06.21.01.09-.11.21.06.21-.02.09.11.21v.11h.32v1.07h.11v.21c.18.14.36.28.54.43.07.32.14.64.21.96l.43.32c.04.14.07.28.11.43.18.14.36.29.53.43v.21c.36.32.71.64,1.07.96l.32.43c.36.04.71.07,1.07.11v.11h.21v.11h.21v.11c.21.07.43.14.64.21v.11c.75.04,1.5.07,2.25.11.25.04.5.07.75.11v-.11h.32v-.11c.32-.04.64-.07.96-.11v-.11l.43-.11v-.11h.32v-.11h.21l.11-.21h.21v-.11c.5-.11,1-.21,1.5-.32v-.11c.18-.03.36-.07.54-.11l.11-.21h.21v-.11l.21.11.32-.43h.32v-.11h.21v-.11h.21l.11-.21c.14-.04.29-.07.43-.11v-.11c.09-.03.19.16.43,0,.11-.14.21-.29.32-.43.14-.04.28-.07.43-.11l.43-.54h.21l.11-.21h.11v-.21l.32-.11v-.11h.32l.11-.21c.13-.08.07.08.11.11h.11v-.11c.19-.11.45-.33.53-.53v-.43c.09-.15.29,0,.43-.11v-.11h.11v-.32c.31-.06.43-.17.64-.32v-.11c.58.12.21-.08.75-.21l-.11-.43h.11v-.21s.24.13.32,0v-.43s.16-.1.21-.21h.43c-.06-.21.01-.09-.11-.21v-.11c.11.04.21.07.32.11v-.32l.32-.11v-.21h.21c.02-.46.07-.36.21-.64h.32c.03-.25.05-.26.11-.43.07-.04.14-.07.21-.11l.11.32h.21v-.43h.54v-.21c.29-.08.24-.03.32-.32h.11v.54h.11c-.12.32.02.12-.32.11-.08.21-.03.42-.11.64h-.11c-.16.42-.22.71-.21,1.28h.21c-.03.25-.02.27-.11.43h-.11c-.04.57-.07,1.14-.11,1.71h-.11v.32h-.11v.43h-.11v.21h-.11v.86c-.24.82-.45,1.68-.43,2.78.14.12.2.29.32.43h.11v.21l.21.11v.11c.18.04.36.07.54.11v.11c.36-.04.4-.08.54-.32h.11c.04.11.07.21.11.32h.32l.11.21h.21v.11c.17.03.14-.19.21-.21.17-.05.2.1.21.11.13.02.19-.21.43-.11v.11c.13.09.13.07.21.21.27-.07.18-.06.32-.21h.11v-.21c.07-.04.14-.07.21-.11v-.32l.21-.11v-.53h.11v-.21h.11v-.32l.32-.21v-.32h.11v-.11c-.04-.06-.17-.01-.11-.21h.11v-.21h.11c.18-.47-.02-.82-.11-1.07l.32-.11v-.43h.11v-.32l.21-.11v-.64h.21c.07-.53.24-.52.43-.86v-.21h.11l.21-.64h.11c.04-.21.07-.43.11-.64h.11v-.21h.11v-.32c.07-.04.14-.07.21-.11v-.21h.11v-.32c.11-.07.21-.14.32-.21.11-.14.21-.29.32-.43h.11v-.21h.11c.15-.18.25-.26.32-.53h.11l-.11-.32c.18-.04.36-.07.53-.11-.04-.14-.07-.29-.11-.43.54-.26.34-.32.64-.75.11-.07.21-.14.32-.21v-.21c.11-.14.27,0,.43-.11.07-.14.14-.28.21-.43h.21l.11-.21h.21c.14-.11.12-.39.21-.53l.32-.21c.54-.56,1.02-1.2,1.93-1.39.04-.14.07-.29.11-.43.49-.01.66-.14.75-.54.4-.11.34-.22.54-.53h.11v-.21c.07-.04.14-.07.21-.11v-.11c.21-.04.43-.07.64-.11.12-.43.44-.42.64-.75h.32c.04-.11.07-.21.11-.32.4-.06.24-.06.64,0-.09-.14-.07-.13-.21-.21v-.11h.75c.07-.11.14-.21.21-.32h.32c.04-.07.07-.14.11-.21h.75c-.06-.21.01-.09-.11-.21v-.11c.22-.04.21-.11.21-.11h.53v-.11c.13-.02.19.2.43.11.04-.07.07-.14.11-.21.28-.14.29-.02.64,0v-.32h.11v-.21h.11v.32l.64-.11.11-.21h.53v-.11h.21v-.11c.64-.14,1.28-.29,1.93-.43.06-.21-.02-.09.11-.21v-.11h.11v.21h.32v-.32c.2-.09.31-.14.43-.32h.21v.11h.11c-.04.14-.07.28-.11.43.53,0,.68-.1.86-.43h.11v.43c.3-.08.23-.03.32-.32.27.25.03.26.53.32v-.32h-.11v-.11c.16.06.17.09.43.11m-77.46-7.06v-.11h-.21c.12.12,0,.05.21.11m-3.32-.21c.11.07.21.14.32.21v.21h.11l.21.32c.21.07.43.14.64.21v.11h.43c.04.07.07.14.11.21.06.03.61.18.75.11v-.11c.11-.04.21-.07.32-.11.04-.21.07-.43.11-.64h-.11c-.04-.18-.07-.36-.11-.53.07-.04.14-.07.21-.11.08-.19-.16-1.08-.21-1.18-.11-.07-.21-.14-.32-.21-.09-.13-.08-.45-.21-.53h-.21c-.06-.47-.16-.29-.21-.75-.63-.18-.29-.38-1.18-.21v.21h-.54v.11c-.11.04-.21.07-.32.11-.04.18-.07.36-.11.54h-.11c-.23.71.24,1.49.43,1.82v.21Zm11.66,17.55c-.04.4-.16.69-.43.86.12.12,0,.05.21.11v.32h-.32c.09.14.07.13.21.21-.21.46-.43.93-.64,1.39-.04.29-.07.57-.11.86l-.21.11v.11h.11c-.04.21-.07.43-.11.64l-.21.11v.43h-.11c-.04.25-.07.5-.11.75-.21.06-.09-.01-.21.11h-.11l.11.54-.21.11c-.3.48-.55.93-.53,1.71-.39.04-.46.08-.53.43h-.21v.11c.11,0,.18.09.11.21h-.11c.1.68.11.19.53.43.14.18.29.36.43.54h.43c.05.21.39.99.64.53l.11.32h.21c.11.1-.11.11-.11.11.04.07.07.14.11.21.14.09.53-.1.53-.11v.21l.96.32.11.32c.18.04.36.07.53.11.07-.24.09-.26.21-.43h.11v-.21h.11c.04-.28.07-.57.11-.86h.11v-.21h.11v-.32c.07-.04.14-.07.21-.11v-.32h.11v-.21h.11v-.64l.21-.11v-.43h.11c.04-.14.07-.29.11-.43h.11v-.32c.11-.07.21-.14.32-.21v-.32h.11v-.21h.11v-.32h.11v-.32h.11v-.53h.11v-.32h.11v-.53h.11v-.21h.11v-.32h.11v-.32h.11v-.32h.11v-.75c.11-.07.21-.14.32-.21v-.43h.11v-.21h.11c.04-.61.07-1.21.11-1.82.08-.24.26-.45.32-.75h.32c.08.29.17.33.32.53h.11c.04.32.07.64.11.96h.11c.09.15.08.18.11.43h.21v.32l.32.11c.05.33.07.34.21.54h.11v.32c.07.04.14.07.21.11.07.25.14.5.21.75h.21c.08.36.25.49.32.86h.21c.13.48.41.38.53.86.21.06.09-.01.21.11h.11v.32c.27.07.18.05.32.21h.11v.21c.07.04.14.07.21.11v.32h.11v.11h.32c.04.21.07.43.11.64h.32c.07.33.18.37.21.75.21.06.09-.01.21.11h.11v.32h.21v.21c.43.13.21.22.54.43v.21c.21.07.43.14.64.21l.11.43c.25.06.5.25.64.43h.11v.32h.21l.11.32c.28.25.57.5.86.75v.21c.48.07.68.38.96.64l.11.21c.21.07.43.14.64.21v.32l.32.21v.21l.21.21h.21l.21.32c.14.04.29.07.43.11l.11.21h.21c.14.18.29.36.43.53.14.04.29.07.43.11.07.11.14.21.21.32h.32c.07.11.14.21.21.32.11.04.21.07.32.11v.11c.32.07.64.14.96.21.07.11.14.21.21.32h.32l.11.21h.21l.11.21h.21l.21.32.32-.11v.11h.21c.07.11.14.21.21.32l.54.11c.06.21-.01.09.11.21v.11c.21.04.43.07.64.11.04.07.07.14.11.21.18.04.36.07.53.11v.11h.32v.11h.21l.11.21h.21v.11c.29.04.57.07.86.11.07.14.14.28.21.43.17-.05.18-.12.43,0v.11h.21v.11c.2.07.32-.11.32-.11l.43.11c.06.21-.02.09.11.21v.11c.18-.04.36-.07.54-.11.11.04.21.07.32.11.06.21-.02.09.11.21v.11c.29-.11.45-.19.86-.21v.21h.11v-.11c.31-.06.29-.2.32-.21l.32.11c.04-.07.07-.14.11-.21h.21c.06-.21-.01-.09.11-.21.09-.12-.01-.02.11-.11v.21h.21v-.43c.21-.07.43-.14.64-.21.07-.39.14-.78.21-1.18h.21v-.96h.21c.02-.57.19-.64.21-1.18h-.21v-.96h-.32v-.11h-.11v-.11h.21v-.32c-.36-.08-.49-.25-.86-.32-.04.18-.07.36-.11.54h-.11v.43h.11c.03.23-.11.21-.11.21v.53h-.11c-.21.45-.2.45-.11.96h-.21c-.12.46-.4.48-.43,1.07l-.43.11v.11l-.32-.11v.11h-.21v.11c-.35.11-.77-.16-.96-.21h-.64v-.11l-.43-.11v-.11h-.21l-.11-.21c-.14-.04-.28-.07-.43-.11l-.32-.43-.21-.11c-.04-.11-.07-.21-.11-.32h-.64l-.11-.21c-.19-.16-.35-.25-.64-.32v-.21h-.11c-.07.2.08.12-.11.21-.11-.21-.21-.43-.32-.64l-.32-.11-.11-.21c-.14-.04-.28-.07-.43-.11-.07-.14-.14-.28-.21-.43-.32-.11-.64-.21-.96-.32v-.11c-.17-.12-.18-.15-.43-.21-.08-.29-.03-.24-.32-.32-.11-.44-.78-.9-1.18-1.07v-.21c-.43-.13-.12-.08-.32-.32l-.32-.11v-.11c-.19-.15-.21-.18-.54-.21-.04-.14-.07-.29-.11-.43h-.21v-.21h-.21c-.07-.29-.15-.24-.21-.54-.24-.06-.26-.09-.43-.21v-.11h-.32l-.11-.21c-.21-.18-.43-.36-.64-.53v-.32h-.32v-.32c-.07-.04-.14-.07-.21-.11v-.21h-.11c-.11-.14-.21-.29-.32-.43h-.21l-.11-.21c-.14-.03-.29-.07-.43-.11-.04-.11-.07-.21-.11-.32l-.21-.11v-.21c-.14-.07-.29-.14-.43-.21l-.11-.43c-.18-.11-.36-.21-.54-.32-.04-.14-.07-.28-.11-.43l-.21-.11v-.21c-.07-.04-.14-.07-.21-.11-.04-.14-.07-.28-.11-.43h-.11c-.15-.19-.17-.21-.21-.54h-.21c-.18-.32-.36-.64-.53-.96h-.11v-.21l-.43-.11c-.05-.46-.23-.48-.32-.86h-.21c-.11-.32-.21-.64-.32-.96-.07-.04-.14-.07-.21-.11v-.32l-.21-.11v-.43h-.11v-.21h-.11v-.32c-.07-.04-.14-.07-.21-.11v-.32h-.11c-.15-.21-.26-.34-.32-.64h-.32l.11-.32h-.11v-.21l-.21-.11c-.04-.18-.07-.36-.11-.53l-.21-.11c-.16-.2-.2-.39-.21-.75l-.32-.11v-.32c.16-.03.73-.15.86-.21l.11-.21h.21v-.11c.11-.04.21-.07.32-.11v-.21h.75c.04-.07.07-.14.11-.21.14.04.28.07.43.11v-.21h.21v-.11c.06,0,.2.09.43.11.04-.11.07-.21.11-.32.43-.1.44-.3.96-.32.06.21-.02.09.11.21v.11h.11c.21-.22-.12-.2.32-.32v-.32h.11v-.11h.43c.07-.11.14-.21.21-.32h.32v-.11c.14-.04.29-.07.43-.11v.32c.21-.06.09.01.21-.11h.11c-.04-.07-.07-.14-.11-.21.25-.12.45-.25.64-.43.04-.07.07-.14.11-.21.25-.04.5-.07.75-.11v-.11c.32-.11.64-.21.96-.32v.21c.29-.08.24-.03.32-.32.21-.04.43-.07.64-.11v-.11c.21.07.43.14.64.21v-.11h.11c-.04-.07-.07-.14-.11-.21.25-.23.28.19.43-.32h.21v-.21h.75v-.32c.61-.14,1.21-.29,1.82-.43v-.11l.32-.11c.04-.07.07-.14.11-.21.13.02.28.2.53.11.04-.07.07-.14.11-.21.15.02.18.1.43.11v-.21c.32-.04.64-.07.96-.11-.1-.19-.15-.17-.21-.43.12-.12.05,0,.11-.21h-.21c.04-.11.07-.21.11-.32-.43-.21-.45-.5-.96-.32v-.32h.11c0-.06.06-.44-.11-.32v.11h-.11c-.06-.16-.09-.17-.11-.43-.21.06-.09-.01-.21.11h-.11c-.04-.21-.07-.43-.11-.64h-.11s.06-.34-.11-.21c0,0,0,.22-.11.11-.2-.21.12-.21-.32-.32-.06-.21.01-.09-.11-.21-.12-.43-.29-.27-.53-.53h-.53l-.11.21h-.43v.11h-.21v.11c-.21.04-.43.07-.64.11v.11h-.21v.11h-.32v.11c-.14.04-.29.07-.43.11v.11h-.64c-.04.07-.07.14-.11.21h-.21c-.04.07-.07.14-.11.21h-.21c-.04.07-.07.14-.11.21h-.21c-.04.07-.07.14-.11.21h-.21l-.11.21c-.14-.04-.28-.07-.43-.11v.11c-.18.04-.36.07-.53.11-.07.11-.14.21-.21.32h-.54v.11c-.14.04-.29.07-.43.11l-.11.21h-.32v.11h-.21v.11c-.32.04-.64.07-.96.11v.11h-.21c-.04.07-.07.14-.11.21h-.32v.11c-.14.04-.29.07-.43.11v.11h-.32c-.4.19-.19.4-.86.43l-.11.32c-.39.11-.78.21-1.18.32-.04.07-.07.14-.11.21h-.21c-.07.11-.14.21-.21.32-.43.14-.99.41-1.41.56,0-.77.2-.87.45-1.31h.21c.04-.18.07-.36.11-.53h.21c.06-.86.5-1.39.75-2.03.04-.29.07-.57.11-.86h.11l.11-.43h.11v-.32l.21-.11c.04-.29.07-.57.11-.86h.21c.18-.64.36-1.28.54-1.93.11-.07.21-.14.32-.21v-.21c.31-.54.44-.57.43-1.5h.21c.07-.32.14-.64.21-.96l.21-.11c.04-.21.07-.43.11-.64.07-.04.14-.07.21-.11.04-.21.07-.43.11-.64.07-.04.14-.07.21-.11v-.21h.11v-.32h.11v-.32h.11c.04-.14.07-.29.11-.43h.11v-.21l.21-.11v-.21h.11c.21-.64.43-1.28.64-1.93h.11c.04-.14.07-.29.11-.43h.11v-.43l.21-.11c.07-.32.14-.64.21-.96-.16-.06-.17-.09-.43-.11-.1-.88-.32-.28-.75-.54-.07-.14-.14-.29-.21-.43-.18-.04-.36-.07-.53-.11-.04-.07-.07-.14-.11-.21-.32-.21-.55-.32-1.07-.32-.06-.21.01-.09-.11-.21-.04.14-.07.29-.11.43-.14.04-.29.07-.43.11v.64c-.27.16-.37.38-.43.75-.17-.07-.25-.1-.53-.11-.04.39-.07.78-.11,1.18-.11.07-.21.14-.32.21-.04.28-.07.57-.11.86h-.21c-.07.32-.14.64-.21.96h-.21v.21h-.21v.32h-.32c-.15.37-.29.83-.32,1.28-.11.04-.21.07-.32.11l-.11-.11c-.08.32-.17.23-.21.32-.2.43.13.37-.32.64.12.12,0,.05.21.11-.04.29-.07.57-.11.86h-.32v.64c-.13.09-.06.15-.21.21v-.11h-.11v.32c-.43.13-.13.03-.32.32-.07.04-.14.07-.21.11-.02.07.21.78.21.86-.07.04-.14.07-.21.11v.32h-.11c-.04.14-.07.29-.11.43h-.11c-.04.18-.07.36-.11.53h-.11v.43h-.11v.43h-.11v.43h-.11c-.09.26.04.56-.11.75h-.11v.11l-.32-.11c-.04.29-.07.57-.11.86h.21c-.06.21.01.09-.11.21v.11l-.21-.11c.03.27.13.45,0,.86h-.11v.43h-.11v.32c-.11.07-.21.14-.32.21v.86h-.21c-.02.27-.01.37-.11.53h-.11c-.04.25-.07.5-.11.75h-.11v.32c-.07.04-.14.07-.21.11v.21h-.11c-.04.25-.07.5-.11.75h-.11v.21h-.11v.32h-.11v.64c-.16.49-.53.93-.64,1.5h-.32c.14.07.07.39,0,.53h-.11v.21l-.21.11c-.13.22.02.48-.11.75l-.21.11c-.04.32-.07.64-.11.96h-.32c.04.14.07.29.11.43-.07.04-.14.07-.21.11.02.15.1.18.11.43-.29.07-.24.14-.54.21-.06.62-.09.74,0,1.28h-.21Zm-51.14.86c.07.21.14.43.21.64.43.14.13.05.32.32l.21.11v.21h.11c.04.11.07.21.11.32h.43v.11h.21v.11h.32v.11h.21l.11.21c.25.04.5.07.75.11.04-.14.07-.29.11-.43h.21c-.04-.38-.15-.42-.21-.75h-.32v-.21h-.21v-.32h.21c.04-.11.07-.21.11-.32h.43l.11-.32c.34.03.5.11.75.21.17-.29.47-.37.64-.64h.54c-.04.39-.16.76-.32,1.07h-.11v.21h-.11c-.18.42.13.44,0,.86h-.11l-.11.54h-.21v.21h-.32v.21h.21c-.04.25-.07.5-.11.75h-.32v.21h.32c-.07.36-.14.71-.21,1.07-.07-.04-.14-.07-.21-.11-.03.15.11.21.11.21.02.23-.11.21-.11.21v.96h-.11v.21h-.11c-.1.15-.08.19-.11.43-.11-.04-.21-.07-.32-.11v.21c.07.04.14.07.21.11.08.21-.45,1.13-.53,1.18h-.21v.54h-.21v.43h.11v.11h-.11c-.06.21.01.09-.11.21v.11c-.11-.04-.21-.07-.32-.11.12.18.06.15.32.21v.43h.11v.11h-.21c.04.13.19.28.11.53-.1.32-.28.56-.32.96h-.32c-.04.39-.07.78-.11,1.18h-.11c-.05.21.11.32.11.32-.04.18-.07.36-.11.53-.21.06-.09-.01-.21.11h-.11c.04.07.07.14.11.21h-.21c.08.29.03.24.32.32.04.11.07.21.11.32.24.08.63.11.96,0,.04.11.07.21.11.32l.32.11v-.11h.21c.22.74.34.05.86.21v.11h.21v.11c.28.05.2-.15.32-.21l.32-.11c.07.14.14.29.21.43.11.1.06-.08.21.11.76.02.7-.07.96-.54h.11v-.75c.41.36.14-.69.11-.86.07-.04.14-.07.21-.11l.11.11c.01-.33,0-.52.11-.75h.11c.04-.18.07-.36.11-.53h.11v-.32h.11v-.21h.11c.04-.17-.11-.21-.11-.21.04-.18.07-.36.11-.53.21.06.09-.01.21.11h.11c.04-.21.07-.43.11-.64h-.11v-.11c.07.04.14.07.21.11.01-.49.05-1.13.21-1.5h.11v-.21h.11c.04-.11.07-.21.11-.32h-.32c.04-.21.07-.43.11-.64.11.04.21.07.32.11.1-.19.15-.17.21-.43.1-.14.01-.47,0-.86h.32c0-.33-.03-.55-.11-.75h.21v-.21c.11-.04.21-.07.32-.11.04-.18.07-.36.11-.53h.11v-.96h.11v-.21h.11c.09-.26-.11-.7-.11-.75h.11c.04-.14.07-.29.11-.43h.11v-.43h.11v-.21h.11c.04-.29.07-.57.11-.86h.11c.11-.25.11-.49.11-.86.12-.09.02.01.11-.11h.32v.11c.27.24.1.4.53.54.01.19.11.39.11.43h-.11v.32c.21.06.09-.01.21.11h.11v.43h.11c.17.32.15.43.53.54,0,.36.06.48.11.75h.21c.04.25.07.5.11.75.07.04.14.07.21.11v.21h.11v.21l.32.21v.21h.11v.21h.11c.18.29-.1.2.32.32.03.25.02.28.11.43h.11v.43h.11c.12.18.06.15.32.21.05.26.47,1.19.64,1.28h.32c.04.21.11.21.11.21v.64l.21.11.11.32h.11c.04.11.07.21.11.32h.32c.07.36.14.71.21,1.07.11.04.21.07.32.11-.04.11-.07.21-.11.32h.11c.12.21.15.25.43.32.08.29.03.24.32.32-.06.21.01.09-.11.21v.11h.43c.07.36.14.71.21,1.07.12.09.02-.01.11.11h.43v.32h.11v.11h.32c-.06.21.01.09-.11.21.04.11.07.21.11.32h.11v.21l.21.11v.21c.11.07.21.14.32.21v.21h.11l.11.32h.43c.18.32.36.64.53.96h.32c.04.11.07.21.11.32.18.14.36.28.54.43.18.21.36.43.53.64h.21l.21.32h.11v.21c.07.04.14.07.21.11v.11c.21.07.43.14.64.21.07.11.14.21.21.32h.21c.29.32.57.64.86.96l.64.21c.04.07.07.14.11.21.14.04.29.07.43.11l.11.21c.18.04.36.07.53.11.03.01.1.16.21.21v.21l.32.11v.11h.21v.11c.29.04.57.07.86.11v.21h.32v.21c.25.03.27.02.43.11v.11h.53v.11h.32v.11h.32v.11h.21v.11h.86v.11h.53v.11h.21v.11h1.28s.08.17.32.11v-.11h.64v-.11h.21v-.11h.32v-.11c.18-.04.36-.07.53-.11.32-.36.64-.71.96-1.07h.11v-.53h.11c.06-.09.2-.19.21-.21v-.21l.32-.21c.1-.23-.15-.32-.11-.43.07-.04.14-.07.21-.11-.04-.07-.07-.14-.11-.21h.11c.04-.18.07-.36.11-.53h-.11v-.32h-.11c.04-.11.07-.21.11-.32h-.11v-.11c.07.04.14.07.21.11.06-.16.09-.17.11-.43h-.21c-.07-.21-.14-.43-.21-.64h-.11l.11-.32h-.21c.25-.29-.04-.3-.11-.64-.25-.03-.26-.04-.43-.11v.21h-.32v.32l.32-.11v.21h-.43c-.03.3-.04.39-.21.54v.43l.21-.11-.11.32h-.11v.53h-.11c-.21.44-.21.45-.11.96h-.21c-.1.38-.33.47-.43.86-.42.05-.66.21-.96.32h-.32v.11l-.54-.11v-.21c-.4.02-.42.14-.86,0v-.11h-.53l-.11-.21h-.21v-.11h-.21c-.04-.07-.07-.14-.11-.21l-.43-.32c-.04-.11-.07-.21-.11-.32-.18-.04-.36-.07-.53-.11v-.21c-.05-.09-.8-.4-.96-.43v-.21h-.32c-.11-.42-.31-.45-.64-.64v-.11h-.21v-.11h-.21v-.11c-.11-.07-.21-.14-.32-.21v-.21c-.41-.11-.46-.3-.64-.64h-.11v-.32h-.11c-.3-.37-.14-.03-.43-.21v-.11c-.3-.24-.05-.09-.21-.32-.07-.04-.14-.07-.21-.11l-.11-.32h-.21c-.09-.38-.41-.71-.64-.96l-.21-.11c-.09-.13-.08-.45-.21-.54h-.21c-.06-.25-.09-.26-.21-.43h-.11c-.21-.38.15-.48-.43-.64-.21-.93-1.09-1.11-1.28-2.03h-.21l-.11-.54h-.21c-.34-.23.22-.55-.64-.75v-.43h-.43v-.32h-.21c-.04-.14-.07-.29-.11-.43h-.21v-.32h-.21v-.11c.11,0,.18-.09.11-.21h-.11c-.09-.32-.06-.28-.43-.32.11-.34.06-.16,0-.54h-.21c0-.31-.04-.46-.11-.64h-.43c.01-.24.11-.32.11-.43-.07-.04-.14-.07-.21-.11l.11-.21h-.21c-.18-.16-.27-.47-.32-.75h-.32v-.11h-.11l.11-.32h-.11c-.04-.18-.07-.36-.11-.53h-.32v-.11c-.15-.18-.03-.36,0-.75h-.32v-.21h-.11v-.11h.11v-.43h-.32c.06-.21-.01-.09.11-.21v-.43h-.11v-.11h-.32c-.07-.24-.09-.26-.21-.43h-.11v-.32h-.11v-.21h-.11v-.21l-.21-.11c-.14-.26.06-.29-.21-.54v-.11h-.32c-.02-.3,0-.55-.11-.75-.07-.04-.14-.07-.21-.11v-.32h-.11v-.32c-.03-.08-.18.03-.11-.11,0,0,.14,0,.21-.11-.16-.06-.17-.09-.43-.11v-.21h-.21c-.07-.21-.14-.43-.21-.64.36-.14.71-.29,1.07-.43v-.11h.21v-.11h.43v-.11h.21v-.11h.32v-.11c.11-.02.29.21.53.11.04-.07.07-.14.11-.21.37-.16.57.06.86-.21h.11v-.11l-.32.11v-.21c.18-.07.36-.14.54-.21.04.11.07.21.11.32h.21v-.32h.11v-.11c.1.04.32.21.53.11.07-.11.14-.21.21-.32h.21v-.11h.11v.11c.4.09.52.12.64-.32h.21v-.32c.21-.04.43-.07.64-.11.04-.07.07-.14.11-.21.29-.04.57-.07.86-.11v.11h.11v-.32h.11v-.11c.18-.04.36-.07.53-.11v-.11h.43v-.11c.24-.11.5-.12.86-.11v-.21h.75l.11-.21h.43v-.11h.32v-.11h.21v-.11h.43v-.11h.32v-.11h.11v.11s.42-.02.21-.11c-.03-.04-.04-.05-.04-.06-.03,0-.06.05-.07-.05.08.06.06.04.07.05.02,0,.03,0,.04.06.29-.04.17.07.32-.11h-.11c.04-.07.07-.14.11-.21h.54v.11h.11v-.11c.21-.04.43-.07.64-.11v-.32c.43-.07.86-.14,1.28-.21v-.21h.32v.11c.23-.19-.01-.11.11-.32.12.08.21.14.32,0-.04-.07-.07-.14-.11-.21.58-.01.7-.17,1.18-.21v.32h.11v.11h.11v-.43c.06-.14.06.04.11-.11h.43c.06.21-.01.09.11.21v-.21c.27-.01.38,0,.54-.11v-.11h.21c.04-.07.07-.14.11-.21.29-.16.21.12.43-.21.21.04.43.07.64.11v-.32c.25.07.5.14.75.21.09-.14.07-.13.21-.21v-.54c.24-.03.28-.01.43-.11v-.11h.21v-.11h.53s.13-.17.21-.21v.21h.43l.21-.32c.21-.07.43-.14.64-.21.07-.26.25-.51.32-.75-.04-.21-.07-.43-.11-.64h-.11c.04-.11.07-.21.11-.32h-.11c-.04-.18-.07-.36-.11-.54-.11-.04-.21-.07-.32-.11v.21c-.16-.06-.17-.09-.43-.11v-.21c-.11-.04-.21-.07-.32-.11-.11-.14-.21-.29-.32-.43h-.21c-.14-.21-.29-.43-.43-.64h-.32l-.11-.32c-.09-.11-.32-.19-.43-.32-.6.08-.34.25-.64.43h-.32c-.04.07-.07.14-.11.21-.19.17-.39.31-.64.43v.11c-.11-.04-.21-.07-.32-.11v.21h-.32v-.21h-.21c-.04.14-.07.29-.11.43h-.53v.21h-.43v-.21c-.35.01-.48.03-.64.21-.29.08-.24.03-.32.32h-.32c-.12.32.02.12-.32.11-.04.11-.07.21-.11.32h-.21c-.05.02-.03.19-.21.21v-.11h-.11v.21h-.21v-.21c-.14.04-.29.07-.43.11v.11h-.43v.11c-.44.13-.32.09-.21.43h-.43v-.21c-.21.04-.43.07-.64.11v.11c-.44.13-.32.09-.21.43l-.32.11v-.21c-.26.05-.39.1-.75.11-.1.33-.11.1,0,.43-.14-.03-.64-.22-.86-.11v.11c-.25.2-.02.19-.43.32v.21c-.21.04-.43.07-.64.11v.11h-.21v.11c-.15.03.04-.08-.11-.11-.22-.04-.64.03-.75.11-.04.11-.07.21-.11.32-.11.08-.19-.3-.43-.21v.11c-.29.18-.2.26-.64.32v.21c-.36.04-.71.07-1.07.11v.11h-.21c-.04.07-.07.14-.11.21h-.11v.21c-.11-.04-.21-.07-.32-.11l-.11.21h-.43v.11h-.21c-.04.11-.07.21-.11.32h-.11v-.21c-.39.08-.74.31-1.07.43h-.43v.11c-.14.04-.29.07-.43.11v.11h-.53v.11l-.43.11v.11h-.21c-.04.07-.07.14-.11.21-.14.04-.29.07-.43.11l-.21.32c-.11-.04-.21-.07-.32-.11l.11.21c-.18.03-.19-.1-.21-.11h-.54c.04-.18.07-.36.11-.53.21-.06.09.01.21-.11h.11v-.75h.11v-.43c.07-.04.14-.07.21-.11.04-.18.07-.36.11-.53h.21c.02-.3.07-.36.11-.54h-.11v-.11c.07-.04.14-.07.21-.11v-.21h.11v-.54h.11v-.64h.11v-.21h.11v-.32h.11v-.43h.11v-.21h.11v-.32l.32-.21-.11-.21h.21c.02-.27,0-.37.11-.53h.11v-.21h.11v-.32h.11c.04-.21.07-.43.11-.64h.11v-.21h.11v-.43c.07-.04.14-.07.21-.11.04-.21.07-.43.11-.64h.11v-.21h.11v-.21l.21-.11c.04-.21.07-.43.11-.64h.11v-.21c.11-.07.21-.14.32-.21v-.53h.11c.04-.18.07-.36.11-.53,0,0-.19-.12-.11-.32l.21-.11c.04-.14.07-.29.11-.43h.11c.04-.14.07-.29.11-.43h.11v-.43h.11c.12-.18.07-.15.32-.21.07-.34.17-.58.32-.86h.11v-.21h.11v-.21h.11c.07-.36.14-.71.21-1.07h.11v-.21h.11c.14-.39.29-.78.43-1.18.21-.04.43-.07.64-.11,0-.42,0-.67-.21-.86-.12-.41-.03-.15-.32-.32v-.11h-.32v-.11c-.44-.35-.29-.79-1.07-.86v-.21l-.32-.11c-.14-.18-.29-.36-.43-.53h-.53v-.11c-.83.05-.27.14-.53.64-.18.14-.36.29-.54.43-.04.25-.07.5-.11.75h-.11v.21c-.14.07-.29.14-.43.21v.75s-.25.19-.32.32h-.21c-.07.3-.22.51-.32.75v.32l-.21.11v.53c-.07.04-.14.07-.21.11-.36.35-.29.1-.21.64-.37.11-.35.36-.64.54-.04.11-.07.21-.11.32h.11v.32l-.11-.11c-.11.04-.21.07-.32.11v.21h-.11c-.02.21.17.01.21.21h-.11c-.09.25,0,.57-.11.86h-.11v.21h-.11l.11.32c-.44.06-.37.22-.75.32-.04.25-.07.5-.11.75h-.21c-.05.2-.09.42-.21.53l-.32.11v1.07h-.21c-.04.11-.07.21-.11.32h.11v.43c-.07.04-.14.07-.21.11v.43h-.11v.32c-.11.07-.21.14-.32.21v.43h-.11v.11h-.32v.21h-.21v.11h.32v.21c-.16-.06-.17-.09-.43-.11-.03.48-.16.43-.21.86h.21c-.04.14-.07.29-.11.43h-.21c-.04.25-.07.5-.11.75h.11v.11h-.32c-.04.11-.07.21-.11.32l.11.11h-.21v.43h-.32v.11h-.11l.11.21h-.11v.21h-.11v.43h-.11v.64h-.11v.32h-.11v.21h-.11l.11.21h-.11c-.04.25-.07.5-.11.75h-.11v.53l-.21.11c.04.18.07.36.11.53h-.11v.32h-.21c-.04.25-.07.5-.11.75h.11v.11c-.17.33-.38.32-.43.86-.35.07-.57.17-.86.32v.11h-.32v.11c-.18-.04-.36-.07-.53-.11-.07.29-.15.24-.21.53-.24.03-.27.02-.43.11v.11c-.21.04-.43.07-.64.11-.04.07-.07.14-.11.21h-.21c-.11.14-.21.29-.32.43h-.21v.11h-.21v.11h-.32c-.11.18-.21.36-.32.53-.36.07-.71.14-1.07.21-.11.14-.21.29-.32.43l-.43.11c-.04.07-.07.14-.11.21h-.64l-.11.32c-.12.13-.26,0-.43.11v.11c-.11.07-.21.14-.32.21-.01.45-.3.91-.21,1.18h.11v.21l.21.11v.53h.11Z"/><path class="cls-3" d="m12.27,98.51c0,.6,0,1.07.03,1.33.02.18.06.32.24.34.09.01.22.02.31.02.08,0,.11.02.11.05,0,.04-.04.06-.14.06-.39,0-.79-.02-.95-.02s-.56.02-.79.02c-.09,0-.13-.01-.13-.06,0-.03.03-.05.09-.05.09,0,.17-.01.22-.02.12-.03.16-.16.18-.34.03-.26.03-.73.03-1.33v-1.1c0-.95,0-1.12-.01-1.32-.01-.21-.06-.31-.27-.36-.05-.01-.16-.02-.24-.02-.06,0-.11-.01-.11-.05,0-.05.05-.06.14-.06.32,0,.72.02.9.02.24,0,1.5,0,1.65,0,.12,0,.19,0,.26-.02.04-.01.07-.04.1-.04.03,0,.04.03.04.06,0,.04-.03.12-.05.28,0,.06-.02.43-.03.51,0,.05-.02.09-.06.09s-.06-.03-.06-.1c0-.05,0-.15-.04-.24-.04-.09-.17-.18-.41-.19l-.96-.02s-.06.02-.06.09v1.56s0,.06.04.06h.8c.11,0,.19,0,.28-.01.12,0,.21-.03.27-.11.03-.04.04-.06.08-.06.03,0,.04.02.04.06s-.03.19-.05.39c-.01.12-.03.41-.03.46,0,.06,0,.12-.06.12-.04,0-.05-.04-.05-.09s-.01-.12-.04-.19c-.03-.09-.12-.2-.32-.22-.16-.02-.82-.02-.92-.02-.03,0-.04.01-.04.06v.51Z"/><path class="cls-3" d="m19.27,98.08c0-1.4-.81-2.27-1.83-2.27-.72,0-1.54.4-1.54,1.95,0,1.3.72,2.33,1.92,2.33.44,0,1.45-.21,1.45-2.02m-4.23-.12c0-1.07.71-2.45,2.58-2.45,1.55,0,2.52.9,2.52,2.33s-1,2.56-2.58,2.56c-1.79,0-2.52-1.34-2.52-2.45"/><path class="cls-3" d="m22.54,97.9c0,.07.01.09.06.11.13.04.32.06.47.06.25,0,.33-.02.44-.11.19-.14.37-.42.37-.94,0-.89-.59-1.14-.95-1.14-.16,0-.27,0-.33.02-.04.01-.06.04-.06.09v1.9Zm-.74-.49c0-.95,0-1.12-.01-1.32-.01-.21-.06-.31-.27-.36-.05-.01-.16-.02-.24-.02-.07,0-.11-.01-.11-.06s.04-.06.14-.06c.33,0,.72.02.86.02.21,0,.69-.02.88-.02.39,0,.81.04,1.15.27.17.12.42.44.42.86,0,.46-.19.89-.82,1.4.56.7.99,1.25,1.35,1.64.35.36.61.41.7.42.07.01.12.02.17.02s.07.02.07.05c0,.05-.04.06-.12.06h-.59c-.35,0-.51-.03-.67-.12-.27-.14-.51-.44-.86-.92-.25-.34-.54-.77-.62-.86-.03-.04-.07-.04-.11-.04h-.54s-.05,0-.05.04v.09c0,.58,0,1.07.03,1.34.02.18.06.32.24.34.09.01.23.03.31.03.05,0,.07.02.07.05,0,.04-.04.06-.12.06-.36,0-.82-.02-.92-.02-.12,0-.51.02-.76.02-.08,0-.12-.02-.12-.06,0-.03.03-.05.1-.05.09,0,.17-.01.22-.03.12-.02.16-.16.18-.34.03-.26.03-.76.03-1.33v-1.1Z"/><path class="cls-3" d="m29.88,98.09c0,.66,0,1.14.01,1.26,0,.16.02.41.07.47.08.12.32.25.82.25.64,0,1.06-.12,1.44-.45.4-.34.52-.91.52-1.55,0-.79-.33-1.3-.6-1.56-.57-.55-1.29-.62-1.77-.62-.12,0-.36.02-.41.04-.06.03-.07.06-.07.12,0,.21,0,.76,0,1.25v.79Zm-.78-.69c0-.95,0-1.12-.01-1.32-.01-.21-.06-.31-.27-.36-.05-.01-.16-.02-.24-.02-.07,0-.11-.01-.11-.06s.04-.06.14-.06c.33,0,.72.02.9.02.19,0,.59-.02.96-.02.78,0,1.82,0,2.5.71.31.32.61.84.61,1.59,0,.79-.33,1.39-.68,1.74-.29.29-.94.74-2.09.74-.46,0-1.02-.07-1.33-.07-.14,0-.54.02-.79.02-.08,0-.12-.02-.12-.06,0-.03.03-.05.1-.05.09,0,.17-.01.22-.03.12-.02.16-.16.18-.34.03-.26.03-.76.03-1.33v-1.1Z"/><path class="cls-3" d="m35.24,97.41c0-.95,0-1.12-.01-1.32-.01-.21-.07-.32-.21-.35-.07-.02-.15-.02-.22-.02-.06,0-.1-.01-.1-.06,0-.04.05-.05.15-.05.24,0,.63.02.81.02.16,0,.52-.02.76-.02.08,0,.13.01.13.05,0,.05-.04.06-.1.06s-.11,0-.19.02c-.17.03-.22.14-.23.36-.01.2-.01.37-.01,1.32v1.1c0,.61,0,1.1.03,1.37.02.17.06.28.25.31.09.01.22.03.32.03.07,0,.1.02.1.05,0,.04-.05.06-.12.06-.41,0-.8-.02-.97-.02-.14,0-.54.02-.79.02-.08,0-.12-.02-.12-.06,0-.03.03-.05.1-.05.09,0,.17-.01.22-.03.12-.02.16-.13.18-.31.03-.26.03-.76.03-1.36v-1.1Z"/><path class="cls-3" d="m38.07,100.24c-.1-.04-.12-.07-.12-.21,0-.34.03-.72.03-.82,0-.09.03-.16.07-.16.06,0,.06.06.06.11,0,.08.02.21.06.32.14.46.51.63.89.63.56,0,.84-.38.84-.71,0-.31-.09-.6-.61-1l-.29-.22c-.69-.54-.92-.97-.92-1.48,0-.69.57-1.18,1.44-1.18.41,0,.67.06.83.11.06.01.09.03.09.07,0,.08-.03.26-.03.75,0,.14-.02.19-.07.19-.04,0-.06-.04-.06-.11,0-.06-.03-.25-.16-.41-.09-.12-.27-.31-.68-.31-.46,0-.74.27-.74.64,0,.29.14.51.66.9l.17.13c.75.58,1.02,1,1.02,1.59,0,.36-.14.79-.59,1.09-.31.2-.66.26-.99.26-.36,0-.64-.04-.91-.16"/><path class="cls-3" d="m42.5,99.72c-.61-.54-.77-1.24-.77-1.84,0-.42.13-1.16.73-1.71.45-.41,1.04-.66,1.97-.66.39,0,.62.02.9.06.24.03.44.09.62.11.07,0,.09.04.09.07,0,.05-.02.12-.03.34-.01.21,0,.55-.02.67,0,.09-.02.14-.07.14-.05,0-.06-.05-.06-.14,0-.19-.09-.41-.24-.57-.21-.22-.69-.39-1.27-.39-.54,0-.9.14-1.17.39-.46.42-.57,1.01-.57,1.62,0,1.49,1.13,2.22,1.97,2.22.56,0,.89-.06,1.14-.35.11-.12.19-.3.21-.41.02-.1.03-.12.08-.12.04,0,.06.04.06.09,0,.07-.07.62-.14.83-.03.11-.06.14-.16.18-.25.1-.72.14-1.12.14-.85,0-1.57-.19-2.14-.68"/><path class="cls-3" d="m47.75,97.41c0-.95,0-1.12-.01-1.32-.01-.21-.06-.31-.27-.36-.05-.01-.16-.02-.24-.02-.07,0-.11-.01-.11-.06s.04-.06.14-.06c.33,0,.72.02.9.02.2,0,1.44,0,1.56,0,.12-.01.22-.02.27-.04.03,0,.07-.02.1-.02s.04.02.04.06c0,.04-.03.12-.05.41,0,.06-.02.34-.03.41,0,.03-.02.07-.06.07s-.06-.03-.06-.09c0-.04,0-.15-.04-.22-.04-.11-.11-.19-.42-.22-.11-.01-.76-.02-.89-.02-.03,0-.04.02-.04.06v1.58s0,.07.04.07c.14,0,.86,0,1-.01.15-.01.24-.03.3-.09.04-.05.07-.08.1-.08.03,0,.04.01.04.05s-.03.14-.05.46c-.01.12-.02.37-.02.42,0,.05,0,.12-.06.12-.04,0-.06-.03-.06-.06,0-.06,0-.14-.03-.22-.03-.12-.12-.22-.35-.24-.12-.01-.74-.02-.89-.02-.03,0-.04.02-.04.06v.49c0,.21,0,.79,0,.97.01.43.11.52.75.52.16,0,.42,0,.59-.07.16-.07.24-.21.28-.46.01-.07.03-.09.07-.09.05,0,.05.05.05.11,0,.14-.05.57-.08.69-.04.16-.1.16-.34.16-.94,0-1.36-.04-1.73-.04-.14,0-.54.02-.79.02-.08,0-.12-.02-.12-.06,0-.03.03-.05.1-.05.09,0,.17-.01.22-.03.12-.02.16-.16.18-.34.03-.26.03-.76.03-1.33v-1.1Z"/><path class="cls-3" d="m52.79,97.9c0,.07.01.09.06.11.13.04.32.06.47.06.25,0,.33-.02.44-.11.19-.14.37-.42.37-.94,0-.89-.59-1.14-.95-1.14-.16,0-.27,0-.33.02-.04.01-.06.04-.06.09v1.9Zm-.74-.49c0-.95,0-1.12-.01-1.32-.01-.21-.06-.31-.27-.36-.05-.01-.16-.02-.24-.02-.07,0-.11-.01-.11-.06s.04-.06.14-.06c.33,0,.72.02.86.02.21,0,.69-.02.88-.02.39,0,.81.04,1.15.27.17.12.42.44.42.86,0,.46-.19.89-.82,1.4.56.7.99,1.25,1.35,1.64.35.36.61.41.7.42.07.01.12.02.17.02s.07.02.07.05c0,.05-.04.06-.12.06h-.59c-.35,0-.51-.03-.67-.12-.27-.14-.51-.44-.86-.92-.25-.34-.54-.77-.62-.86-.03-.04-.07-.04-.11-.04h-.54s-.05,0-.05.04v.09c0,.58,0,1.07.03,1.34.02.18.06.32.24.34.09.01.23.03.31.03.05,0,.07.02.07.05,0,.04-.04.06-.12.06-.36,0-.82-.02-.92-.02-.12,0-.51.02-.76.02-.08,0-.12-.02-.12-.06,0-.03.03-.05.1-.05.09,0,.17-.01.22-.03.12-.02.16-.16.18-.34.03-.26.03-.76.03-1.33v-1.1Z"/><path class="cls-3" d="m57.47,99.47c.01.49.09.65.22.69.11.04.22.04.32.04.07,0,.11.01.11.05,0,.05-.06.06-.14.06-.41,0-.66-.02-.77-.02-.06,0-.35.02-.67.02-.08,0-.14,0-.14-.06,0-.04.04-.05.1-.05.08,0,.19,0,.28-.03.16-.05.19-.23.19-.77l.06-3.69c0-.12.02-.21.08-.21.07,0,.12.08.23.19.07.08,1.02,1.1,1.93,2,.42.42,1.27,1.32,1.37,1.42h.03l-.06-2.8c0-.38-.06-.5-.21-.56-.09-.04-.24-.04-.33-.04-.07,0-.1-.02-.1-.06,0-.05.07-.06.16-.06.32,0,.62.02.76.02.07,0,.31-.02.61-.02.08,0,.14,0,.14.06,0,.04-.04.06-.11.06-.06,0-.11,0-.19.02-.17.05-.22.18-.23.53l-.07,3.94c0,.14-.02.19-.08.19-.07,0-.14-.07-.21-.14-.39-.37-1.19-1.19-1.84-1.83-.68-.67-1.37-1.45-1.49-1.57h-.02l.07,2.62Z"/><path class="cls-3" d="m63.39,97.41c0-.95,0-1.12-.01-1.32-.01-.21-.07-.32-.21-.35-.07-.02-.15-.02-.22-.02-.06,0-.1-.01-.1-.06,0-.04.05-.05.15-.05.24,0,.63.02.81.02.16,0,.52-.02.76-.02.08,0,.13.01.13.05,0,.05-.04.06-.1.06s-.11,0-.19.02c-.17.03-.22.14-.23.36-.01.2-.01.37-.01,1.32v1.1c0,.61,0,1.1.03,1.37.02.17.06.28.25.31.09.01.22.03.32.03.07,0,.1.02.1.05,0,.04-.05.06-.12.06-.41,0-.81-.02-.97-.02-.14,0-.54.02-.79.02-.08,0-.12-.02-.12-.06,0-.03.02-.05.1-.05.09,0,.17-.01.22-.03.12-.02.16-.13.18-.31.03-.26.03-.76.03-1.36v-1.1Z"/><path class="cls-3" d="m66.91,99.47c.01.49.09.65.22.69.11.04.22.04.32.04.07,0,.11.01.11.05,0,.05-.06.06-.14.06-.41,0-.66-.02-.77-.02-.06,0-.35.02-.67.02-.08,0-.14,0-.14-.06,0-.04.04-.05.1-.05.08,0,.19,0,.28-.03.16-.05.19-.23.19-.77l.06-3.69c0-.12.02-.21.08-.21.07,0,.12.08.23.19.07.08,1.02,1.1,1.93,2,.42.42,1.27,1.32,1.37,1.42h.03l-.06-2.8c0-.38-.06-.5-.21-.56-.09-.04-.24-.04-.33-.04-.07,0-.1-.02-.1-.06,0-.05.07-.06.16-.06.32,0,.62.02.76.02.07,0,.31-.02.61-.02.08,0,.14,0,.14.06,0,.04-.04.06-.11.06-.06,0-.11,0-.19.02-.17.05-.22.18-.23.53l-.07,3.94c0,.14-.02.19-.08.19-.07,0-.14-.07-.21-.14-.39-.37-1.19-1.19-1.84-1.83-.68-.67-1.37-1.45-1.49-1.57h-.02l.07,2.62Z"/><path class="cls-3" d="m76.59,99.9c0,.17,0,.18-.08.22-.41.21-1.02.28-1.5.28-1.53,0-2.88-.72-2.88-2.45,0-1,.52-1.7,1.09-2.04.6-.36,1.15-.41,1.68-.41.43,0,.98.07,1.1.1.13.03.35.06.49.07.07,0,.09.03.09.07,0,.07-.04.24-.04,1.02,0,.1-.02.13-.07.13-.04,0-.06-.03-.06-.08-.02-.14-.05-.34-.21-.52-.19-.2-.69-.49-1.39-.49-.34,0-.8.03-1.24.39-.35.29-.57.76-.57,1.53,0,1.34.85,2.35,2.17,2.35.16,0,.38,0,.53-.07.09-.04.12-.12.12-.23v-.59c0-.31,0-.55,0-.74,0-.21-.06-.31-.27-.36-.05-.01-.16-.02-.24-.02-.06,0-.09-.01-.09-.05,0-.05.04-.06.13-.06.32,0,.72.02.9.02s.52-.02.73-.02c.08,0,.12.01.12.06,0,.04-.04.05-.08.05-.05,0-.09,0-.17.02-.17.03-.23.14-.24.36,0,.19,0,.44,0,.75v.69Z"/><path class="cls-3" d="m81.74,95.95l-.93.02c-.36.01-.51.04-.61.18-.06.09-.09.17-.11.22-.01.05-.03.07-.07.07-.04,0-.06-.03-.06-.1,0-.1.12-.67.13-.72.02-.08.04-.12.07-.12.05,0,.11.06.27.07.18.02.42.03.62.03h2.47c.4,0,.55-.06.6-.06.04,0,.05.04.05.13,0,.13-.02.56-.02.72,0,.06-.02.1-.06.1-.05,0-.06-.03-.07-.12v-.07c-.02-.16-.19-.34-.74-.35l-.79-.02v2.56c0,.57,0,1.07.03,1.34.02.17.06.31.24.34.09.01.22.02.32.02.07,0,.1.02.1.05,0,.04-.05.06-.12.06-.41,0-.81-.02-.98-.02-.14,0-.54.02-.79.02-.08,0-.13-.02-.13-.06,0-.03.02-.05.1-.05.09,0,.17-.01.22-.02.12-.02.16-.16.18-.34.03-.26.03-.76.03-1.33v-2.56Z"/><path class="cls-3" d="m86.44,97.9c0,.07.01.09.06.11.13.04.32.06.47.06.25,0,.33-.02.44-.11.19-.14.37-.42.37-.94,0-.89-.59-1.14-.95-1.14-.16,0-.27,0-.33.02-.04.01-.06.04-.06.09v1.9Zm-.74-.49c0-.95,0-1.12-.01-1.32-.01-.21-.06-.31-.27-.36-.05-.01-.16-.02-.24-.02-.07,0-.11-.01-.11-.06s.04-.06.14-.06c.33,0,.72.02.86.02.21,0,.69-.02.88-.02.39,0,.81.04,1.15.27.17.12.42.44.42.86,0,.46-.19.89-.82,1.4.56.7.99,1.25,1.35,1.64.35.36.61.41.7.42.07.01.12.02.17.02s.07.02.07.05c0,.05-.04.06-.12.06h-.59c-.35,0-.51-.03-.67-.12-.27-.14-.51-.44-.85-.92-.25-.34-.54-.77-.62-.86-.03-.04-.07-.04-.11-.04h-.54s-.05,0-.05.04v.09c0,.58,0,1.07.03,1.34.02.18.06.32.24.34.09.01.23.03.31.03.05,0,.08.02.08.05,0,.04-.04.06-.12.06-.36,0-.82-.02-.92-.02-.12,0-.51.02-.76.02-.08,0-.13-.02-.13-.06,0-.03.03-.05.1-.05.09,0,.17-.01.22-.03.12-.02.16-.16.18-.34.03-.26.03-.76.03-1.33v-1.1Z"/><path class="cls-3" d="m92.29,98.37s.04-.02.03-.04l-.56-1.54s-.01-.06-.03-.06-.03.03-.04.06l-.57,1.54s0,.04.02.04h1.15Zm-1.27.31s-.04.01-.06.05l-.34.89c-.06.16-.09.31-.09.38,0,.11.06.19.25.19h.09c.07,0,.09.01.09.05,0,.05-.04.06-.11.06-.2,0-.47-.02-.66-.02-.07,0-.41.02-.74.02-.08,0-.12-.01-.12-.06,0-.04.03-.05.07-.05.06,0,.14,0,.19-.01.29-.04.41-.25.53-.56l1.57-3.92c.07-.18.11-.25.17-.25.06,0,.09.06.16.2.15.34,1.15,2.89,1.55,3.84.24.56.42.65.55.68.09.02.19.02.26.02.05,0,.08,0,.08.05,0,.05-.06.06-.29.06s-.68,0-1.18-.01c-.11,0-.19,0-.19-.05,0-.04.02-.05.09-.06.04-.01.09-.07.06-.14l-.5-1.32s-.03-.04-.06-.04h-1.39Z"/><path class="cls-3" d="m94.54,96.21c-.14-.34-.25-.41-.47-.47-.09-.02-.19-.02-.24-.02-.06,0-.08-.02-.08-.06,0-.05.07-.06.16-.06.33,0,.69.02.9.02.16,0,.46-.02.77-.02.08,0,.14.01.14.06s-.04.06-.09.06c-.1,0-.19,0-.24.04-.04.03-.06.07-.06.13,0,.08.06.26.14.48l1.07,2.83h.03c.27-.69,1.08-2.7,1.23-3.11.03-.08.06-.17.06-.23,0-.05-.03-.1-.08-.12-.07-.03-.17-.03-.25-.03-.06,0-.11,0-.11-.05,0-.05.06-.06.17-.06.31,0,.57.02.66.02.11,0,.4-.02.59-.02.08,0,.13.01.13.06s-.04.06-.1.06-.19,0-.31.07c-.08.06-.18.16-.34.56-.24.59-.41.92-.75,1.69-.4.91-.69,1.59-.83,1.9-.16.36-.2.46-.29.46-.08,0-.12-.09-.24-.38l-1.57-3.81Z"/><path class="cls-3" d="m99.99,97.41c0-.95,0-1.12-.01-1.32-.01-.21-.06-.31-.27-.36-.05-.01-.16-.02-.24-.02-.07,0-.11-.01-.11-.06s.04-.06.14-.06c.33,0,.72.02.9.02.2,0,1.44,0,1.56,0,.12-.01.22-.02.27-.04.03,0,.07-.02.1-.02s.04.02.04.06c0,.04-.03.12-.05.41,0,.06-.02.34-.03.41,0,.03-.02.07-.06.07s-.06-.03-.06-.09c0-.04,0-.15-.04-.22-.04-.11-.11-.19-.42-.22-.11-.01-.76-.02-.89-.02-.03,0-.04.02-.04.06v1.58s0,.07.04.07c.14,0,.86,0,1-.01.15-.01.24-.03.3-.09.04-.05.07-.08.1-.08.02,0,.04.01.04.05s-.03.14-.05.46c-.01.12-.02.37-.02.42,0,.05,0,.12-.06.12-.04,0-.06-.03-.06-.06,0-.06,0-.14-.02-.22-.03-.12-.12-.22-.35-.24-.12-.01-.74-.02-.89-.02-.03,0-.04.02-.04.06v.49c0,.21,0,.79,0,.97.01.43.11.52.75.52.16,0,.42,0,.59-.07.16-.07.24-.21.28-.46.01-.07.02-.09.07-.09.05,0,.05.05.05.11,0,.14-.05.57-.08.69-.04.16-.1.16-.34.16-.94,0-1.36-.04-1.73-.04-.14,0-.54.02-.79.02-.08,0-.12-.02-.12-.06,0-.03.02-.05.1-.05.09,0,.17-.01.22-.03.12-.02.16-.16.18-.34.03-.26.03-.76.03-1.33v-1.1Z"/><path class="cls-3" d="m105.07,98.51c0,.8,0,1.23.13,1.34.11.09.27.14.76.14.33,0,.57,0,.73-.17.07-.08.15-.26.16-.37,0-.06.02-.09.07-.09.04,0,.05.03.05.11,0,.07-.04.54-.09.72-.04.14-.07.17-.39.17-.9,0-1.31-.04-1.82-.04-.14,0-.54.02-.79.02-.08,0-.13-.02-.13-.06,0-.03.03-.05.1-.05.09,0,.17-.01.22-.02.12-.03.16-.16.18-.34.03-.26.03-.76.03-1.33v-1.1c0-.95,0-1.12-.01-1.32-.01-.21-.06-.31-.27-.36-.05-.01-.13-.02-.21-.02-.07,0-.11-.01-.11-.06s.04-.06.14-.06c.29,0,.69.02.86.02.15,0,.6-.02.85-.02.09,0,.13.01.13.06s-.04.06-.11.06c-.07,0-.17,0-.24.02-.17.03-.22.14-.23.36-.01.2-.01.37-.01,1.32v1.1Z"/><path class="cls-3" d="m109.2,98.51c0,.8,0,1.23.13,1.34.11.09.27.14.76.14.33,0,.57,0,.73-.17.07-.08.15-.26.16-.37,0-.06.02-.09.07-.09.04,0,.05.03.05.11,0,.07-.04.54-.09.72-.04.14-.07.17-.39.17-.9,0-1.31-.04-1.82-.04-.14,0-.54.02-.79.02-.08,0-.12-.02-.12-.06,0-.03.02-.05.1-.05.09,0,.17-.01.22-.02.12-.03.16-.16.18-.34.03-.26.03-.76.03-1.33v-1.1c0-.95,0-1.12-.01-1.32-.01-.21-.06-.31-.27-.36-.05-.01-.12-.02-.21-.02-.07,0-.11-.01-.11-.06s.04-.06.14-.06c.29,0,.69.02.85.02.15,0,.61-.02.85-.02.09,0,.13.01.13.06s-.04.06-.11.06c-.07,0-.17,0-.24.02-.17.03-.22.14-.23.36-.01.2-.01.37-.01,1.32v1.1Z"/><path class="cls-3" d="m112.56,97.41c0-.95,0-1.12-.01-1.32-.01-.21-.06-.31-.27-.36-.05-.01-.16-.02-.24-.02-.07,0-.11-.01-.11-.06s.04-.06.14-.06c.33,0,.72.02.9.02.2,0,1.44,0,1.56,0,.12-.01.22-.02.27-.04.03,0,.07-.02.1-.02s.04.02.04.06c0,.04-.03.12-.05.41,0,.06-.02.34-.03.41,0,.03-.02.07-.06.07s-.06-.03-.06-.09c0-.04,0-.15-.04-.22-.04-.11-.11-.19-.42-.22-.11-.01-.76-.02-.89-.02-.03,0-.04.02-.04.06v1.58s0,.07.04.07c.14,0,.86,0,1-.01.15-.01.24-.03.3-.09.04-.05.07-.08.1-.08.02,0,.04.01.04.05s-.03.14-.05.46c-.01.12-.03.37-.03.42,0,.05,0,.12-.06.12-.04,0-.06-.03-.06-.06,0-.06,0-.14-.02-.22-.03-.12-.12-.22-.35-.24-.12-.01-.74-.02-.89-.02-.03,0-.04.02-.04.06v.49c0,.21,0,.79,0,.97.01.43.11.52.75.52.16,0,.42,0,.59-.07.16-.07.24-.21.28-.46.01-.07.03-.09.07-.09.05,0,.05.05.05.11,0,.14-.05.57-.08.69-.04.16-.1.16-.34.16-.94,0-1.36-.04-1.73-.04-.14,0-.54.02-.79.02-.08,0-.13-.02-.13-.06,0-.03.03-.05.1-.05.09,0,.17-.01.22-.03.12-.02.16-.16.18-.34.03-.26.03-.76.03-1.33v-1.1Z"/><path class="cls-3" d="m117.59,97.9c0,.07.01.09.06.11.13.04.32.06.47.06.25,0,.33-.02.44-.11.19-.14.37-.42.37-.94,0-.89-.59-1.14-.95-1.14-.16,0-.27,0-.33.02-.04.01-.06.04-.06.09v1.9Zm-.74-.49c0-.95,0-1.12-.01-1.32-.01-.21-.06-.31-.27-.36-.05-.01-.16-.02-.24-.02-.07,0-.11-.01-.11-.06s.04-.06.14-.06c.33,0,.72.02.86.02.21,0,.69-.02.88-.02.39,0,.81.04,1.15.27.17.12.42.44.42.86,0,.46-.19.89-.82,1.4.56.7.99,1.25,1.35,1.64.35.36.61.41.7.42.07.01.12.02.17.02s.07.02.07.05c0,.05-.04.06-.12.06h-.59c-.35,0-.51-.03-.67-.12-.27-.14-.51-.44-.86-.92-.25-.34-.54-.77-.62-.86-.03-.04-.07-.04-.11-.04h-.54s-.05,0-.05.04v.09c0,.58,0,1.07.03,1.34.02.18.06.32.24.34.09.01.23.03.31.03.05,0,.07.02.07.05,0,.04-.04.06-.12.06-.36,0-.82-.02-.92-.02-.12,0-.51.02-.76.02-.08,0-.12-.02-.12-.06,0-.03.03-.05.1-.05.09,0,.17-.01.22-.03.12-.02.16-.16.18-.34.03-.26.03-.76.03-1.33v-1.1Z"/><path class="cls-3" d="m121.49,100.24c-.1-.04-.12-.07-.12-.21,0-.34.03-.72.03-.82,0-.09.03-.16.07-.16.06,0,.06.06.06.11,0,.08.03.21.06.32.14.46.51.63.89.63.56,0,.84-.38.84-.71,0-.31-.09-.6-.61-1l-.29-.22c-.69-.54-.92-.97-.92-1.48,0-.69.57-1.18,1.44-1.18.41,0,.67.06.83.11.06.01.09.03.09.07,0,.08-.03.26-.03.75,0,.14-.02.19-.07.19-.04,0-.06-.04-.06-.11,0-.06-.03-.25-.16-.41-.09-.12-.27-.31-.68-.31-.46,0-.74.27-.74.64,0,.29.14.51.66.9l.18.13c.75.58,1.02,1,1.02,1.59,0,.36-.14.79-.59,1.09-.31.2-.66.26-.99.26-.36,0-.64-.04-.91-.16"/></g></g></g></svg>